<?xml version="1.0" encoding="utf-8"?>
<!-- Generator: Adobe Illustrator 16.0.0, SVG Export Plug-In . SVG Version: 6.00 Build 0)  -->
<!DOCTYPE svg PUBLIC "-//W3C//DTD SVG 1.1//EN" "http://www.w3.org/Graphics/SVG/1.1/DTD/svg11.dtd">
<svg version="1.1" id="Layer_1" xmlns="http://www.w3.org/2000/svg" xmlns:xlink="http://www.w3.org/1999/xlink" x="0px" y="0px"
	 width="410px" height="460.547px" viewBox="0 0 410 460.547" enable-background="new 0 0 410 460.547" xml:space="preserve">
<g>
	<defs>
		<circle id="SVGID_49_" cx="75.318" cy="-362.926" r="10.347"/>
	</defs>
	<clipPath id="SVGID_2_">
		<use xlink:href="#SVGID_49_"  overflow="visible"/>
	</clipPath>
	<g clip-path="url(#SVGID_2_)">
		<defs>
			<rect id="SVGID_51_" x="-453.028" y="-1767.273" width="1590" height="2328"/>
		</defs>
		<clipPath id="SVGID_4_">
			<use xlink:href="#SVGID_51_"  overflow="visible"/>
		</clipPath>
	</g>
</g>
<g>
	<defs>
		<path id="SVGID_53_" d="M85.665-333.242c0,5.715-4.632,10.347-10.346,10.347c-5.717,0-10.348-4.632-10.348-10.347
			c0-5.714,4.631-10.346,10.348-10.346C81.033-343.587,85.665-338.956,85.665-333.242"/>
	</defs>
	<clipPath id="SVGID_6_">
		<use xlink:href="#SVGID_53_"  overflow="visible"/>
	</clipPath>
	<g clip-path="url(#SVGID_6_)">
		<defs>
			<rect id="SVGID_55_" x="-453.028" y="-1767.273" width="1590" height="2328"/>
		</defs>
		<clipPath id="SVGID_8_">
			<use xlink:href="#SVGID_55_"  overflow="visible"/>
		</clipPath>
	</g>
</g>
<g>
	<defs>
		<path id="SVGID_57_" d="M85.665-304.242c0,5.715-4.632,10.347-10.346,10.347c-5.717,0-10.348-4.632-10.348-10.347
			c0-5.714,4.631-10.346,10.348-10.346C81.033-314.587,85.665-309.956,85.665-304.242"/>
	</defs>
	<clipPath id="SVGID_10_">
		<use xlink:href="#SVGID_57_"  overflow="visible"/>
	</clipPath>
	<g clip-path="url(#SVGID_10_)">
		<defs>
			<rect id="SVGID_59_" x="-453.028" y="-1767.273" width="1590" height="2328"/>
		</defs>
		<clipPath id="SVGID_12_">
			<use xlink:href="#SVGID_59_"  overflow="visible"/>
		</clipPath>
	</g>
</g>
<g>
	<defs>
		<path id="SVGID_61_" d="M85.665-273.557c0,5.715-4.632,10.347-10.346,10.347c-5.717,0-10.348-4.632-10.348-10.347
			c0-5.714,4.631-10.346,10.348-10.346C81.033-283.903,85.665-279.271,85.665-273.557"/>
	</defs>
	<clipPath id="SVGID_14_">
		<use xlink:href="#SVGID_61_"  overflow="visible"/>
	</clipPath>
	<g clip-path="url(#SVGID_14_)">
		<defs>
			<rect id="SVGID_63_" x="-453.028" y="-1767.273" width="1590" height="2328"/>
		</defs>
		<clipPath id="SVGID_16_">
			<use xlink:href="#SVGID_63_"  overflow="visible"/>
		</clipPath>
	</g>
</g>
<g>
	<defs>
		<rect id="SVGID_73_" x="-346.994" y="147.991" width="129.729" height="142.301"/>
	</defs>
	<clipPath id="SVGID_18_">
		<use xlink:href="#SVGID_73_"  overflow="visible"/>
	</clipPath>
	<g clip-path="url(#SVGID_18_)">
		<defs>
			<rect id="SVGID_75_" x="-878.223" y="-1821.304" width="1590" height="2328"/>
		</defs>
		<clipPath id="SVGID_20_">
			<use xlink:href="#SVGID_75_"  overflow="visible"/>
		</clipPath>
	</g>
</g>
<g>
	<defs>
		<rect id="SVGID_77_" x="-336.25" y="161.088" width="104.055" height="24.834"/>
	</defs>
	<clipPath id="SVGID_22_">
		<use xlink:href="#SVGID_77_"  overflow="visible"/>
	</clipPath>
	<g clip-path="url(#SVGID_22_)">
		<defs>
			<rect id="SVGID_79_" x="-878.223" y="-1821.304" width="1590" height="2328"/>
		</defs>
		<clipPath id="SVGID_24_">
			<use xlink:href="#SVGID_79_"  overflow="visible"/>
		</clipPath>
	</g>
</g>
<g>
	<defs>
		<rect id="SVGID_81_" x="-336.25" y="198.34" width="104.055" height="10.348"/>
	</defs>
	<clipPath id="SVGID_26_">
		<use xlink:href="#SVGID_81_"  overflow="visible"/>
	</clipPath>
	<g clip-path="url(#SVGID_26_)">
		<defs>
			<rect id="SVGID_83_" x="-878.223" y="-1821.304" width="1590" height="2328"/>
		</defs>
		<clipPath id="SVGID_28_">
			<use xlink:href="#SVGID_83_"  overflow="visible"/>
		</clipPath>
	</g>
</g>
<g>
	<defs>
		<rect id="SVGID_85_" x="-336.25" y="219.036" width="104.055" height="10.348"/>
	</defs>
	<clipPath id="SVGID_30_">
		<use xlink:href="#SVGID_85_"  overflow="visible"/>
	</clipPath>
	<g clip-path="url(#SVGID_30_)">
		<defs>
			<rect id="SVGID_87_" x="-878.223" y="-1821.304" width="1590" height="2328"/>
		</defs>
		<clipPath id="SVGID_32_">
			<use xlink:href="#SVGID_87_"  overflow="visible"/>
		</clipPath>
	</g>
</g>
<g>
	<defs>
		<rect id="SVGID_89_" x="-336.25" y="239.731" width="104.055" height="10.348"/>
	</defs>
	<clipPath id="SVGID_34_">
		<use xlink:href="#SVGID_89_"  overflow="visible"/>
	</clipPath>
	<g clip-path="url(#SVGID_34_)">
		<defs>
			<rect id="SVGID_91_" x="-878.223" y="-1821.304" width="1590" height="2328"/>
		</defs>
		<clipPath id="SVGID_36_">
			<use xlink:href="#SVGID_91_"  overflow="visible"/>
		</clipPath>
	</g>
</g>
<g>
	<defs>
		<rect id="SVGID_93_" x="-336.25" y="261.461" width="38.5" height="15.521"/>
	</defs>
	<clipPath id="SVGID_38_">
		<use xlink:href="#SVGID_93_"  overflow="visible"/>
	</clipPath>
	<g clip-path="url(#SVGID_38_)">
		<defs>
			<rect id="SVGID_95_" x="-878.223" y="-1821.304" width="1590" height="2328"/>
		</defs>
		<clipPath id="SVGID_40_">
			<use xlink:href="#SVGID_95_"  overflow="visible"/>
		</clipPath>
	</g>
</g>
<g>
	<defs>
		<rect id="SVGID_97_" x="118.366" y="137.559" width="125" height="171"/>
	</defs>
	<clipPath id="SVGID_42_">
		<use xlink:href="#SVGID_97_"  overflow="visible"/>
	</clipPath>
	<g clip-path="url(#SVGID_42_)">
		<defs>
			<rect id="SVGID_99_" x="-1170.634" y="-1831.44" width="1590" height="2328"/>
		</defs>
		<clipPath id="SVGID_44_">
			<use xlink:href="#SVGID_99_"  overflow="visible"/>
		</clipPath>
		<rect x="113.366" y="132.559" clip-path="url(#SVGID_44_)" fill="#FFFFFF" width="135" height="181"/>
	</g>
</g>
<g>
	<defs>
		<rect id="SVGID_101_" x="177.731" y="180.995" width="59.959" height="10.348"/>
	</defs>
	<clipPath id="SVGID_46_">
		<use xlink:href="#SVGID_101_"  overflow="visible"/>
	</clipPath>
	<g clip-path="url(#SVGID_46_)">
		<defs>
			<rect id="SVGID_103_" x="-1170.634" y="-1831.44" width="1590" height="2328"/>
		</defs>
		<clipPath id="SVGID_48_">
			<use xlink:href="#SVGID_103_"  overflow="visible"/>
		</clipPath>
		<rect x="172.731" y="175.995" clip-path="url(#SVGID_48_)" fill="#B58840" width="69.959" height="20.348"/>
	</g>
</g>
<g>
	<defs>
		<rect id="SVGID_105_" x="127.731" y="180.995" width="44.959" height="10.348"/>
	</defs>
	<clipPath id="SVGID_50_">
		<use xlink:href="#SVGID_105_"  overflow="visible"/>
	</clipPath>
	<g clip-path="url(#SVGID_50_)">
		<defs>
			<rect id="SVGID_107_" x="-1170.634" y="-1831.44" width="1590" height="2328"/>
		</defs>
		<clipPath id="SVGID_52_">
			<use xlink:href="#SVGID_107_"  overflow="visible"/>
		</clipPath>
		<rect x="122.731" y="175.995" clip-path="url(#SVGID_52_)" fill="#F4783A" width="54.959" height="20.348"/>
	</g>
</g>
<g>
	<defs>
		<rect id="SVGID_109_" x="127.731" y="196.995" width="44.959" height="10.348"/>
	</defs>
	<clipPath id="SVGID_54_">
		<use xlink:href="#SVGID_109_"  overflow="visible"/>
	</clipPath>
	<g clip-path="url(#SVGID_54_)">
		<defs>
			<rect id="SVGID_111_" x="-1170.634" y="-1831.44" width="1590" height="2328"/>
		</defs>
		<clipPath id="SVGID_56_">
			<use xlink:href="#SVGID_111_"  overflow="visible"/>
		</clipPath>
		<rect x="122.731" y="191.995" clip-path="url(#SVGID_56_)" fill="#FEBE48" width="54.959" height="20.348"/>
	</g>
</g>
<g>
	<defs>
		<rect id="SVGID_113_" x="177.731" y="196.516" width="59.959" height="10.348"/>
	</defs>
	<clipPath id="SVGID_58_">
		<use xlink:href="#SVGID_113_"  overflow="visible"/>
	</clipPath>
	<g clip-path="url(#SVGID_58_)">
		<defs>
			<rect id="SVGID_115_" x="-1170.634" y="-1831.44" width="1590" height="2328"/>
		</defs>
		<clipPath id="SVGID_60_">
			<use xlink:href="#SVGID_115_"  overflow="visible"/>
		</clipPath>
		<rect x="172.731" y="191.516" clip-path="url(#SVGID_60_)" fill="#F4783A" width="69.959" height="20.348"/>
	</g>
</g>
<g>
	<defs>
		<rect id="SVGID_117_" x="127.075" y="212.038" width="59.96" height="10.348"/>
	</defs>
	<clipPath id="SVGID_62_">
		<use xlink:href="#SVGID_117_"  overflow="visible"/>
	</clipPath>
	<g clip-path="url(#SVGID_62_)">
		<defs>
			<rect id="SVGID_119_" x="-1170.634" y="-1831.44" width="1590" height="2328"/>
		</defs>
		<clipPath id="SVGID_64_">
			<use xlink:href="#SVGID_119_"  overflow="visible"/>
		</clipPath>
		<rect x="122.075" y="207.038" clip-path="url(#SVGID_64_)" fill="#B58840" width="69.96" height="20.348"/>
	</g>
</g>
<g>
	<defs>
		<rect id="SVGID_121_" x="127.075" y="227.559" width="59.96" height="10.348"/>
	</defs>
	<clipPath id="SVGID_66_">
		<use xlink:href="#SVGID_121_"  overflow="visible"/>
	</clipPath>
	<g clip-path="url(#SVGID_66_)">
		<defs>
			<rect id="SVGID_123_" x="-1170.634" y="-1831.44" width="1590" height="2328"/>
		</defs>
		<clipPath id="SVGID_68_">
			<use xlink:href="#SVGID_123_"  overflow="visible"/>
		</clipPath>
		<rect x="122.075" y="222.559" clip-path="url(#SVGID_68_)" fill="#F4783A" width="69.96" height="20.348"/>
	</g>
</g>
<g>
	<defs>
		<rect id="SVGID_125_" x="127.075" y="243.081" width="59.96" height="10.348"/>
	</defs>
	<clipPath id="SVGID_70_">
		<use xlink:href="#SVGID_125_"  overflow="visible"/>
	</clipPath>
	<g clip-path="url(#SVGID_70_)">
		<defs>
			<rect id="SVGID_127_" x="-1170.634" y="-1831.44" width="1590" height="2328"/>
		</defs>
		<clipPath id="SVGID_72_">
			<use xlink:href="#SVGID_127_"  overflow="visible"/>
		</clipPath>
		<rect x="122.075" y="238.081" clip-path="url(#SVGID_72_)" fill="#B58840" width="69.96" height="20.348"/>
	</g>
</g>
<g>
	<defs>
		<rect id="SVGID_129_" x="127.075" y="258.604" width="110.615" height="16.555"/>
	</defs>
	<clipPath id="SVGID_74_">
		<use xlink:href="#SVGID_129_"  overflow="visible"/>
	</clipPath>
	<g clip-path="url(#SVGID_74_)">
		<defs>
			<rect id="SVGID_131_" x="-1170.634" y="-1831.44" width="1590" height="2328"/>
		</defs>
		<clipPath id="SVGID_76_">
			<use xlink:href="#SVGID_131_"  overflow="visible"/>
		</clipPath>
		<rect x="122.075" y="253.604" clip-path="url(#SVGID_76_)" fill="#28A198" width="120.615" height="26.555"/>
	</g>
</g>
<g>
	<defs>
		<rect id="SVGID_133_" x="127.075" y="146.846" width="110.615" height="30.01"/>
	</defs>
	<clipPath id="SVGID_78_">
		<use xlink:href="#SVGID_133_"  overflow="visible"/>
	</clipPath>
	<g clip-path="url(#SVGID_78_)">
		<defs>
			<rect id="SVGID_135_" x="-1170.634" y="-1831.44" width="1590" height="2328"/>
		</defs>
		<clipPath id="SVGID_80_">
			<use xlink:href="#SVGID_135_"  overflow="visible"/>
		</clipPath>
		<rect x="122.075" y="141.846" clip-path="url(#SVGID_80_)" fill="#FFFFFF" width="120.615" height="40.01"/>
	</g>
</g>
<g>
	<defs>
		<rect id="SVGID_137_" x="191.687" y="212.038" width="44.971" height="10.348"/>
	</defs>
	<clipPath id="SVGID_82_">
		<use xlink:href="#SVGID_137_"  overflow="visible"/>
	</clipPath>
	<g clip-path="url(#SVGID_82_)">
		<defs>
			<rect id="SVGID_139_" x="-1170.634" y="-1831.44" width="1590" height="2328"/>
		</defs>
		<clipPath id="SVGID_84_">
			<use xlink:href="#SVGID_139_"  overflow="visible"/>
		</clipPath>
		<rect x="186.687" y="207.038" clip-path="url(#SVGID_84_)" fill="#FEBE48" width="54.971" height="20.348"/>
	</g>
</g>
<g>
	<defs>
		<rect id="SVGID_141_" x="191.687" y="228.038" width="44.971" height="10.348"/>
	</defs>
	<clipPath id="SVGID_86_">
		<use xlink:href="#SVGID_141_"  overflow="visible"/>
	</clipPath>
	<g clip-path="url(#SVGID_86_)">
		<defs>
			<rect id="SVGID_143_" x="-1170.634" y="-1831.44" width="1590" height="2328"/>
		</defs>
		<clipPath id="SVGID_88_">
			<use xlink:href="#SVGID_143_"  overflow="visible"/>
		</clipPath>
		<rect x="186.687" y="223.038" clip-path="url(#SVGID_88_)" fill="#28A198" width="54.971" height="20.348"/>
	</g>
</g>
<g>
	<defs>
		<rect id="SVGID_145_" x="191.687" y="243.038" width="22" height="10.348"/>
	</defs>
	<clipPath id="SVGID_90_">
		<use xlink:href="#SVGID_145_"  overflow="visible"/>
	</clipPath>
	<g clip-path="url(#SVGID_90_)">
		<defs>
			<rect id="SVGID_147_" x="-1170.634" y="-1831.44" width="1590" height="2328"/>
		</defs>
		<clipPath id="SVGID_92_">
			<use xlink:href="#SVGID_147_"  overflow="visible"/>
		</clipPath>
		<rect x="186.687" y="238.038" clip-path="url(#SVGID_92_)" fill="#FEBE48" width="32" height="20.348"/>
	</g>
</g>
<g>
	<defs>
		<rect id="SVGID_149_" x="218.687" y="243.038" width="18" height="10.348"/>
	</defs>
	<clipPath id="SVGID_94_">
		<use xlink:href="#SVGID_149_"  overflow="visible"/>
	</clipPath>
	<g clip-path="url(#SVGID_94_)">
		<defs>
			<rect id="SVGID_151_" x="-1170.634" y="-1831.44" width="1590" height="2328"/>
		</defs>
		<clipPath id="SVGID_96_">
			<use xlink:href="#SVGID_151_"  overflow="visible"/>
		</clipPath>
		<rect x="213.687" y="238.038" clip-path="url(#SVGID_96_)" fill="#B58840" width="28" height="20.348"/>
	</g>
</g>
<g>
	<defs>
		<rect id="SVGID_153_" x="127.339" y="150.952" width="110.051" height="24.834"/>
	</defs>
	<clipPath id="SVGID_98_">
		<use xlink:href="#SVGID_153_"  overflow="visible"/>
	</clipPath>
	<g clip-path="url(#SVGID_98_)">
		<defs>
			<rect id="SVGID_155_" x="-1170.634" y="-1831.44" width="1590" height="2328"/>
		</defs>
		<clipPath id="SVGID_100_">
			<use xlink:href="#SVGID_155_"  overflow="visible"/>
		</clipPath>
		<rect x="122.339" y="145.952" clip-path="url(#SVGID_100_)" fill="#FEBE48" width="120.051" height="34.834"/>
	</g>
</g>
<path d="M258.896,148.963v144.191c0,5.832-2.077,10.824-6.229,14.977c-4.154,4.154-9.145,6.229-14.977,6.229H127.427
	c-5.832,0-10.824-2.074-14.977-6.229c-4.154-4.152-6.229-9.145-6.229-14.977V148.963c0-5.83,2.074-10.82,6.229-14.975
	c4.152-4.152,9.145-6.229,14.977-6.229H237.69c5.832,0,10.822,2.076,14.977,6.229C256.818,138.143,258.896,143.133,258.896,148.963z
	 M241.932,276.192V148.963c0-1.146-0.421-2.141-1.259-2.98c-0.842-0.84-1.835-1.26-2.982-1.26H127.427
	c-1.15,0-2.144,0.42-2.982,1.26c-0.841,0.84-1.259,1.834-1.259,2.98v127.229c0,1.148,0.418,2.143,1.259,2.982
	c0.839,0.84,1.832,1.258,2.982,1.258H237.69c1.147,0,2.141-0.418,2.982-1.258C241.511,278.334,241.932,277.34,241.932,276.192z
	 M188.522,303.36c1.678-1.678,2.518-3.664,2.518-5.963c0-2.297-0.84-4.285-2.518-5.965c-1.68-1.676-3.668-2.518-5.964-2.518
	c-2.299,0-4.286,0.842-5.964,2.518c-1.68,1.68-2.518,3.668-2.518,5.965c0,2.299,0.838,4.285,2.518,5.963
	c1.678,1.68,3.665,2.52,5.964,2.52C184.854,305.879,186.843,305.04,188.522,303.36z"/>
<g>
	<defs>
		<polyline id="SVGID_531_" points="-1190.805,713.708 -1190.805,719.004 -1196.331,719.004 -1196.331,713.708 -1199.336,713.708 
			-1199.336,727.512 -1196.331,727.512 -1196.331,721.558 -1190.805,721.558 -1190.805,727.512 -1187.801,727.512 
			-1187.801,713.708 -1190.805,713.708 		"/>
	</defs>
	<clipPath id="SVGID_102_">
		<use xlink:href="#SVGID_531_"  overflow="visible"/>
	</clipPath>
	<g clip-path="url(#SVGID_102_)">
		<defs>
			<rect id="SVGID_533_" x="-1422.36" y="-1542.689" width="1590" height="2328"/>
		</defs>
		<clipPath id="SVGID_104_">
			<use xlink:href="#SVGID_533_"  overflow="visible"/>
		</clipPath>
	</g>
</g>
<g>
	<defs>
		<path id="SVGID_535_" d="M-1185.392,720.349c0.241-0.65,0.585-1.205,1.032-1.662c0.446-0.458,0.982-0.812,1.605-1.063
			c0.626-0.252,1.327-0.377,2.105-0.377c0.777,0,1.482,0.125,2.114,0.377c0.63,0.251,1.169,0.605,1.615,1.063
			c0.447,0.457,0.79,1.012,1.032,1.662c0.242,0.651,0.365,1.376,0.365,2.175c0,0.8-0.123,1.521-0.365,2.165
			c-0.242,0.646-0.585,1.195-1.032,1.653c-0.446,0.458-0.985,0.809-1.615,1.054c-0.632,0.245-1.337,0.367-2.114,0.367
			c-0.778,0-1.479-0.122-2.105-0.367c-0.623-0.245-1.159-0.596-1.605-1.054c-0.447-0.458-0.791-1.008-1.032-1.653
			c-0.242-0.645-0.363-1.365-0.363-2.165C-1185.755,721.725-1185.634,721-1185.392,720.349 M-1182.925,723.694
			c0.077,0.381,0.208,0.722,0.393,1.024s0.43,0.545,0.735,0.726c0.307,0.18,0.689,0.27,1.148,0.27s0.845-0.09,1.156-0.27
			c0.312-0.181,0.562-0.423,0.746-0.726c0.186-0.303,0.316-0.644,0.393-1.024c0.076-0.379,0.115-0.771,0.115-1.17
			s-0.039-0.792-0.115-1.18c-0.076-0.386-0.207-0.728-0.393-1.024c-0.185-0.296-0.434-0.538-0.746-0.725
			c-0.312-0.188-0.697-0.28-1.156-0.28s-0.842,0.093-1.148,0.28c-0.306,0.187-0.551,0.429-0.735,0.725
			c-0.185,0.297-0.315,0.639-0.393,1.024c-0.075,0.388-0.114,0.78-0.114,1.18S-1183,723.315-1182.925,723.694"/>
	</defs>
	<clipPath id="SVGID_106_">
		<use xlink:href="#SVGID_535_"  overflow="visible"/>
	</clipPath>
	<g clip-path="url(#SVGID_106_)">
		<defs>
			<rect id="SVGID_537_" x="-1422.36" y="-1542.689" width="1590" height="2328"/>
		</defs>
		<clipPath id="SVGID_108_">
			<use xlink:href="#SVGID_537_"  overflow="visible"/>
		</clipPath>
	</g>
</g>
<g>
	<defs>
		<path id="SVGID_539_" d="M-1171.123,717.517v1.353h0.037c0.357-0.515,0.787-0.914,1.291-1.198
			c0.504-0.282,1.081-0.425,1.731-0.425c0.626,0,1.196,0.122,1.712,0.367c0.517,0.245,0.909,0.677,1.177,1.295
			c0.293-0.438,0.692-0.824,1.194-1.159c0.504-0.336,1.101-0.503,1.789-0.503c0.522,0,1.008,0.064,1.453,0.193
			c0.446,0.128,0.83,0.335,1.147,0.619c0.319,0.283,0.568,0.653,0.747,1.11c0.178,0.459,0.267,1.009,0.267,1.653v6.688h-2.716
			v-5.664c0-0.335-0.012-0.649-0.038-0.946c-0.025-0.297-0.096-0.555-0.21-0.773c-0.115-0.22-0.283-0.393-0.508-0.522
			c-0.223-0.129-0.525-0.193-0.908-0.193c-0.382,0-0.691,0.074-0.928,0.222c-0.234,0.149-0.42,0.342-0.555,0.581
			c-0.133,0.238-0.223,0.509-0.268,0.812c-0.045,0.304-0.066,0.608-0.066,0.918v5.567h-2.717v-5.606
			c0-0.296-0.006-0.589-0.019-0.879s-0.066-0.558-0.162-0.802c-0.096-0.245-0.255-0.441-0.479-0.591
			c-0.222-0.147-0.551-0.222-0.984-0.222c-0.127,0-0.297,0.029-0.506,0.088c-0.211,0.058-0.416,0.166-0.613,0.328
			c-0.197,0.161-0.367,0.393-0.506,0.694c-0.142,0.305-0.211,0.7-0.211,1.19v5.799h-2.717v-9.994H-1171.123"/>
	</defs>
	<clipPath id="SVGID_110_">
		<use xlink:href="#SVGID_539_"  overflow="visible"/>
	</clipPath>
	<g clip-path="url(#SVGID_110_)">
		<defs>
			<rect id="SVGID_541_" x="-1422.36" y="-1542.689" width="1590" height="2328"/>
		</defs>
		<clipPath id="SVGID_112_">
			<use xlink:href="#SVGID_541_"  overflow="visible"/>
		</clipPath>
	</g>
</g>
<g>
	<defs>
		<path id="SVGID_543_" d="M-1153.527,725.115c0.408,0.399,0.994,0.6,1.76,0.6c0.548,0,1.02-0.139,1.416-0.416
			c0.395-0.276,0.637-0.57,0.726-0.879h2.393c-0.384,1.198-0.97,2.056-1.761,2.571c-0.79,0.515-1.746,0.772-2.868,0.772
			c-0.778,0-1.481-0.126-2.104-0.376c-0.625-0.253-1.154-0.61-1.588-1.073c-0.434-0.464-0.769-1.018-1.004-1.663
			c-0.236-0.645-0.354-1.354-0.354-2.127c0-0.747,0.122-1.442,0.363-2.088c0.242-0.645,0.587-1.201,1.034-1.672
			c0.445-0.471,0.978-0.841,1.596-1.112c0.619-0.271,1.305-0.406,2.058-0.406c0.841,0,1.573,0.166,2.199,0.494
			c0.624,0.328,1.138,0.771,1.54,1.324c0.401,0.555,0.691,1.185,0.869,1.896c0.179,0.708,0.242,1.449,0.191,2.223h-7.134
			C-1154.158,724.071-1153.936,724.715-1153.527,725.115 M-1150.457,719.856c-0.325-0.36-0.82-0.542-1.482-0.542
			c-0.434,0-0.795,0.076-1.08,0.224c-0.287,0.147-0.517,0.332-0.689,0.552c-0.172,0.219-0.294,0.45-0.363,0.695
			c-0.07,0.244-0.111,0.464-0.124,0.657h4.417C-1149.905,720.746-1150.133,720.216-1150.457,719.856"/>
	</defs>
	<clipPath id="SVGID_114_">
		<use xlink:href="#SVGID_543_"  overflow="visible"/>
	</clipPath>
	<g clip-path="url(#SVGID_114_)">
		<defs>
			<rect id="SVGID_545_" x="-1422.36" y="-1542.689" width="1590" height="2328"/>
		</defs>
		<clipPath id="SVGID_116_">
			<use xlink:href="#SVGID_545_"  overflow="visible"/>
		</clipPath>
	</g>
</g>
<g>
	<defs>
		<path id="SVGID_547_" d="M-1139.985,717.797c0.306-0.883,0.747-1.653,1.319-2.31c0.574-0.657,1.279-1.174,2.115-1.548
			c0.834-0.374,1.774-0.561,2.82-0.561c1.058,0,2.002,0.187,2.83,0.561s1.531,0.891,2.104,1.548c0.573,0.656,1.015,1.427,1.319,2.31
			c0.307,0.883,0.46,1.841,0.46,2.871c0,1.006-0.153,1.943-0.46,2.813c-0.305,0.869-0.746,1.627-1.319,2.271
			c-0.573,0.645-1.276,1.15-2.104,1.518c-0.828,0.368-1.772,0.551-2.83,0.551c-1.046,0-1.986-0.183-2.82-0.551
			c-0.836-0.367-1.541-0.873-2.115-1.518c-0.572-0.644-1.014-1.401-1.319-2.271c-0.306-0.87-0.459-1.808-0.459-2.813
			C-1140.444,719.638-1140.291,718.68-1139.985,717.797 M-1137.24,722.36c0.135,0.548,0.348,1.041,0.641,1.479
			s0.676,0.789,1.147,1.053c0.472,0.265,1.046,0.396,1.722,0.396s1.25-0.132,1.722-0.396c0.471-0.264,0.854-0.614,1.147-1.053
			s0.506-0.932,0.641-1.479c0.133-0.548,0.201-1.112,0.201-1.691c0-0.605-0.068-1.191-0.201-1.76
			c-0.135-0.567-0.348-1.072-0.641-1.518c-0.293-0.444-0.677-0.799-1.147-1.062c-0.472-0.264-1.046-0.396-1.722-0.396
			s-1.25,0.133-1.722,0.396s-0.854,0.618-1.147,1.062c-0.293,0.445-0.506,0.95-0.641,1.518c-0.135,0.568-0.201,1.154-0.201,1.76
			C-1137.441,721.248-1137.375,721.812-1137.24,722.36"/>
	</defs>
	<clipPath id="SVGID_118_">
		<use xlink:href="#SVGID_547_"  overflow="visible"/>
	</clipPath>
	<g clip-path="url(#SVGID_118_)">
		<defs>
			<rect id="SVGID_549_" x="-1422.36" y="-1542.689" width="1590" height="2328"/>
		</defs>
		<clipPath id="SVGID_120_">
			<use xlink:href="#SVGID_549_"  overflow="visible"/>
		</clipPath>
	</g>
</g>
<g>
	<defs>
		<path id="SVGID_551_" d="M-1126.29,719.354v-1.838h1.626v-0.772c0-0.89,0.273-1.617,0.822-2.185
			c0.548-0.567,1.377-0.851,2.486-0.851c0.242,0,0.484,0.009,0.727,0.029c0.242,0.019,0.479,0.035,0.707,0.049v2.049
			c-0.317-0.039-0.65-0.058-0.993-0.058c-0.37,0-0.635,0.086-0.794,0.261c-0.16,0.174-0.24,0.467-0.24,0.88v0.598h1.875v1.838
			h-1.875v8.158h-2.715v-8.158H-1126.29"/>
	</defs>
	<clipPath id="SVGID_122_">
		<use xlink:href="#SVGID_551_"  overflow="visible"/>
	</clipPath>
	<g clip-path="url(#SVGID_122_)">
		<defs>
			<rect id="SVGID_553_" x="-1422.36" y="-1542.689" width="1590" height="2328"/>
		</defs>
		<clipPath id="SVGID_124_">
			<use xlink:href="#SVGID_553_"  overflow="visible"/>
		</clipPath>
	</g>
</g>
<g>
	<defs>
		<path id="SVGID_555_" d="M-1120.266,719.354v-1.838h1.627v-0.772c0-0.89,0.273-1.617,0.822-2.185
			c0.548-0.567,1.377-0.851,2.486-0.851c0.242,0,0.484,0.009,0.727,0.029c0.242,0.019,0.479,0.035,0.708,0.049v2.049
			c-0.318-0.039-0.651-0.058-0.994-0.058c-0.37,0-0.635,0.086-0.794,0.261c-0.16,0.174-0.24,0.467-0.24,0.88v0.598h1.875v1.838
			h-1.875v8.158h-2.715v-8.158H-1120.266"/>
	</defs>
	<clipPath id="SVGID_126_">
		<use xlink:href="#SVGID_555_"  overflow="visible"/>
	</clipPath>
	<g clip-path="url(#SVGID_126_)">
		<defs>
			<rect id="SVGID_557_" x="-1422.36" y="-1542.689" width="1590" height="2328"/>
		</defs>
		<clipPath id="SVGID_128_">
			<use xlink:href="#SVGID_557_"  overflow="visible"/>
		</clipPath>
	</g>
</g>
<g>
	<defs>
		<path id="SVGID_559_" d="M-1112.786,715.97h2.717v-2.262h-2.717V715.97z M-1112.786,727.511h2.717v-9.994h-2.717V727.511z"/>
	</defs>
	<clipPath id="SVGID_130_">
		<use xlink:href="#SVGID_559_"  overflow="visible"/>
	</clipPath>
	<g clip-path="url(#SVGID_130_)">
		<defs>
			<rect id="SVGID_561_" x="-1422.36" y="-1542.689" width="1590" height="2328"/>
		</defs>
		<clipPath id="SVGID_132_">
			<use xlink:href="#SVGID_561_"  overflow="visible"/>
		</clipPath>
	</g>
</g>
<g>
	<defs>
		<path id="SVGID_563_" d="M-1103.205,719.315c-0.432,0-0.797,0.1-1.089,0.3c-0.294,0.2-0.532,0.457-0.719,0.773
			c-0.184,0.315-0.313,0.664-0.392,1.043c-0.076,0.381-0.113,0.758-0.113,1.131c0,0.362,0.037,0.729,0.113,1.104
			c0.078,0.373,0.201,0.711,0.375,1.014c0.171,0.304,0.404,0.551,0.697,0.745c0.293,0.193,0.65,0.29,1.07,0.29
			c0.65,0,1.15-0.184,1.502-0.551c0.35-0.367,0.57-0.861,0.66-1.479h2.619c-0.178,1.327-0.688,2.34-1.529,3.035
			c-0.842,0.696-1.92,1.044-3.232,1.044c-0.739,0-1.42-0.126-2.038-0.377c-0.617-0.252-1.144-0.603-1.576-1.053
			c-0.435-0.452-0.772-0.99-1.015-1.615c-0.243-0.624-0.363-1.312-0.363-2.059c0-0.773,0.111-1.492,0.334-2.156
			c0.223-0.663,0.551-1.237,0.986-1.72c0.433-0.483,0.962-0.86,1.588-1.131c0.623-0.271,1.338-0.406,2.141-0.406
			c0.586,0,1.15,0.076,1.693,0.232c0.541,0.155,1.025,0.389,1.453,0.705c0.428,0.315,0.773,0.708,1.043,1.179
			c0.268,0.471,0.42,1.028,0.459,1.673h-2.658C-1101.374,719.889-1102.045,719.315-1103.205,719.315"/>
	</defs>
	<clipPath id="SVGID_134_">
		<use xlink:href="#SVGID_563_"  overflow="visible"/>
	</clipPath>
	<g clip-path="url(#SVGID_134_)">
		<defs>
			<rect id="SVGID_565_" x="-1422.36" y="-1542.689" width="1590" height="2328"/>
		</defs>
		<clipPath id="SVGID_136_">
			<use xlink:href="#SVGID_565_"  overflow="visible"/>
		</clipPath>
	</g>
</g>
<g>
	<defs>
		<path id="SVGID_567_" d="M-1094.043,725.115c0.409,0.399,0.994,0.6,1.761,0.6c0.547,0,1.019-0.139,1.415-0.416
			c0.395-0.276,0.637-0.57,0.726-0.879h2.393c-0.384,1.198-0.97,2.056-1.761,2.571c-0.791,0.515-1.748,0.772-2.868,0.772
			c-0.778,0-1.481-0.126-2.104-0.376c-0.626-0.253-1.154-0.61-1.588-1.073c-0.434-0.464-0.77-1.018-1.004-1.663
			c-0.236-0.645-0.354-1.354-0.354-2.127c0-0.747,0.121-1.442,0.363-2.088c0.242-0.645,0.587-1.201,1.034-1.672
			c0.445-0.471,0.978-0.841,1.596-1.112c0.619-0.271,1.305-0.406,2.058-0.406c0.841,0,1.573,0.166,2.199,0.494
			c0.624,0.328,1.138,0.771,1.54,1.324c0.401,0.555,0.691,1.185,0.869,1.896c0.179,0.708,0.242,1.449,0.191,2.223h-7.133
			C-1094.674,724.071-1094.451,724.715-1094.043,725.115 M-1090.973,719.856c-0.325-0.36-0.82-0.542-1.482-0.542
			c-0.434,0-0.795,0.076-1.08,0.224c-0.287,0.147-0.517,0.332-0.689,0.552c-0.172,0.219-0.293,0.45-0.363,0.695
			c-0.07,0.244-0.111,0.464-0.123,0.657h4.418C-1090.421,720.746-1090.648,720.216-1090.973,719.856"/>
	</defs>
	<clipPath id="SVGID_138_">
		<use xlink:href="#SVGID_567_"  overflow="visible"/>
	</clipPath>
	<g clip-path="url(#SVGID_138_)">
		<defs>
			<rect id="SVGID_569_" x="-1422.36" y="-1542.689" width="1590" height="2328"/>
		</defs>
		<clipPath id="SVGID_140_">
			<use xlink:href="#SVGID_569_"  overflow="visible"/>
		</clipPath>
	</g>
</g>
<g>
	<defs>
		<path id="SVGID_571_" d="M-1074.477,713.708c0.88,0,1.699,0.143,2.458,0.427s1.415,0.709,1.97,1.274
			c0.555,0.568,0.989,1.276,1.301,2.128c0.312,0.85,0.469,1.849,0.469,2.996c0,1.006-0.129,1.933-0.383,2.784
			c-0.256,0.851-0.64,1.585-1.157,2.204c-0.517,0.618-1.16,1.105-1.933,1.459c-0.771,0.354-1.678,0.532-2.725,0.532h-5.891v-13.805
			H-1074.477z M-1074.687,724.959c0.433,0,0.854-0.071,1.263-0.212c0.407-0.142,0.771-0.377,1.09-0.706
			c0.318-0.328,0.573-0.757,0.766-1.286c0.191-0.528,0.285-1.172,0.285-1.932c0-0.697-0.066-1.325-0.201-1.886
			c-0.133-0.561-0.352-1.041-0.658-1.44c-0.306-0.399-0.712-0.706-1.215-0.918c-0.504-0.213-1.125-0.319-1.865-0.319h-2.143v8.699
			H-1074.687z"/>
	</defs>
	<clipPath id="SVGID_142_">
		<use xlink:href="#SVGID_571_"  overflow="visible"/>
	</clipPath>
	<g clip-path="url(#SVGID_142_)">
		<defs>
			<rect id="SVGID_573_" x="-1422.36" y="-1542.689" width="1590" height="2328"/>
		</defs>
		<clipPath id="SVGID_144_">
			<use xlink:href="#SVGID_573_"  overflow="visible"/>
		</clipPath>
	</g>
</g>
<g>
	<defs>
		<path id="SVGID_575_" d="M-1066.404,715.97h2.716v-2.262h-2.716V715.97z M-1066.404,727.511h2.716v-9.994h-2.716V727.511z"/>
	</defs>
	<clipPath id="SVGID_146_">
		<use xlink:href="#SVGID_575_"  overflow="visible"/>
	</clipPath>
	<g clip-path="url(#SVGID_146_)">
		<defs>
			<rect id="SVGID_577_" x="-1422.36" y="-1542.689" width="1590" height="2328"/>
		</defs>
		<clipPath id="SVGID_148_">
			<use xlink:href="#SVGID_577_"  overflow="visible"/>
		</clipPath>
	</g>
</g>
<g>
	<defs>
		<path id="SVGID_579_" d="M-1052.203,728.248c-0.109,0.515-0.342,0.995-0.697,1.44c-0.358,0.443-0.873,0.821-1.549,1.129
			c-0.677,0.31-1.582,0.465-2.717,0.465c-0.484,0-0.979-0.061-1.481-0.184c-0.505-0.122-0.965-0.313-1.378-0.57
			c-0.414-0.258-0.759-0.59-1.033-0.995c-0.275-0.406-0.43-0.893-0.469-1.46h2.697c0.127,0.515,0.375,0.873,0.746,1.073
			c0.369,0.2,0.797,0.3,1.281,0.3c0.766,0,1.323-0.233,1.674-0.697s0.518-1.05,0.508-1.759v-1.313h-0.039
			c-0.294,0.528-0.712,0.918-1.254,1.169c-0.541,0.251-1.111,0.377-1.712,0.377c-0.739,0-1.377-0.132-1.911-0.396
			c-0.537-0.264-0.976-0.625-1.32-1.082c-0.345-0.458-0.596-0.993-0.756-1.604c-0.16-0.613-0.239-1.26-0.239-1.943
			c0-0.645,0.093-1.267,0.276-1.866c0.187-0.599,0.457-1.127,0.812-1.585c0.358-0.457,0.802-0.821,1.331-1.093
			c0.528-0.271,1.138-0.405,1.827-0.405c0.65,0,1.221,0.123,1.711,0.367c0.49,0.245,0.903,0.658,1.234,1.237h0.039v-1.334h2.58
			v9.357C-1052.041,727.274-1052.095,727.731-1052.203,728.248 M-1055.923,724.921c0.293-0.154,0.535-0.36,0.727-0.618
			c0.191-0.259,0.335-0.552,0.431-0.88c0.095-0.329,0.145-0.674,0.145-1.034c0-0.413-0.039-0.803-0.116-1.17
			s-0.204-0.692-0.383-0.977c-0.177-0.283-0.414-0.51-0.708-0.676c-0.293-0.168-0.662-0.252-1.108-0.252
			c-0.384,0-0.712,0.077-0.985,0.231c-0.275,0.155-0.504,0.364-0.688,0.63c-0.185,0.263-0.319,0.565-0.401,0.907
			c-0.083,0.342-0.124,0.699-0.124,1.073c0,0.36,0.034,0.718,0.104,1.073s0.191,0.674,0.363,0.957
			c0.172,0.284,0.398,0.516,0.68,0.695c0.28,0.181,0.631,0.271,1.052,0.271C-1056.553,725.153-1056.217,725.077-1055.923,724.921"/>
	</defs>
	<clipPath id="SVGID_150_">
		<use xlink:href="#SVGID_579_"  overflow="visible"/>
	</clipPath>
	<g clip-path="url(#SVGID_150_)">
		<defs>
			<rect id="SVGID_581_" x="-1422.36" y="-1542.689" width="1590" height="2328"/>
		</defs>
		<clipPath id="SVGID_152_">
			<use xlink:href="#SVGID_581_"  overflow="visible"/>
		</clipPath>
	</g>
</g>
<g>
	<defs>
		<path id="SVGID_583_" d="M-1049.783,715.97h2.715v-2.262h-2.715V715.97z M-1049.783,727.511h2.715v-9.994h-2.715V727.511z"/>
	</defs>
	<clipPath id="SVGID_154_">
		<use xlink:href="#SVGID_583_"  overflow="visible"/>
	</clipPath>
	<g clip-path="url(#SVGID_154_)">
		<defs>
			<rect id="SVGID_585_" x="-1422.36" y="-1542.689" width="1590" height="2328"/>
		</defs>
		<clipPath id="SVGID_156_">
			<use xlink:href="#SVGID_585_"  overflow="visible"/>
		</clipPath>
	</g>
</g>
<g>
	<defs>
		<path id="SVGID_587_" d="M-1039.493,717.517v1.837h-1.989v4.949c0,0.464,0.077,0.772,0.23,0.928
			c0.151,0.154,0.457,0.231,0.918,0.231c0.151,0,0.299-0.006,0.439-0.02c0.141-0.012,0.275-0.032,0.401-0.058v2.126
			c-0.229,0.039-0.484,0.064-0.765,0.078c-0.281,0.012-0.555,0.019-0.822,0.019c-0.422,0-0.82-0.028-1.197-0.086
			c-0.376-0.059-0.707-0.171-0.993-0.339c-0.288-0.168-0.514-0.406-0.679-0.715c-0.166-0.31-0.249-0.716-0.249-1.218v-5.896h-1.645
			v-1.837h1.645v-2.996h2.716v2.996H-1039.493"/>
	</defs>
	<clipPath id="SVGID_158_">
		<use xlink:href="#SVGID_587_"  overflow="visible"/>
	</clipPath>
	<g clip-path="url(#SVGID_158_)">
		<defs>
			<rect id="SVGID_589_" x="-1422.36" y="-1542.689" width="1590" height="2328"/>
		</defs>
		<clipPath id="SVGID_160_">
			<use xlink:href="#SVGID_589_"  overflow="visible"/>
		</clipPath>
	</g>
</g>
<g>
	<defs>
		<path id="SVGID_591_" d="M-1038.307,720.59c0.037-0.645,0.196-1.18,0.477-1.604c0.281-0.425,0.639-0.767,1.071-1.024
			c0.434-0.257,0.923-0.441,1.464-0.55c0.541-0.11,1.088-0.166,1.635-0.166c0.497,0,1.001,0.036,1.511,0.106
			c0.511,0.071,0.976,0.21,1.396,0.417c0.424,0.206,0.767,0.492,1.035,0.859c0.268,0.367,0.402,0.854,0.402,1.46v5.201
			c0,0.45,0.024,0.882,0.075,1.295s0.14,0.722,0.267,0.928h-2.753c-0.051-0.154-0.092-0.312-0.125-0.474
			c-0.031-0.161-0.056-0.325-0.067-0.493c-0.433,0.452-0.943,0.767-1.529,0.948c-0.588,0.18-1.187,0.27-1.799,0.27
			c-0.472,0-0.911-0.058-1.318-0.173c-0.409-0.117-0.766-0.298-1.072-0.542c-0.305-0.245-0.545-0.554-0.717-0.928
			c-0.173-0.374-0.258-0.818-0.258-1.334c0-0.568,0.099-1.034,0.297-1.401c0.197-0.367,0.452-0.661,0.764-0.88
			c0.312-0.219,0.67-0.383,1.072-0.493c0.401-0.109,0.807-0.196,1.215-0.261c0.406-0.065,0.809-0.116,1.204-0.155
			s0.746-0.097,1.053-0.174c0.306-0.077,0.548-0.19,0.727-0.339c0.177-0.147,0.261-0.364,0.247-0.647
			c0-0.296-0.047-0.531-0.143-0.705c-0.096-0.175-0.223-0.31-0.381-0.406c-0.162-0.097-0.346-0.161-0.557-0.193
			c-0.21-0.032-0.437-0.049-0.68-0.049c-0.534,0-0.955,0.116-1.262,0.349c-0.306,0.231-0.482,0.618-0.535,1.159H-1038.307z
			 M-1032.035,722.622c-0.114,0.103-0.257,0.183-0.43,0.241c-0.172,0.058-0.357,0.105-0.554,0.145
			c-0.198,0.039-0.407,0.071-0.623,0.097c-0.217,0.026-0.433,0.058-0.649,0.097c-0.205,0.039-0.404,0.09-0.602,0.154
			c-0.199,0.064-0.371,0.152-0.518,0.261c-0.146,0.11-0.264,0.249-0.354,0.416c-0.089,0.168-0.135,0.381-0.135,0.639
			c0,0.245,0.046,0.45,0.135,0.619c0.09,0.168,0.211,0.3,0.363,0.395c0.152,0.098,0.332,0.166,0.537,0.203
			c0.203,0.039,0.413,0.059,0.629,0.059c0.535,0,0.95-0.091,1.244-0.271c0.293-0.181,0.51-0.396,0.65-0.647
			c0.14-0.251,0.227-0.507,0.258-0.764c0.031-0.258,0.047-0.464,0.047-0.618V722.622z"/>
	</defs>
	<clipPath id="SVGID_162_">
		<use xlink:href="#SVGID_591_"  overflow="visible"/>
	</clipPath>
	<g clip-path="url(#SVGID_162_)">
		<defs>
			<rect id="SVGID_593_" x="-1422.36" y="-1542.689" width="1590" height="2328"/>
		</defs>
		<clipPath id="SVGID_164_">
			<use xlink:href="#SVGID_593_"  overflow="visible"/>
		</clipPath>
	</g>
</g>
<g>
	<defs>
		<rect id="SVGID_595_" x="-1027.137" y="713.708" width="2.716" height="13.803"/>
	</defs>
	<clipPath id="SVGID_166_">
		<use xlink:href="#SVGID_595_"  overflow="visible"/>
	</clipPath>
	<g clip-path="url(#SVGID_166_)">
		<defs>
			<rect id="SVGID_597_" x="-1422.36" y="-1542.689" width="1590" height="2328"/>
		</defs>
		<clipPath id="SVGID_168_">
			<use xlink:href="#SVGID_597_"  overflow="visible"/>
		</clipPath>
	</g>
</g>
<g>
	<defs>
		<rect id="SVGID_599_" x="-1199.336" y="736.215" width="41.645" height="8.035"/>
	</defs>
	<clipPath id="SVGID_170_">
		<use xlink:href="#SVGID_599_"  overflow="visible"/>
	</clipPath>
	<g clip-path="url(#SVGID_170_)">
		<defs>
			<rect id="SVGID_601_" x="-1422.36" y="-1542.689" width="1590" height="2328"/>
		</defs>
		<clipPath id="SVGID_172_">
			<use xlink:href="#SVGID_601_"  overflow="visible"/>
		</clipPath>
	</g>
</g>
<g>
	<defs>
		<rect id="SVGID_603_" x="-1154.915" y="736.215" width="41.645" height="8.035"/>
	</defs>
	<clipPath id="SVGID_174_">
		<use xlink:href="#SVGID_603_"  overflow="visible"/>
	</clipPath>
	<g clip-path="url(#SVGID_174_)">
		<defs>
			<rect id="SVGID_605_" x="-1422.36" y="-1542.689" width="1590" height="2328"/>
		</defs>
		<clipPath id="SVGID_176_">
			<use xlink:href="#SVGID_605_"  overflow="visible"/>
		</clipPath>
	</g>
</g>
<g>
	<defs>
		<rect id="SVGID_607_" x="-1110.495" y="736.215" width="41.644" height="8.035"/>
	</defs>
	<clipPath id="SVGID_178_">
		<use xlink:href="#SVGID_607_"  overflow="visible"/>
	</clipPath>
	<g clip-path="url(#SVGID_178_)">
		<defs>
			<rect id="SVGID_609_" x="-1422.36" y="-1542.689" width="1590" height="2328"/>
		</defs>
		<clipPath id="SVGID_180_">
			<use xlink:href="#SVGID_609_"  overflow="visible"/>
		</clipPath>
	</g>
</g>
<g>
	<defs>
		<rect id="SVGID_611_" x="-1066.076" y="736.215" width="41.646" height="8.035"/>
	</defs>
	<clipPath id="SVGID_182_">
		<use xlink:href="#SVGID_611_"  overflow="visible"/>
	</clipPath>
	<g clip-path="url(#SVGID_182_)">
		<defs>
			<rect id="SVGID_613_" x="-1422.36" y="-1542.689" width="1590" height="2328"/>
		</defs>
		<clipPath id="SVGID_184_">
			<use xlink:href="#SVGID_613_"  overflow="visible"/>
		</clipPath>
	</g>
</g>
<g>
	<defs>
		<path id="SVGID_615_" d="M-707.655,738.238l113.354,0.201c1.584,0,2.998-0.235,2.998,3.16l-0.139,37.329h-119.074V741.46
			C-710.516,739.786-710.354,738.238-707.655,738.238z"/>
	</defs>
	<clipPath id="SVGID_186_">
		<use xlink:href="#SVGID_615_"  overflow="visible"/>
	</clipPath>
	<g clip-path="url(#SVGID_186_)">
		<defs>
			<rect id="SVGID_617_" x="-1158.063" y="-1507.215" width="1590" height="2328"/>
		</defs>
		<clipPath id="SVGID_188_">
			<use xlink:href="#SVGID_617_"  overflow="visible"/>
		</clipPath>
	</g>
</g>
<g>
	<defs>
		<path id="SVGID_619_" d="M-708.816,738.799h115.506c0.68,0,1.232,0.553,1.232,1.232v27.221h-82.557
			c-3.026,5.471-8.857,9.186-15.548,9.186c-6.692,0-12.521-3.711-15.545-9.186h-4.321v-27.221
			C-710.049,739.352-709.495,738.799-708.816,738.799z M-593.311,737.785h-115.506c-1.238,0-2.247,1.008-2.247,2.247v39.246
			c0,0.279,0.228,0.507,0.507,0.507h118.985c0.28,0,0.508-0.228,0.508-0.507v-39.246
			C-591.063,738.792-592.072,737.785-593.311,737.785z"/>
	</defs>
	<clipPath id="SVGID_190_">
		<use xlink:href="#SVGID_619_"  overflow="visible"/>
	</clipPath>
	<g clip-path="url(#SVGID_190_)">
		<defs>
			<rect id="SVGID_621_" x="-1158.063" y="-1507.215" width="1590" height="2328"/>
		</defs>
		<clipPath id="SVGID_192_">
			<use xlink:href="#SVGID_621_"  overflow="visible"/>
		</clipPath>
	</g>
</g>
<g>
	<defs>
		<path id="SVGID_623_" d="M-676.541,757.335c0.004,7.53-6.097,13.638-13.627,13.642c-7.529,0.005-13.639-6.096-13.643-13.625
			v-0.017c-0.006-7.529,6.096-13.637,13.626-13.642c7.531-0.004,13.64,6.097,13.644,13.626V757.335z"/>
	</defs>
	<clipPath id="SVGID_194_">
		<use xlink:href="#SVGID_623_"  overflow="visible"/>
	</clipPath>
	<g clip-path="url(#SVGID_194_)">
		<defs>
			<rect id="SVGID_625_" x="-1158.063" y="-1507.215" width="1590" height="2328"/>
		</defs>
		<clipPath id="SVGID_196_">
			<use xlink:href="#SVGID_625_"  overflow="visible"/>
		</clipPath>
	</g>
</g>
<g>
	<defs>
		<path id="SVGID_627_" d="M-683.43,755.814c-0.391-0.852-0.965-1.277-1.72-1.277c-1.406,0-2.11,0.929-2.11,2.784
			s0.704,2.782,2.11,2.782c0.912,0,1.551-0.451,1.915-1.356l1.953,1.018c-0.909,1.618-2.273,2.428-4.092,2.428
			c-1.404,0-2.527-0.431-3.372-1.292c-0.843-0.862-1.267-2.05-1.267-3.564c0-1.487,0.43-2.668,1.287-3.543s1.947-1.312,3.273-1.312
			c1.922,0,3.299,0.759,4.131,2.274L-683.43,755.814z M-692.42,755.814c-0.391-0.852-0.975-1.277-1.756-1.277
			c-1.377,0-2.066,0.929-2.066,2.784s0.689,2.782,2.066,2.782c0.911,0,1.561-0.451,1.951-1.356l1.911,1.018
			c-0.911,1.618-2.278,2.428-4.099,2.428c-1.406,0-2.531-0.431-3.377-1.292c-0.846-0.862-1.27-2.05-1.27-3.564
			c0-1.487,0.437-2.668,1.309-3.543c0.871-0.875,1.958-1.312,3.26-1.312c1.926,0,3.305,0.759,4.139,2.274L-692.42,755.814z
			 M-699.146,748.265c-2.557,2.582-3.835,5.606-3.835,9.074c0,3.469,1.266,6.468,3.795,8.996c2.53,2.53,5.542,3.795,9.037,3.795
			s6.532-1.277,9.114-3.833c2.452-2.374,3.678-5.358,3.678-8.958c0-3.571-1.246-6.603-3.737-9.094
			c-2.49-2.489-5.509-3.735-9.055-3.735S-696.696,745.762-699.146,748.265z M-679.092,746.231c3.023,3.023,4.535,6.726,4.535,11.104
			c0,4.38-1.486,8.043-4.457,10.988c-3.154,3.103-6.881,4.652-11.183,4.652c-4.249,0-7.911-1.537-10.985-4.613
			c-3.076-3.075-4.614-6.751-4.614-11.027c0-4.274,1.538-7.977,4.614-11.104c2.996-3.023,6.659-4.535,10.985-4.535
			C-685.816,741.696-682.115,743.208-679.092,746.231z"/>
	</defs>
	<clipPath id="SVGID_198_">
		<use xlink:href="#SVGID_627_"  overflow="visible"/>
	</clipPath>
	<g clip-path="url(#SVGID_198_)">
		<defs>
			<rect id="SVGID_629_" x="-1158.063" y="-1507.215" width="1590" height="2328"/>
		</defs>
		<clipPath id="SVGID_200_">
			<use xlink:href="#SVGID_629_"  overflow="visible"/>
		</clipPath>
	</g>
</g>
<g>
	<defs>
		<circle id="SVGID_631_" cx="-659.3" cy="753.009" r="10.738"/>
	</defs>
	<clipPath id="SVGID_202_">
		<use xlink:href="#SVGID_631_"  overflow="visible"/>
	</clipPath>
	<g clip-path="url(#SVGID_202_)">
		<defs>
			<rect id="SVGID_633_" x="-1158.063" y="-1507.215" width="1590" height="2328"/>
		</defs>
		<clipPath id="SVGID_204_">
			<use xlink:href="#SVGID_633_"  overflow="visible"/>
		</clipPath>
	</g>
</g>
<g>
	<defs>
		<path id="SVGID_635_" d="M-656.191,749.901c0-0.413-0.336-0.749-0.75-0.749h-4.742c-0.414,0-0.75,0.336-0.75,0.749v4.743h1.323
			v5.616h3.595v-5.616h1.324V749.901L-656.191,749.901z"/>
	</defs>
	<clipPath id="SVGID_206_">
		<use xlink:href="#SVGID_635_"  overflow="visible"/>
	</clipPath>
	<g clip-path="url(#SVGID_206_)">
		<defs>
			<rect id="SVGID_637_" x="-1158.063" y="-1507.215" width="1590" height="2328"/>
		</defs>
		<clipPath id="SVGID_208_">
			<use xlink:href="#SVGID_637_"  overflow="visible"/>
		</clipPath>
	</g>
</g>
<g>
	<defs>
		<circle id="SVGID_639_" cx="-659.312" cy="746.906" r="1.622"/>
	</defs>
	<clipPath id="SVGID_210_">
		<use xlink:href="#SVGID_639_"  overflow="visible"/>
	</clipPath>
	<g clip-path="url(#SVGID_210_)">
		<defs>
			<rect id="SVGID_641_" x="-1158.063" y="-1507.215" width="1590" height="2328"/>
		</defs>
		<clipPath id="SVGID_212_">
			<use xlink:href="#SVGID_641_"  overflow="visible"/>
		</clipPath>
	</g>
</g>
<g>
	<defs>
		<path id="SVGID_643_" d="M-659.298,743.263c2.632,0,4.866,0.929,6.704,2.784c1.859,1.835,2.787,4.077,2.787,6.725
			c0,2.666-0.909,4.879-2.729,6.638c-1.916,1.895-4.17,2.841-6.763,2.841c-2.594,0-4.829-0.937-6.706-2.812
			s-2.814-4.097-2.814-6.667s0.947-4.812,2.844-6.725C-664.154,744.192-661.93,743.263-659.298,743.263z M-659.328,741.177
			c-3.211,0-5.93,1.121-8.156,3.362c-2.283,2.318-3.424,5.063-3.424,8.232s1.141,5.894,3.424,8.175
			c2.284,2.279,5.004,3.42,8.156,3.42c3.193,0,5.961-1.149,8.303-3.449c2.206-2.184,3.309-4.898,3.309-8.146
			s-1.122-5.991-3.367-8.232C-653.328,742.298-656.076,741.177-659.328,741.177z"/>
	</defs>
	<clipPath id="SVGID_214_">
		<use xlink:href="#SVGID_643_"  overflow="visible"/>
	</clipPath>
	<g clip-path="url(#SVGID_214_)">
		<defs>
			<rect id="SVGID_645_" x="-1158.063" y="-1507.215" width="1590" height="2328"/>
		</defs>
		<clipPath id="SVGID_216_">
			<use xlink:href="#SVGID_645_"  overflow="visible"/>
		</clipPath>
	</g>
</g>
<g>
	<defs>
		<path id="SVGID_647_" d="M-662.764,776.021c0.143,0,0.279-0.014,0.409-0.042s0.245-0.075,0.345-0.139
			c0.099-0.065,0.178-0.153,0.236-0.266c0.059-0.11,0.088-0.253,0.088-0.426c0-0.34-0.096-0.582-0.287-0.728
			c-0.193-0.145-0.447-0.218-0.762-0.218h-1.59v1.817H-662.764z M-662.849,773.21c0.261,0,0.474-0.062,0.641-0.186
			c0.168-0.123,0.251-0.323,0.251-0.601c0-0.154-0.027-0.281-0.083-0.379c-0.057-0.1-0.13-0.176-0.224-0.232
			c-0.093-0.056-0.199-0.094-0.32-0.115s-0.246-0.032-0.377-0.032h-1.363v1.545H-662.849z M-662.662,770.532
			c0.315,0,0.604,0.028,0.863,0.084c0.26,0.055,0.483,0.146,0.67,0.273c0.186,0.126,0.329,0.295,0.432,0.505
			c0.102,0.21,0.153,0.47,0.153,0.779c0,0.333-0.075,0.611-0.228,0.833c-0.152,0.224-0.377,0.405-0.674,0.548
			c0.41,0.117,0.715,0.323,0.917,0.617s0.303,0.647,0.303,1.062c0,0.334-0.065,0.623-0.194,0.867
			c-0.131,0.243-0.307,0.443-0.526,0.598c-0.22,0.155-0.471,0.27-0.753,0.344c-0.281,0.074-0.57,0.111-0.869,0.111h-3.216v-6.622
			H-662.662L-662.662,770.532z"/>
	</defs>
	<clipPath id="SVGID_218_">
		<use xlink:href="#SVGID_647_"  overflow="visible"/>
	</clipPath>
	<g clip-path="url(#SVGID_218_)">
		<defs>
			<rect id="SVGID_649_" x="-1158.063" y="-1507.215" width="1590" height="2328"/>
		</defs>
		<clipPath id="SVGID_220_">
			<use xlink:href="#SVGID_649_"  overflow="visible"/>
		</clipPath>
	</g>
</g>
<g>
	<defs>
		<polygon id="SVGID_651_" points="-659.969,770.532 -658.336,770.532 -656.785,773.147 -655.242,770.532 -653.619,770.532 
			-656.078,774.613 -656.078,777.154 -657.538,777.154 -657.538,774.576 		"/>
	</defs>
	<clipPath id="SVGID_222_">
		<use xlink:href="#SVGID_651_"  overflow="visible"/>
	</clipPath>
	<g clip-path="url(#SVGID_222_)">
		<defs>
			<rect id="SVGID_653_" x="-1158.063" y="-1507.215" width="1590" height="2328"/>
		</defs>
		<clipPath id="SVGID_224_">
			<use xlink:href="#SVGID_653_"  overflow="visible"/>
		</clipPath>
	</g>
</g>
<g>
	<defs>
		<path id="SVGID_655_" d="M-612.623,775.517c0.08,0.154,0.187,0.279,0.319,0.375c0.133,0.097,0.288,0.167,0.468,0.214
			c0.179,0.047,0.363,0.07,0.555,0.07c0.129,0,0.269-0.011,0.417-0.033c0.147-0.021,0.286-0.063,0.416-0.125
			s0.237-0.146,0.324-0.256c0.085-0.107,0.129-0.245,0.129-0.412c0-0.18-0.058-0.324-0.171-0.436
			c-0.114-0.112-0.265-0.204-0.449-0.278c-0.186-0.074-0.396-0.14-0.629-0.195c-0.235-0.056-0.473-0.117-0.714-0.186
			c-0.247-0.062-0.488-0.138-0.724-0.227c-0.233-0.09-0.443-0.206-0.629-0.349c-0.186-0.142-0.336-0.319-0.449-0.533
			c-0.114-0.213-0.172-0.472-0.172-0.774c0-0.34,0.073-0.636,0.218-0.886c0.146-0.25,0.336-0.459,0.569-0.627
			c0.235-0.167,0.502-0.29,0.799-0.37c0.295-0.081,0.592-0.121,0.889-0.121c0.346,0,0.678,0.039,0.996,0.117
			c0.318,0.076,0.602,0.202,0.848,0.375c0.247,0.174,0.443,0.396,0.589,0.664c0.145,0.27,0.218,0.596,0.218,0.979h-1.414
			c-0.012-0.197-0.053-0.361-0.123-0.49c-0.071-0.13-0.166-0.232-0.283-0.307c-0.116-0.074-0.25-0.127-0.4-0.157
			c-0.15-0.031-0.315-0.047-0.494-0.047c-0.116,0-0.234,0.013-0.35,0.037c-0.118,0.025-0.225,0.067-0.318,0.13
			c-0.097,0.062-0.174,0.139-0.236,0.231c-0.061,0.094-0.092,0.211-0.092,0.353c0,0.13,0.023,0.236,0.073,0.315
			c0.05,0.081,0.146,0.155,0.292,0.224c0.146,0.067,0.346,0.136,0.602,0.203c0.256,0.068,0.592,0.155,1.006,0.261
			c0.123,0.023,0.295,0.069,0.514,0.135c0.219,0.064,0.438,0.168,0.652,0.311c0.217,0.143,0.403,0.333,0.562,0.57
			c0.157,0.237,0.235,0.542,0.235,0.914c0,0.303-0.059,0.584-0.176,0.844c-0.118,0.261-0.293,0.484-0.525,0.673
			c-0.23,0.189-0.519,0.336-0.862,0.44c-0.343,0.106-0.739,0.158-1.191,0.158c-0.365,0-0.718-0.046-1.062-0.135
			c-0.344-0.09-0.646-0.23-0.908-0.423c-0.264-0.192-0.473-0.438-0.627-0.734s-0.229-0.649-0.223-1.058h1.413
			C-612.743,775.173-612.703,775.363-612.623,775.517z"/>
	</defs>
	<clipPath id="SVGID_226_">
		<use xlink:href="#SVGID_655_"  overflow="visible"/>
	</clipPath>
	<g clip-path="url(#SVGID_226_)">
		<defs>
			<rect id="SVGID_657_" x="-1158.063" y="-1507.215" width="1590" height="2328"/>
		</defs>
		<clipPath id="SVGID_228_">
			<use xlink:href="#SVGID_657_"  overflow="visible"/>
		</clipPath>
	</g>
</g>
<g>
	<defs>
		<path id="SVGID_659_" d="M-604.334,774.592l-0.834-2.428h-0.02l-0.862,2.428H-604.334z M-604.418,770.532l2.477,6.622h-1.512
			l-0.5-1.475h-2.477l-0.521,1.475h-1.466l2.505-6.622H-604.418z"/>
	</defs>
	<clipPath id="SVGID_230_">
		<use xlink:href="#SVGID_659_"  overflow="visible"/>
	</clipPath>
	<g clip-path="url(#SVGID_230_)">
		<defs>
			<rect id="SVGID_661_" x="-1158.063" y="-1507.215" width="1590" height="2328"/>
		</defs>
		<clipPath id="SVGID_232_">
			<use xlink:href="#SVGID_661_"  overflow="visible"/>
		</clipPath>
	</g>
</g>
<g>
	<defs>
		<polygon id="SVGID_663_" points="-638.545,770.532 -635.779,774.974 -635.764,774.974 -635.764,770.532 -634.396,770.532 
			-634.396,777.154 -635.854,777.154 -638.609,772.72 -638.628,772.72 -638.628,777.154 -639.994,777.154 -639.994,770.532 		"/>
	</defs>
	<clipPath id="SVGID_234_">
		<use xlink:href="#SVGID_663_"  overflow="visible"/>
	</clipPath>
	<g clip-path="url(#SVGID_234_)">
		<defs>
			<rect id="SVGID_665_" x="-1158.063" y="-1507.215" width="1590" height="2328"/>
		</defs>
		<clipPath id="SVGID_236_">
			<use xlink:href="#SVGID_665_"  overflow="visible"/>
		</clipPath>
	</g>
</g>
<g>
	<defs>
		<path id="SVGID_667_" d="M-628.868,772.296c-0.086-0.14-0.194-0.262-0.325-0.367c-0.13-0.104-0.276-0.188-0.44-0.245
			c-0.164-0.06-0.335-0.089-0.515-0.089c-0.328,0-0.605,0.063-0.835,0.19c-0.229,0.126-0.415,0.296-0.556,0.51
			c-0.143,0.213-0.247,0.456-0.312,0.728c-0.064,0.271-0.097,0.554-0.097,0.844c0,0.278,0.032,0.549,0.097,0.811
			c0.065,0.264,0.17,0.5,0.312,0.71c0.141,0.21,0.326,0.378,0.556,0.505c0.229,0.128,0.507,0.19,0.835,0.19
			c0.445,0,0.793-0.136,1.044-0.408c0.25-0.271,0.403-0.631,0.459-1.076h1.41c-0.037,0.414-0.134,0.789-0.288,1.123
			s-0.358,0.618-0.611,0.854c-0.254,0.235-0.551,0.415-0.891,0.539c-0.34,0.125-0.715,0.187-1.123,0.187
			c-0.508,0-0.963-0.088-1.369-0.265c-0.404-0.176-0.747-0.419-1.025-0.728c-0.279-0.31-0.493-0.674-0.642-1.091
			c-0.148-0.418-0.224-0.868-0.224-1.351c0-0.495,0.075-0.954,0.224-1.378c0.148-0.425,0.362-0.794,0.642-1.109
			c0.278-0.315,0.621-0.562,1.025-0.742c0.406-0.18,0.861-0.27,1.369-0.27c0.365,0,0.71,0.053,1.034,0.158
			c0.325,0.105,0.616,0.259,0.872,0.46c0.258,0.201,0.469,0.45,0.636,0.748c0.167,0.297,0.272,0.637,0.315,1.021h-1.41
			C-628.727,772.588-628.781,772.435-628.868,772.296z"/>
	</defs>
	<clipPath id="SVGID_238_">
		<use xlink:href="#SVGID_667_"  overflow="visible"/>
	</clipPath>
	<g clip-path="url(#SVGID_238_)">
		<defs>
			<rect id="SVGID_669_" x="-1158.063" y="-1507.215" width="1590" height="2328"/>
		</defs>
		<clipPath id="SVGID_240_">
			<use xlink:href="#SVGID_669_"  overflow="visible"/>
		</clipPath>
	</g>
</g>
<g>
	<defs>
		<path id="SVGID_671_" d="M-596.484,752.765c0.006,5.846-4.73,10.588-10.576,10.592c-5.847,0.004-10.588-4.73-10.594-10.577v-0.015
			c-0.004-5.845,4.732-10.587,10.578-10.592c5.846-0.004,10.588,4.731,10.592,10.576V752.765z"/>
	</defs>
	<clipPath id="SVGID_242_">
		<use xlink:href="#SVGID_671_"  overflow="visible"/>
	</clipPath>
	<g clip-path="url(#SVGID_242_)">
		<defs>
			<rect id="SVGID_673_" x="-1158.063" y="-1507.215" width="1590" height="2328"/>
		</defs>
		<clipPath id="SVGID_244_">
			<use xlink:href="#SVGID_673_"  overflow="visible"/>
		</clipPath>
	</g>
</g>
<g>
	<defs>
		<path id="SVGID_675_" d="M-607.115,743.257c2.632,0,4.865,0.928,6.705,2.783c1.857,1.836,2.786,4.076,2.786,6.725
			c0,2.667-0.909,4.879-2.729,6.639c-1.914,1.894-4.17,2.84-6.762,2.84c-2.594,0-4.828-0.937-6.705-2.812
			c-1.877-1.874-2.815-4.097-2.815-6.667s0.946-4.812,2.845-6.725C-611.973,744.185-609.748,743.257-607.115,743.257z
			 M-607.145,741.17c-3.213,0-5.932,1.121-8.156,3.361c-2.283,2.319-3.426,5.064-3.426,8.233c0,3.17,1.143,5.894,3.426,8.175
			c2.283,2.28,5.002,3.421,8.156,3.421c3.193,0,5.96-1.15,8.302-3.449c2.206-2.185,3.31-4.899,3.31-8.146
			c0-3.246-1.122-5.991-3.368-8.233C-601.146,742.292-603.894,741.17-607.145,741.17z"/>
	</defs>
	<clipPath id="SVGID_246_">
		<use xlink:href="#SVGID_675_"  overflow="visible"/>
	</clipPath>
	<g clip-path="url(#SVGID_246_)">
		<defs>
			<rect id="SVGID_677_" x="-1158.063" y="-1507.215" width="1590" height="2328"/>
		</defs>
		<clipPath id="SVGID_248_">
			<use xlink:href="#SVGID_677_"  overflow="visible"/>
		</clipPath>
	</g>
</g>
<g>
	<defs>
		<path id="SVGID_679_" d="M-612.284,751.129c0.462-2.918,2.516-4.478,5.091-4.478c3.701,0,5.957,2.687,5.957,6.268
			c0,3.495-2.4,6.21-6.016,6.21c-2.488,0-4.715-1.53-5.119-4.534h2.92c0.088,1.56,1.1,2.108,2.547,2.108
			c1.647,0,2.718-1.53,2.718-3.87c0-2.456-0.925-3.755-2.661-3.755c-1.272,0-2.371,0.462-2.604,2.051l0.85-0.006l-2.299,2.3
			l-2.299-2.3L-612.284,751.129z"/>
	</defs>
	<clipPath id="SVGID_250_">
		<use xlink:href="#SVGID_679_"  overflow="visible"/>
	</clipPath>
	<g clip-path="url(#SVGID_250_)">
		<defs>
			<rect id="SVGID_681_" x="-1158.063" y="-1507.215" width="1590" height="2328"/>
		</defs>
		<clipPath id="SVGID_252_">
			<use xlink:href="#SVGID_681_"  overflow="visible"/>
		</clipPath>
	</g>
</g>
<g>
	<defs>
		<path id="SVGID_683_" d="M-622.434,752.765c0.005,5.958-4.822,10.789-10.779,10.795c-5.958,0.004-10.792-4.822-10.796-10.779
			v-0.016c-0.005-5.957,4.823-10.789,10.779-10.794c5.958-0.004,10.792,4.822,10.796,10.778V752.765z"/>
	</defs>
	<clipPath id="SVGID_254_">
		<use xlink:href="#SVGID_683_"  overflow="visible"/>
	</clipPath>
	<g clip-path="url(#SVGID_254_)">
		<defs>
			<rect id="SVGID_685_" x="-1158.063" y="-1507.215" width="1590" height="2328"/>
		</defs>
		<clipPath id="SVGID_256_">
			<use xlink:href="#SVGID_685_"  overflow="visible"/>
		</clipPath>
	</g>
</g>
<g>
	<defs>
		<path id="SVGID_687_" d="M-633.207,743.257c-2.632,0-4.856,0.928-6.676,2.783c-0.495,0.499-0.926,1.021-1.292,1.566l4.433,1.974
			c0.401-1.229,1.57-1.977,2.988-2.06v-1.787h1.331v1.787c0.917,0.045,1.923,0.297,2.915,1.064l-1.524,1.565
			c-0.563-0.398-1.272-0.68-1.982-0.68c-0.577,0-1.39,0.177-1.39,0.9c0,0.111,0.037,0.209,0.104,0.294l1.482,0.661l1.004,0.447
			c0.643,0.286,1.255,0.558,1.862,0.828l5.942,2.646c0.196-0.778,0.294-1.605,0.294-2.482c0-2.648-0.929-4.889-2.785-6.725
			C-628.34,744.185-630.575,743.257-633.207,743.257z M-642.209,749.651c-0.346,0.978-0.519,2.016-0.519,3.114
			c0,2.571,0.938,4.793,2.815,6.667c1.877,1.875,4.111,2.812,6.705,2.812s4.848-0.946,6.764-2.841
			c0.641-0.619,1.169-1.295,1.584-2.027l-4.371-1.947c-0.297,1.472-1.607,2.464-3.192,2.581v1.788h-1.331v-1.788
			c-1.301-0.015-2.559-0.547-3.521-1.389l1.598-1.609c0.77,0.723,1.538,1.048,2.589,1.048c0.681,0,1.435-0.266,1.435-1.152
			c0-0.313-0.122-0.532-0.313-0.696l-1.105-0.492l-1.377-0.613c-0.682-0.303-1.258-0.56-1.836-0.817L-642.209,749.651z
			 M-633.236,741.17c3.252,0,5.999,1.121,8.244,3.361c2.245,2.242,3.367,4.987,3.367,8.233c0,3.247-1.104,5.962-3.309,8.146
			c-2.343,2.3-5.109,3.449-8.303,3.449c-3.154,0-5.873-1.141-8.156-3.421c-2.283-2.279-3.426-5.005-3.426-8.175
			c0-3.169,1.143-5.914,3.426-8.233C-639.167,742.292-636.448,741.17-633.236,741.17z"/>
	</defs>
	<clipPath id="SVGID_258_">
		<use xlink:href="#SVGID_687_"  overflow="visible"/>
	</clipPath>
	<g clip-path="url(#SVGID_258_)">
		<defs>
			<rect id="SVGID_689_" x="-1158.063" y="-1507.215" width="1590" height="2328"/>
		</defs>
		<clipPath id="SVGID_260_">
			<use xlink:href="#SVGID_689_"  overflow="visible"/>
		</clipPath>
	</g>
</g>
</svg>
