<?xml version="1.0" encoding="utf-8"?>
<!-- Generator: Adobe Illustrator 16.0.0, SVG Export Plug-In . SVG Version: 6.00 Build 0)  -->
<!DOCTYPE svg PUBLIC "-//W3C//DTD SVG 1.1//EN" "http://www.w3.org/Graphics/SVG/1.1/DTD/svg11.dtd">
<svg version="1.1" id="Layer_1" xmlns="http://www.w3.org/2000/svg" xmlns:xlink="http://www.w3.org/1999/xlink" x="0px" y="0px"
	 width="392.457px" height="403.816px" viewBox="0 0 392.457 403.816" enable-background="new 0 0 392.457 403.816"
	 xml:space="preserve">
<g>
	<defs>
		<ellipse id="SVGID_1_" cx="125.099" cy="160.476" rx="75.874" ry="75.307"/>
	</defs>
	<clipPath id="SVGID_2_">
		<use xlink:href="#SVGID_1_"  overflow="visible"/>
	</clipPath>
	<g clip-path="url(#SVGID_2_)">
		<defs>
			<rect id="SVGID_3_" x="-1130.775" y="-67.814" width="1590" height="2328"/>
		</defs>
		<clipPath id="SVGID_4_">
			<use xlink:href="#SVGID_3_"  overflow="visible"/>
		</clipPath>
		<rect x="44.225" y="80.168" opacity="0.25" clip-path="url(#SVGID_4_)" fill="#DF3233" width="161.748" height="160.614"/>
	</g>
</g>
<g>
	<defs>
		<ellipse id="SVGID_5_" cx="194.725" cy="121.493" rx="75.874" ry="75.307"/>
	</defs>
	<clipPath id="SVGID_6_">
		<use xlink:href="#SVGID_5_"  overflow="visible"/>
	</clipPath>
	<g clip-path="url(#SVGID_6_)">
		<defs>
			<rect id="SVGID_7_" x="-1130.775" y="-67.814" width="1590" height="2328"/>
		</defs>
		<clipPath id="SVGID_8_">
			<use xlink:href="#SVGID_7_"  overflow="visible"/>
		</clipPath>
		<rect x="113.851" y="41.186" opacity="0.25" clip-path="url(#SVGID_8_)" fill="#F4783A" width="161.748" height="160.614"/>
	</g>
</g>
<g>
	<defs>
		<ellipse id="SVGID_9_" cx="264.351" cy="160.476" rx="75.874" ry="75.307"/>
	</defs>
	<clipPath id="SVGID_10_">
		<use xlink:href="#SVGID_9_"  overflow="visible"/>
	</clipPath>
	<g clip-path="url(#SVGID_10_)">
		<defs>
			<rect id="SVGID_11_" x="-1130.775" y="-67.814" width="1590" height="2328"/>
		</defs>
		<clipPath id="SVGID_12_">
			<use xlink:href="#SVGID_11_"  overflow="visible"/>
		</clipPath>
		<rect x="183.477" y="80.168" opacity="0.25" clip-path="url(#SVGID_12_)" fill="#FEBE48" width="161.748" height="160.614"/>
	</g>
</g>
<g>
	<defs>
		<ellipse id="SVGID_13_" cx="264.351" cy="240.212" rx="75.874" ry="75.307"/>
	</defs>
	<clipPath id="SVGID_14_">
		<use xlink:href="#SVGID_13_"  overflow="visible"/>
	</clipPath>
	<g clip-path="url(#SVGID_14_)">
		<defs>
			<rect id="SVGID_15_" x="-1130.775" y="-67.814" width="1590" height="2328"/>
		</defs>
		<clipPath id="SVGID_16_">
			<use xlink:href="#SVGID_15_"  overflow="visible"/>
		</clipPath>
		<rect x="183.477" y="159.906" opacity="0.25" clip-path="url(#SVGID_16_)" fill="#84994B" width="161.748" height="160.613"/>
	</g>
</g>
<g>
	<defs>
		<ellipse id="SVGID_17_" cx="194.725" cy="273.879" rx="75.874" ry="75.307"/>
	</defs>
	<clipPath id="SVGID_18_">
		<use xlink:href="#SVGID_17_"  overflow="visible"/>
	</clipPath>
	<g clip-path="url(#SVGID_18_)">
		<defs>
			<rect id="SVGID_19_" x="-1130.775" y="-67.814" width="1590" height="2328"/>
		</defs>
		<clipPath id="SVGID_20_">
			<use xlink:href="#SVGID_19_"  overflow="visible"/>
		</clipPath>
		<rect x="113.851" y="193.572" opacity="0.25" clip-path="url(#SVGID_20_)" fill="#2F8ACA" width="161.748" height="160.614"/>
	</g>
</g>
<g>
	<defs>
		<ellipse id="SVGID_21_" cx="125.099" cy="240.212" rx="75.874" ry="75.307"/>
	</defs>
	<clipPath id="SVGID_22_">
		<use xlink:href="#SVGID_21_"  overflow="visible"/>
	</clipPath>
	<g clip-path="url(#SVGID_22_)">
		<defs>
			<rect id="SVGID_23_" x="-1130.775" y="-67.814" width="1590" height="2328"/>
		</defs>
		<clipPath id="SVGID_24_">
			<use xlink:href="#SVGID_23_"  overflow="visible"/>
		</clipPath>
		<rect x="44.225" y="159.906" opacity="0.25" clip-path="url(#SVGID_24_)" fill="#7072AF" width="161.748" height="160.613"/>
	</g>
</g>
<g>
	<defs>
		<circle id="SVGID_25_" cx="634.366" cy="234.408" r="55"/>
	</defs>
	<clipPath id="SVGID_26_">
		<use xlink:href="#SVGID_25_"  overflow="visible"/>
	</clipPath>
	<g clip-path="url(#SVGID_26_)">
		<defs>
			<rect id="SVGID_27_" x="87.366" y="-668.592" width="1590" height="2328"/>
		</defs>
		<clipPath id="SVGID_28_">
			<use xlink:href="#SVGID_27_"  overflow="visible"/>
		</clipPath>
	</g>
</g>
<g>
	<defs>
		<circle id="SVGID_29_" cx="673.366" cy="169.408" r="55"/>
	</defs>
	<clipPath id="SVGID_30_">
		<use xlink:href="#SVGID_29_"  overflow="visible"/>
	</clipPath>
	<g clip-path="url(#SVGID_30_)">
		<defs>
			<rect id="SVGID_31_" x="87.366" y="-668.592" width="1590" height="2328"/>
		</defs>
		<clipPath id="SVGID_32_">
			<use xlink:href="#SVGID_31_"  overflow="visible"/>
		</clipPath>
	</g>
</g>
<g>
	<defs>
		<circle id="SVGID_33_" cx="718.366" cy="234.408" r="55"/>
	</defs>
	<clipPath id="SVGID_34_">
		<use xlink:href="#SVGID_33_"  overflow="visible"/>
	</clipPath>
	<g clip-path="url(#SVGID_34_)">
		<defs>
			<rect id="SVGID_35_" x="87.366" y="-668.592" width="1590" height="2328"/>
		</defs>
		<clipPath id="SVGID_36_">
			<use xlink:href="#SVGID_35_"  overflow="visible"/>
		</clipPath>
	</g>
</g>
<g>
	<defs>
		<circle id="SVGID_37_" cx="1107.503" cy="234.664" r="54.5"/>
	</defs>
	<clipPath id="SVGID_38_">
		<use xlink:href="#SVGID_37_"  overflow="visible"/>
	</clipPath>
	<g clip-path="url(#SVGID_38_)">
		<defs>
			<rect id="SVGID_39_" x="-197.997" y="-655.836" width="1590" height="2328"/>
		</defs>
		<clipPath id="SVGID_40_">
			<use xlink:href="#SVGID_39_"  overflow="visible"/>
		</clipPath>
	</g>
</g>
<g>
	<defs>
		<circle id="SVGID_41_" cx="1197.503" cy="234.664" r="54.5"/>
	</defs>
	<clipPath id="SVGID_42_">
		<use xlink:href="#SVGID_41_"  overflow="visible"/>
	</clipPath>
	<g clip-path="url(#SVGID_42_)">
		<defs>
			<rect id="SVGID_43_" x="-197.997" y="-655.836" width="1590" height="2328"/>
		</defs>
		<clipPath id="SVGID_44_">
			<use xlink:href="#SVGID_43_"  overflow="visible"/>
		</clipPath>
	</g>
</g>
<g>
	<defs>
		<circle id="SVGID_45_" cx="1156.503" cy="170.664" r="54.5"/>
	</defs>
	<clipPath id="SVGID_46_">
		<use xlink:href="#SVGID_45_"  overflow="visible"/>
	</clipPath>
	<g clip-path="url(#SVGID_46_)">
		<defs>
			<rect id="SVGID_47_" x="-197.997" y="-655.836" width="1590" height="2328"/>
		</defs>
		<clipPath id="SVGID_48_">
			<use xlink:href="#SVGID_47_"  overflow="visible"/>
		</clipPath>
	</g>
</g>
<g>
	<defs>
		<rect id="SVGID_65_" x="562.912" y="687.094" width="236" height="96"/>
	</defs>
	<clipPath id="SVGID_50_">
		<use xlink:href="#SVGID_65_"  overflow="visible"/>
	</clipPath>
	<g clip-path="url(#SVGID_50_)">
		<defs>
			<rect id="SVGID_67_" x="82.912" y="-1026.907" width="1590" height="2328"/>
		</defs>
		<clipPath id="SVGID_52_">
			<use xlink:href="#SVGID_67_"  overflow="visible"/>
		</clipPath>
	</g>
</g>
<g>
	<defs>
		<rect id="SVGID_69_" x="1042.366" y="694.181" width="236" height="96"/>
	</defs>
	<clipPath id="SVGID_54_">
		<use xlink:href="#SVGID_69_"  overflow="visible"/>
	</clipPath>
	<g clip-path="url(#SVGID_54_)">
		<defs>
			<rect id="SVGID_71_" x="-192.634" y="-1009.819" width="1590" height="2328"/>
		</defs>
		<clipPath id="SVGID_56_">
			<use xlink:href="#SVGID_71_"  overflow="visible"/>
		</clipPath>
	</g>
</g>
<g>
	<defs>
		<rect id="SVGID_163_" x="188.476" y="1237.548" width="1.86" height="54.472"/>
	</defs>
	<clipPath id="SVGID_58_">
		<use xlink:href="#SVGID_163_"  overflow="visible"/>
	</clipPath>
	<g clip-path="url(#SVGID_58_)">
		<defs>
			<rect id="SVGID_165_" x="142.456" y="-994.539" width="1590" height="2328"/>
		</defs>
		<clipPath id="SVGID_60_">
			<use xlink:href="#SVGID_165_"  overflow="visible"/>
		</clipPath>
	</g>
</g>
<g>
	<defs>
		<polyline id="SVGID_167_" points="199.627,1276.41 201.733,1276.41 201.733,1283.122 210.064,1283.122 210.064,1276.41 
			212.168,1276.41 212.168,1292.02 210.064,1292.02 210.064,1284.871 201.733,1284.871 201.733,1292.02 199.627,1292.02 
			199.627,1276.41 		"/>
	</defs>
	<clipPath id="SVGID_62_">
		<use xlink:href="#SVGID_167_"  overflow="visible"/>
	</clipPath>
	<g clip-path="url(#SVGID_62_)">
		<defs>
			<rect id="SVGID_169_" x="142.456" y="-994.539" width="1590" height="2328"/>
		</defs>
		<clipPath id="SVGID_64_">
			<use xlink:href="#SVGID_169_"  overflow="visible"/>
		</clipPath>
	</g>
</g>
<g>
	<defs>
		<path id="SVGID_171_" d="M219.458,1280.455c3.634,0,5.562,2.602,5.562,5.924c0,3.301-1.928,5.903-5.562,5.903
			c-3.633,0-5.561-2.603-5.561-5.903C213.897,1283.057,215.825,1280.455,219.458,1280.455 M219.458,1290.643
			c1.973,0,3.568-1.53,3.568-4.264c0-2.754-1.596-4.284-3.568-4.284c-1.972,0-3.566,1.53-3.566,4.284
			C215.891,1289.112,217.486,1290.643,219.458,1290.643"/>
	</defs>
	<clipPath id="SVGID_66_">
		<use xlink:href="#SVGID_171_"  overflow="visible"/>
	</clipPath>
	<g clip-path="url(#SVGID_66_)">
		<defs>
			<rect id="SVGID_173_" x="142.456" y="-994.539" width="1590" height="2328"/>
		</defs>
		<clipPath id="SVGID_68_">
			<use xlink:href="#SVGID_173_"  overflow="visible"/>
		</clipPath>
	</g>
</g>
<g>
	<defs>
		<path id="SVGID_175_" d="M226.482,1280.717h1.772v1.662h0.044c0.842-1.269,2.127-1.924,3.7-1.924c1.396,0,2.682,0.547,3.146,1.924
			c0.775-1.202,2.127-1.924,3.59-1.924c2.281,0,3.811,0.939,3.811,3.278v8.286h-1.883v-7.412c0-1.398-0.377-2.514-2.217-2.514
			c-1.816,0-2.99,1.138-2.99,2.887v7.039h-1.885v-7.412c0-1.465-0.464-2.514-2.148-2.514c-2.237,0-3.058,2.034-3.058,2.887v7.039
			h-1.883V1280.717"/>
	</defs>
	<clipPath id="SVGID_70_">
		<use xlink:href="#SVGID_175_"  overflow="visible"/>
	</clipPath>
	<g clip-path="url(#SVGID_70_)">
		<defs>
			<rect id="SVGID_177_" x="142.456" y="-994.539" width="1590" height="2328"/>
		</defs>
		<clipPath id="SVGID_72_">
			<use xlink:href="#SVGID_177_"  overflow="visible"/>
		</clipPath>
	</g>
</g>
<g>
	<defs>
		<path id="SVGID_179_" d="M254.483,1288.435c-0.509,2.492-2.326,3.848-4.896,3.848c-3.656,0-5.383-2.492-5.494-5.947
			c0-3.388,2.259-5.88,5.383-5.88c4.055,0,5.297,3.739,5.186,6.471h-8.574c-0.066,1.968,1.063,3.717,3.566,3.717
			c1.552,0,2.637-0.744,2.969-2.208H254.483z M252.667,1285.286c-0.09-1.771-1.44-3.191-3.302-3.191
			c-1.972,0-3.146,1.465-3.278,3.191H252.667z"/>
	</defs>
	<clipPath id="SVGID_74_">
		<use xlink:href="#SVGID_179_"  overflow="visible"/>
	</clipPath>
	<g clip-path="url(#SVGID_74_)">
		<defs>
			<rect id="SVGID_181_" x="142.456" y="-994.539" width="1590" height="2328"/>
		</defs>
		<clipPath id="SVGID_76_">
			<use xlink:href="#SVGID_181_"  overflow="visible"/>
		</clipPath>
	</g>
</g>
<g>
	<defs>
		<path id="SVGID_183_" d="M269.196,1276.038c5.029,0,7.578,3.936,7.578,8.177s-2.549,8.177-7.578,8.177s-7.578-3.936-7.578-8.177
			S264.167,1276.038,269.196,1276.038 M269.196,1290.643c3.855,0,5.473-3.278,5.473-6.428c0-3.147-1.617-6.427-5.473-6.427
			s-5.474,3.279-5.474,6.427C263.722,1287.364,265.34,1290.643,269.196,1290.643"/>
	</defs>
	<clipPath id="SVGID_78_">
		<use xlink:href="#SVGID_183_"  overflow="visible"/>
	</clipPath>
	<g clip-path="url(#SVGID_78_)">
		<defs>
			<rect id="SVGID_185_" x="142.456" y="-994.539" width="1590" height="2328"/>
		</defs>
		<clipPath id="SVGID_80_">
			<use xlink:href="#SVGID_185_"  overflow="visible"/>
		</clipPath>
	</g>
</g>
<g>
	<defs>
		<path id="SVGID_187_" d="M279.569,1282.356h-1.928v-1.64h1.928v-1.684c0-1.836,1.107-2.798,3.17-2.798
			c0.353,0,0.863,0.064,1.218,0.175v1.618c-0.333-0.11-0.731-0.153-1.063-0.153c-0.908,0-1.441,0.284-1.441,1.267v1.575h2.217v1.64
			h-2.217v9.663h-1.883V1282.356"/>
	</defs>
	<clipPath id="SVGID_82_">
		<use xlink:href="#SVGID_187_"  overflow="visible"/>
	</clipPath>
	<g clip-path="url(#SVGID_82_)">
		<defs>
			<rect id="SVGID_189_" x="142.456" y="-994.539" width="1590" height="2328"/>
		</defs>
		<clipPath id="SVGID_84_">
			<use xlink:href="#SVGID_189_"  overflow="visible"/>
		</clipPath>
	</g>
</g>
<g>
	<defs>
		<path id="SVGID_191_" d="M286.22,1282.356h-1.928v-1.64h1.928v-1.684c0-1.836,1.107-2.798,3.169-2.798
			c0.354,0,0.863,0.064,1.219,0.175v1.618c-0.334-0.11-0.73-0.153-1.064-0.153c-0.908,0-1.439,0.284-1.439,1.267v1.575h2.215v1.64
			h-2.215v9.663h-1.884V1282.356"/>
	</defs>
	<clipPath id="SVGID_86_">
		<use xlink:href="#SVGID_191_"  overflow="visible"/>
	</clipPath>
	<g clip-path="url(#SVGID_86_)">
		<defs>
			<rect id="SVGID_193_" x="142.456" y="-994.539" width="1590" height="2328"/>
		</defs>
		<clipPath id="SVGID_88_">
			<use xlink:href="#SVGID_193_"  overflow="visible"/>
		</clipPath>
	</g>
</g>
<g>
	<defs>
		<path id="SVGID_195_" d="M291.689,1278.685h1.884v-2.274h-1.884V1278.685z M291.688,1292.02h1.883v-11.303h-1.883V1292.02z"/>
	</defs>
	<clipPath id="SVGID_90_">
		<use xlink:href="#SVGID_195_"  overflow="visible"/>
	</clipPath>
	<g clip-path="url(#SVGID_90_)">
		<defs>
			<rect id="SVGID_197_" x="142.456" y="-994.539" width="1590" height="2328"/>
		</defs>
		<clipPath id="SVGID_92_">
			<use xlink:href="#SVGID_197_"  overflow="visible"/>
		</clipPath>
	</g>
</g>
<g>
	<defs>
		<path id="SVGID_199_" d="M303.742,1284.346c-0.288-1.42-1.285-2.251-2.837-2.251c-2.725,0-3.566,2.12-3.566,4.416
			c0,2.077,0.953,4.132,3.345,4.132c1.817,0,2.902-1.049,3.146-2.756h1.928c-0.421,2.756-2.172,4.396-5.051,4.396
			c-3.501,0-5.362-2.405-5.362-5.771c0-3.389,1.772-6.056,5.406-6.056c2.592,0,4.675,1.202,4.94,3.891H303.742"/>
	</defs>
	<clipPath id="SVGID_94_">
		<use xlink:href="#SVGID_199_"  overflow="visible"/>
	</clipPath>
	<g clip-path="url(#SVGID_94_)">
		<defs>
			<rect id="SVGID_201_" x="142.456" y="-994.539" width="1590" height="2328"/>
		</defs>
		<clipPath id="SVGID_96_">
			<use xlink:href="#SVGID_201_"  overflow="visible"/>
		</clipPath>
	</g>
</g>
<g>
	<defs>
		<path id="SVGID_203_" d="M317.186,1288.435c-0.51,2.492-2.326,3.848-4.896,3.848c-3.656,0-5.384-2.492-5.494-5.947
			c0-3.388,2.26-5.88,5.383-5.88c4.055,0,5.297,3.739,5.186,6.471h-8.574c-0.066,1.968,1.062,3.717,3.566,3.717
			c1.552,0,2.637-0.744,2.969-2.208H317.186z M315.37,1285.286c-0.09-1.771-1.44-3.191-3.302-3.191
			c-1.972,0-3.146,1.465-3.278,3.191H315.37z"/>
	</defs>
	<clipPath id="SVGID_98_">
		<use xlink:href="#SVGID_203_"  overflow="visible"/>
	</clipPath>
	<g clip-path="url(#SVGID_98_)">
		<defs>
			<rect id="SVGID_205_" x="142.456" y="-994.539" width="1590" height="2328"/>
		</defs>
		<clipPath id="SVGID_100_">
			<use xlink:href="#SVGID_205_"  overflow="visible"/>
		</clipPath>
	</g>
</g>
<g>
	<defs>
		<path id="SVGID_207_" d="M208.917,1240.01v1.082c0.558,0.034,0.964,0.13,1.187,0.193
			C209.989,1240.668,209.523,1240.174,208.917,1240.01"/>
	</defs>
	<clipPath id="SVGID_102_">
		<use xlink:href="#SVGID_207_"  overflow="visible"/>
	</clipPath>
	<g clip-path="url(#SVGID_102_)">
		<defs>
			<rect id="SVGID_209_" x="142.456" y="-994.539" width="1590" height="2328"/>
		</defs>
		<clipPath id="SVGID_104_">
			<use xlink:href="#SVGID_209_"  overflow="visible"/>
		</clipPath>
	</g>
</g>
<g>
	<defs>
		<path id="SVGID_211_" d="M208.232,1239.246L208.232,1239.246c0,0.365-0.076,0.606-0.19,0.763c0.014-0.003,0.199-0.058,0.438-0.058
			c0.155,0,0.418,0.055,0.437,0.058c-0.114-0.156-0.19-0.397-0.19-0.763c0.83,0,1.033,0.384,1.033,0.7h0.16v-1.89h-0.16
			c0,0.318-0.203,0.702-1.033,0.702c0-0.82,0.389-1.021,0.711-1.021v-0.156h-1.915v0.156c0.32,0,0.711,0.201,0.711,1.021
			c-0.832,0-1.035-0.384-1.035-0.702h-0.157v1.892h0.157C207.197,1239.63,207.4,1239.246,208.232,1239.246"/>
	</defs>
	<clipPath id="SVGID_106_">
		<use xlink:href="#SVGID_211_"  overflow="visible"/>
	</clipPath>
	<g clip-path="url(#SVGID_106_)">
		<defs>
			<rect id="SVGID_213_" x="142.456" y="-994.539" width="1590" height="2328"/>
		</defs>
		<clipPath id="SVGID_108_">
			<use xlink:href="#SVGID_213_"  overflow="visible"/>
		</clipPath>
	</g>
</g>
<g>
	<defs>
		<path id="SVGID_215_" d="M208.04,1240.01c-0.603,0.163-1.068,0.655-1.186,1.27c0.224-0.066,0.625-0.159,1.186-0.19V1240.01"/>
	</defs>
	<clipPath id="SVGID_110_">
		<use xlink:href="#SVGID_215_"  overflow="visible"/>
	</clipPath>
	<g clip-path="url(#SVGID_110_)">
		<defs>
			<rect id="SVGID_217_" x="142.456" y="-994.539" width="1590" height="2328"/>
		</defs>
		<clipPath id="SVGID_112_">
			<use xlink:href="#SVGID_217_"  overflow="visible"/>
		</clipPath>
	</g>
</g>
<g>
	<defs>
		<path id="SVGID_219_" d="M209.073,1267.127c0,0.38,0.313,0.689,0.698,0.689s0.698-0.31,0.698-0.689s-0.313-0.688-0.698-0.688
			S209.073,1266.747,209.073,1267.127 M209.418,1267.127c0-0.192,0.158-0.348,0.353-0.348s0.352,0.155,0.352,0.348
			s-0.157,0.349-0.352,0.349S209.418,1267.319,209.418,1267.127"/>
	</defs>
	<clipPath id="SVGID_114_">
		<use xlink:href="#SVGID_219_"  overflow="visible"/>
	</clipPath>
	<g clip-path="url(#SVGID_114_)">
		<defs>
			<rect id="SVGID_221_" x="142.456" y="-994.539" width="1590" height="2328"/>
		</defs>
		<clipPath id="SVGID_116_">
			<use xlink:href="#SVGID_221_"  overflow="visible"/>
		</clipPath>
	</g>
</g>
<g>
	<defs>
		<path id="SVGID_223_" d="M207.795,1258.064c0-0.34-0.279-0.614-0.623-0.614l-0.113-0.002h-3.395c-0.295,0-0.535,0.24-0.535,0.532
			l0.002-0.002c0,0.211,0.173,0.383,0.387,0.383c0.213,0,0.387-0.166,0.387-0.394c0.08,0.073,0.166,0.14,0.258,0.199
			c-0.041,0.203-0.102,0.506-0.125,0.862c-0.045-0.072-0.128-0.12-0.222-0.12c-0.146,0-0.264,0.115-0.264,0.259
			c0,0.145,0.118,0.26,0.264,0.26c0.089,0,0.166-0.042,0.214-0.106c0,0.184,0.012,0.377,0.04,0.575
			c-0.044-0.032-0.098-0.051-0.157-0.051c-0.146,0-0.264,0.115-0.264,0.26c0,0.144,0.118,0.26,0.264,0.26
			c0.096,0,0.18-0.05,0.225-0.124c0.006,0.023,0.012,0.045,0.018,0.068c0.042,0.156,0.096,0.308,0.158,0.453
			c-0.038-0.021-0.082-0.033-0.128-0.033c-0.146,0-0.264,0.117-0.264,0.261c0,0.145,0.118,0.26,0.264,0.26
			c0.132,0,0.241-0.094,0.26-0.219c0.094,0.17,0.202,0.331,0.325,0.483c-0.016-0.003-0.031-0.005-0.049-0.005
			c-0.145,0-0.264,0.117-0.264,0.26c0,0.145,0.119,0.261,0.264,0.261c0.146,0,0.264-0.116,0.264-0.261v-0.017
			c0.396,0.401,0.91,0.735,1.547,0.998l-0.113,0.787c0,0,0.251,0.117,0.637,0.226c0.374,0.104,0.742,0.163,0.742,0.163
			L207.795,1258.064z M204.621,1258.384c0.015,0.006,0.027,0.01,0.042,0.014l1.926,3.848
			C204.206,1261.19,204.448,1259.273,204.621,1258.384z M206.642,1261.961l-1.757-3.508c0.104,0.017,0.207,0.028,0.314,0.03
			l1.509,3.014L206.642,1261.961z M206.752,1261.19l-1.359-2.713c0.096-0.008,0.188-0.021,0.279-0.041l1.145,2.289L206.752,1261.19z
			 M206.86,1260.421l-1.017-2.03c0.087-0.027,0.171-0.061,0.249-0.099l0.834,1.663L206.86,1260.421z M206.969,1259.65l-0.723-1.44
			c0.078-0.046,0.153-0.097,0.225-0.153l0.564,1.129L206.969,1259.65z M207.161,1258.297l-0.083,0.584l-0.463-0.925
			c0.049-0.024,0.104-0.036,0.163-0.036C206.99,1257.92,207.188,1258.106,207.161,1258.297z"/>
	</defs>
	<clipPath id="SVGID_118_">
		<use xlink:href="#SVGID_223_"  overflow="visible"/>
	</clipPath>
	<g clip-path="url(#SVGID_118_)">
		<defs>
			<rect id="SVGID_225_" x="142.456" y="-994.539" width="1590" height="2328"/>
		</defs>
		<clipPath id="SVGID_120_">
			<use xlink:href="#SVGID_225_"  overflow="visible"/>
		</clipPath>
	</g>
</g>
<g>
	<defs>
		<path id="SVGID_227_" d="M205.469,1242.615c0-0.227,0.186-0.41,0.416-0.41c0.229,0,0.416,0.184,0.416,0.41s-0.187,0.41-0.416,0.41
			C205.655,1243.025,205.469,1242.842,205.469,1242.615"/>
	</defs>
	<clipPath id="SVGID_122_">
		<use xlink:href="#SVGID_227_"  overflow="visible"/>
	</clipPath>
	<g clip-path="url(#SVGID_122_)">
		<defs>
			<rect id="SVGID_229_" x="142.456" y="-994.539" width="1590" height="2328"/>
		</defs>
		<clipPath id="SVGID_124_">
			<use xlink:href="#SVGID_229_"  overflow="visible"/>
		</clipPath>
	</g>
</g>
<g>
	<defs>
		<path id="SVGID_231_" d="M200.087,1245.438c0-0.228,0.187-0.411,0.415-0.411c0.23,0,0.417,0.184,0.417,0.411
			c0,0.227-0.187,0.41-0.417,0.41C200.274,1245.849,200.087,1245.665,200.087,1245.438"/>
	</defs>
	<clipPath id="SVGID_126_">
		<use xlink:href="#SVGID_231_"  overflow="visible"/>
	</clipPath>
	<g clip-path="url(#SVGID_126_)">
		<defs>
			<rect id="SVGID_233_" x="142.456" y="-994.539" width="1590" height="2328"/>
		</defs>
		<clipPath id="SVGID_128_">
			<use xlink:href="#SVGID_233_"  overflow="visible"/>
		</clipPath>
	</g>
</g>
<g>
	<defs>
		<path id="SVGID_235_" d="M199.866,1244.403c0-0.227,0.188-0.41,0.416-0.41c0.229,0,0.416,0.184,0.416,0.41
			c0,0.226-0.187,0.41-0.416,0.41C200.053,1244.813,199.866,1244.629,199.866,1244.403"/>
	</defs>
	<clipPath id="SVGID_130_">
		<use xlink:href="#SVGID_235_"  overflow="visible"/>
	</clipPath>
	<g clip-path="url(#SVGID_130_)">
		<defs>
			<rect id="SVGID_237_" x="142.456" y="-994.539" width="1590" height="2328"/>
		</defs>
		<clipPath id="SVGID_132_">
			<use xlink:href="#SVGID_237_"  overflow="visible"/>
		</clipPath>
	</g>
</g>
<g>
	<defs>
		<path id="SVGID_239_" d="M199.967,1243.353c0-0.228,0.188-0.41,0.417-0.41s0.415,0.183,0.415,0.41c0,0.227-0.186,0.41-0.415,0.41
			S199.967,1243.579,199.967,1243.353"/>
	</defs>
	<clipPath id="SVGID_134_">
		<use xlink:href="#SVGID_239_"  overflow="visible"/>
	</clipPath>
	<g clip-path="url(#SVGID_134_)">
		<defs>
			<rect id="SVGID_241_" x="142.456" y="-994.539" width="1590" height="2328"/>
		</defs>
		<clipPath id="SVGID_136_">
			<use xlink:href="#SVGID_241_"  overflow="visible"/>
		</clipPath>
	</g>
</g>
<g>
	<defs>
		<path id="SVGID_243_" d="M200.531,1242.456c0-0.228,0.187-0.41,0.415-0.41c0.23,0,0.417,0.183,0.417,0.41
			c0,0.227-0.187,0.41-0.417,0.41C200.717,1242.866,200.531,1242.683,200.531,1242.456"/>
	</defs>
	<clipPath id="SVGID_138_">
		<use xlink:href="#SVGID_243_"  overflow="visible"/>
	</clipPath>
	<g clip-path="url(#SVGID_138_)">
		<defs>
			<rect id="SVGID_245_" x="142.456" y="-994.539" width="1590" height="2328"/>
		</defs>
		<clipPath id="SVGID_140_">
			<use xlink:href="#SVGID_245_"  overflow="visible"/>
		</clipPath>
	</g>
</g>
<g>
	<defs>
		<path id="SVGID_247_" d="M201.398,1241.841c0-0.227,0.187-0.41,0.417-0.41c0.229,0,0.415,0.184,0.415,0.41
			c0,0.228-0.187,0.411-0.415,0.411C201.584,1242.252,201.398,1242.068,201.398,1241.841"/>
	</defs>
	<clipPath id="SVGID_142_">
		<use xlink:href="#SVGID_247_"  overflow="visible"/>
	</clipPath>
	<g clip-path="url(#SVGID_142_)">
		<defs>
			<rect id="SVGID_249_" x="142.456" y="-994.539" width="1590" height="2328"/>
		</defs>
		<clipPath id="SVGID_144_">
			<use xlink:href="#SVGID_249_"  overflow="visible"/>
		</clipPath>
	</g>
</g>
<g>
	<defs>
		<path id="SVGID_251_" d="M202.448,1241.657c0-0.227,0.186-0.41,0.414-0.41c0.231,0,0.418,0.184,0.418,0.41s-0.187,0.41-0.418,0.41
			C202.633,1242.067,202.448,1241.884,202.448,1241.657"/>
	</defs>
	<clipPath id="SVGID_146_">
		<use xlink:href="#SVGID_251_"  overflow="visible"/>
	</clipPath>
	<g clip-path="url(#SVGID_146_)">
		<defs>
			<rect id="SVGID_253_" x="142.456" y="-994.539" width="1590" height="2328"/>
		</defs>
		<clipPath id="SVGID_148_">
			<use xlink:href="#SVGID_253_"  overflow="visible"/>
		</clipPath>
	</g>
</g>
<g>
	<defs>
		<path id="SVGID_255_" d="M203.486,1241.87c0-0.227,0.187-0.41,0.415-0.41c0.23,0,0.417,0.184,0.417,0.41
			c0,0.228-0.187,0.411-0.417,0.411C203.672,1242.281,203.486,1242.098,203.486,1241.87"/>
	</defs>
	<clipPath id="SVGID_150_">
		<use xlink:href="#SVGID_255_"  overflow="visible"/>
	</clipPath>
	<g clip-path="url(#SVGID_150_)">
		<defs>
			<rect id="SVGID_257_" x="142.456" y="-994.539" width="1590" height="2328"/>
		</defs>
		<clipPath id="SVGID_152_">
			<use xlink:href="#SVGID_257_"  overflow="visible"/>
		</clipPath>
	</g>
</g>
<g>
	<defs>
		<path id="SVGID_259_" d="M204.487,1242.252c0-0.228,0.186-0.411,0.415-0.411c0.23,0,0.417,0.184,0.417,0.411
			c0,0.227-0.187,0.41-0.417,0.41C204.672,1242.662,204.487,1242.479,204.487,1242.252"/>
	</defs>
	<clipPath id="SVGID_154_">
		<use xlink:href="#SVGID_259_"  overflow="visible"/>
	</clipPath>
	<g clip-path="url(#SVGID_154_)">
		<defs>
			<rect id="SVGID_261_" x="142.456" y="-994.539" width="1590" height="2328"/>
		</defs>
		<clipPath id="SVGID_156_">
			<use xlink:href="#SVGID_261_"  overflow="visible"/>
		</clipPath>
	</g>
</g>
<g>
	<defs>
		<path id="SVGID_263_" d="M211.489,1242.615c0-0.227-0.186-0.41-0.416-0.41s-0.414,0.184-0.414,0.41s0.184,0.41,0.414,0.41
			S211.489,1242.842,211.489,1242.615"/>
	</defs>
	<clipPath id="SVGID_158_">
		<use xlink:href="#SVGID_263_"  overflow="visible"/>
	</clipPath>
	<g clip-path="url(#SVGID_158_)">
		<defs>
			<rect id="SVGID_265_" x="142.456" y="-994.539" width="1590" height="2328"/>
		</defs>
		<clipPath id="SVGID_160_">
			<use xlink:href="#SVGID_265_"  overflow="visible"/>
		</clipPath>
	</g>
</g>
<g>
	<defs>
		<path id="SVGID_267_" d="M216.872,1245.438c0-0.228-0.187-0.411-0.416-0.411c-0.23,0-0.416,0.184-0.416,0.411
			c0,0.227,0.186,0.41,0.416,0.41C216.685,1245.849,216.872,1245.665,216.872,1245.438"/>
	</defs>
	<clipPath id="SVGID_162_">
		<use xlink:href="#SVGID_267_"  overflow="visible"/>
	</clipPath>
	<g clip-path="url(#SVGID_162_)">
		<defs>
			<rect id="SVGID_269_" x="142.456" y="-994.539" width="1590" height="2328"/>
		</defs>
		<clipPath id="SVGID_164_">
			<use xlink:href="#SVGID_269_"  overflow="visible"/>
		</clipPath>
	</g>
</g>
<g>
	<defs>
		<path id="SVGID_271_" d="M217.092,1244.403c0-0.227-0.188-0.41-0.416-0.41c-0.23,0-0.416,0.184-0.416,0.41
			c0,0.226,0.186,0.41,0.416,0.41C216.905,1244.813,217.092,1244.629,217.092,1244.403"/>
	</defs>
	<clipPath id="SVGID_166_">
		<use xlink:href="#SVGID_271_"  overflow="visible"/>
	</clipPath>
	<g clip-path="url(#SVGID_166_)">
		<defs>
			<rect id="SVGID_273_" x="142.456" y="-994.539" width="1590" height="2328"/>
		</defs>
		<clipPath id="SVGID_168_">
			<use xlink:href="#SVGID_273_"  overflow="visible"/>
		</clipPath>
	</g>
</g>
<g>
	<defs>
		<path id="SVGID_275_" d="M216.989,1243.353c0-0.228-0.186-0.41-0.414-0.41c-0.231,0-0.416,0.183-0.416,0.41
			c0,0.227,0.185,0.41,0.416,0.41C216.803,1243.763,216.989,1243.579,216.989,1243.353"/>
	</defs>
	<clipPath id="SVGID_170_">
		<use xlink:href="#SVGID_275_"  overflow="visible"/>
	</clipPath>
	<g clip-path="url(#SVGID_170_)">
		<defs>
			<rect id="SVGID_277_" x="142.456" y="-994.539" width="1590" height="2328"/>
		</defs>
		<clipPath id="SVGID_172_">
			<use xlink:href="#SVGID_277_"  overflow="visible"/>
		</clipPath>
	</g>
</g>
<g>
	<defs>
		<path id="SVGID_279_" d="M216.428,1242.456c0-0.228-0.187-0.41-0.416-0.41c-0.23,0-0.416,0.183-0.416,0.41
			c0,0.227,0.186,0.41,0.416,0.41C216.242,1242.866,216.428,1242.683,216.428,1242.456"/>
	</defs>
	<clipPath id="SVGID_174_">
		<use xlink:href="#SVGID_279_"  overflow="visible"/>
	</clipPath>
	<g clip-path="url(#SVGID_174_)">
		<defs>
			<rect id="SVGID_281_" x="142.456" y="-994.539" width="1590" height="2328"/>
		</defs>
		<clipPath id="SVGID_176_">
			<use xlink:href="#SVGID_281_"  overflow="visible"/>
		</clipPath>
	</g>
</g>
<g>
	<defs>
		<path id="SVGID_283_" d="M215.559,1241.841c0-0.227-0.186-0.41-0.415-0.41c-0.23,0-0.417,0.184-0.417,0.41
			c0,0.228,0.187,0.411,0.417,0.411C215.374,1242.252,215.559,1242.068,215.559,1241.841"/>
	</defs>
	<clipPath id="SVGID_178_">
		<use xlink:href="#SVGID_283_"  overflow="visible"/>
	</clipPath>
	<g clip-path="url(#SVGID_178_)">
		<defs>
			<rect id="SVGID_285_" x="142.456" y="-994.539" width="1590" height="2328"/>
		</defs>
		<clipPath id="SVGID_180_">
			<use xlink:href="#SVGID_285_"  overflow="visible"/>
		</clipPath>
	</g>
</g>
<g>
	<defs>
		<path id="SVGID_287_" d="M214.51,1241.657c0-0.227-0.186-0.41-0.415-0.41c-0.23,0-0.417,0.184-0.417,0.41s0.187,0.41,0.417,0.41
			C214.325,1242.067,214.51,1241.884,214.51,1241.657"/>
	</defs>
	<clipPath id="SVGID_182_">
		<use xlink:href="#SVGID_287_"  overflow="visible"/>
	</clipPath>
	<g clip-path="url(#SVGID_182_)">
		<defs>
			<rect id="SVGID_289_" x="142.456" y="-994.539" width="1590" height="2328"/>
		</defs>
		<clipPath id="SVGID_184_">
			<use xlink:href="#SVGID_289_"  overflow="visible"/>
		</clipPath>
	</g>
</g>
<g>
	<defs>
		<path id="SVGID_291_" d="M213.473,1241.87c0-0.227-0.187-0.41-0.416-0.41c-0.23,0-0.416,0.184-0.416,0.41
			c0,0.228,0.186,0.411,0.416,0.411C213.287,1242.281,213.473,1242.098,213.473,1241.87"/>
	</defs>
	<clipPath id="SVGID_186_">
		<use xlink:href="#SVGID_291_"  overflow="visible"/>
	</clipPath>
	<g clip-path="url(#SVGID_186_)">
		<defs>
			<rect id="SVGID_293_" x="142.456" y="-994.539" width="1590" height="2328"/>
		</defs>
		<clipPath id="SVGID_188_">
			<use xlink:href="#SVGID_293_"  overflow="visible"/>
		</clipPath>
	</g>
</g>
<g>
	<defs>
		<path id="SVGID_295_" d="M212.471,1242.252c0-0.228-0.186-0.411-0.415-0.411s-0.417,0.184-0.417,0.411
			c0,0.227,0.188,0.41,0.417,0.41S212.471,1242.479,212.471,1242.252"/>
	</defs>
	<clipPath id="SVGID_190_">
		<use xlink:href="#SVGID_295_"  overflow="visible"/>
	</clipPath>
	<g clip-path="url(#SVGID_190_)">
		<defs>
			<rect id="SVGID_297_" x="142.456" y="-994.539" width="1590" height="2328"/>
		</defs>
		<clipPath id="SVGID_192_">
			<use xlink:href="#SVGID_297_"  overflow="visible"/>
		</clipPath>
	</g>
</g>
<g>
	<defs>
		<path id="SVGID_299_" d="M212.042,1248.506c0-0.249-0.205-0.452-0.457-0.452c-0.254,0-0.459,0.203-0.459,0.452
			s0.205,0.451,0.459,0.451C211.836,1248.957,212.042,1248.755,212.042,1248.506"/>
	</defs>
	<clipPath id="SVGID_194_">
		<use xlink:href="#SVGID_299_"  overflow="visible"/>
	</clipPath>
	<g clip-path="url(#SVGID_194_)">
		<defs>
			<rect id="SVGID_301_" x="142.456" y="-994.539" width="1590" height="2328"/>
		</defs>
		<clipPath id="SVGID_196_">
			<use xlink:href="#SVGID_301_"  overflow="visible"/>
		</clipPath>
	</g>
</g>
<g>
	<defs>
		<path id="SVGID_303_" d="M209.053,1251.241v5.177h4.643l0.002-5.179L209.053,1251.241z M209.195,1256.28h4.363v-4.9h-4.363
			V1256.28z"/>
	</defs>
	<clipPath id="SVGID_198_">
		<use xlink:href="#SVGID_303_"  overflow="visible"/>
	</clipPath>
	<g clip-path="url(#SVGID_198_)">
		<defs>
			<rect id="SVGID_305_" x="142.456" y="-994.539" width="1590" height="2328"/>
		</defs>
		<clipPath id="SVGID_200_">
			<use xlink:href="#SVGID_305_"  overflow="visible"/>
		</clipPath>
	</g>
</g>
<g>
	<defs>
		<path id="SVGID_307_" d="M209.641,1251.555h-0.273v4.551h4.018v-4.551H209.641z M213.111,1251.69v0.134h0.137v4.011h-0.137v0.135
			h-3.47v-0.135h-0.137v-4.011h0.137v-0.134H213.111z"/>
	</defs>
	<clipPath id="SVGID_202_">
		<use xlink:href="#SVGID_307_"  overflow="visible"/>
	</clipPath>
	<g clip-path="url(#SVGID_202_)">
		<defs>
			<rect id="SVGID_309_" x="142.456" y="-994.539" width="1590" height="2328"/>
		</defs>
		<clipPath id="SVGID_204_">
			<use xlink:href="#SVGID_309_"  overflow="visible"/>
		</clipPath>
	</g>
</g>
<g>
	<defs>
		<path id="SVGID_311_" d="M212.906,1252.867l-0.216,0.201h-0.002c0,0-0.013,0.012-0.033,0.03l-0.406,0.375
			c-0.13,0.114-0.156,0.3-0.06,0.43l0.233,0.322c0.023,0.03,0.033,0.066,0.026,0.103c-0.006,0.036-0.026,0.067-0.055,0.09
			c-0.03,0.021-0.066,0.03-0.104,0.024c-0.037-0.005-0.067-0.024-0.09-0.054c0,0-0.23-0.312-0.348-0.47v-0.445l0.566-0.526v-0.478
			l-0.199-0.197l0.246-0.24h-1.003l-0.242,0.235v0.263c0.032-0.019,0.069-0.028,0.108-0.028c0.118,0,0.215,0.094,0.215,0.211
			c0,0.115-0.097,0.211-0.215,0.211c-0.039,0-0.076-0.012-0.108-0.03v0.322h-0.339l-0.415-0.555c0.058-0.05,0.094-0.122,0.094-0.204
			c0-0.148-0.122-0.269-0.272-0.269c-0.059,0-0.114,0.019-0.157,0.049v0.442c0.006,0.004,0.013,0.007,0.021,0.012l0.391,0.524
			l0.201,0.27h0.457l-0.252,0.249h-0.461c-0.041-0.1-0.141-0.171-0.254-0.171c-0.117,0-0.215,0.071-0.256,0.171
			c-0.013,0.031-0.019,0.064-0.019,0.1c0,0.064,0.023,0.126,0.062,0.172h1.106l0.19,0.254h-0.75v0.011l0.285,0.389l0.154,0.209
			h-0.381c-0.035-0.109-0.139-0.188-0.262-0.188c-0.121,0-0.225,0.078-0.261,0.188c-0.007,0.026-0.012,0.054-0.012,0.083
			c0,0.073,0.028,0.14,0.077,0.188h1.355l-0.198-0.271l-0.155-0.209h0.443l0.156,0.209l0.201,0.271h0.639v0.302h-0.088
			c-0.034-0.108-0.139-0.188-0.261-0.188c-0.121,0-0.225,0.079-0.261,0.188c-0.008,0.026-0.014,0.054-0.014,0.082
			c0,0.074,0.031,0.141,0.078,0.188l0.819,0.001v-0.844h-0.545l-0.269-0.358c0.049,0.057,0.117,0.094,0.191,0.105
			c0.084,0.014,0.168-0.007,0.235-0.056c0.069-0.051,0.114-0.123,0.127-0.205c0.013-0.083-0.009-0.165-0.058-0.231l-0.236-0.322
			c-0.048-0.065-0.016-0.15,0.037-0.198c0,0,0.051-0.046,0.115-0.106c0.098,0.089,0.247,0.089,0.346,0
			c0.05-0.048,0.077-0.11,0.078-0.174h0.002L212.906,1252.867"/>
	</defs>
	<clipPath id="SVGID_206_">
		<use xlink:href="#SVGID_311_"  overflow="visible"/>
	</clipPath>
	<g clip-path="url(#SVGID_206_)">
		<defs>
			<rect id="SVGID_313_" x="142.456" y="-994.539" width="1590" height="2328"/>
		</defs>
		<clipPath id="SVGID_208_">
			<use xlink:href="#SVGID_313_"  overflow="visible"/>
		</clipPath>
	</g>
</g>
<g>
	<defs>
		<polyline id="SVGID_315_" points="207.849,1248.505 208.479,1247.882 209.11,1248.505 208.479,1249.126 207.849,1248.505 		"/>
	</defs>
	<clipPath id="SVGID_210_">
		<use xlink:href="#SVGID_315_"  overflow="visible"/>
	</clipPath>
	<g clip-path="url(#SVGID_210_)">
		<defs>
			<rect id="SVGID_317_" x="142.456" y="-994.539" width="1590" height="2328"/>
		</defs>
		<clipPath id="SVGID_212_">
			<use xlink:href="#SVGID_317_"  overflow="visible"/>
		</clipPath>
	</g>
</g>
<g>
	<defs>
		<path id="SVGID_319_" d="M204.917,1248.506c0-0.249,0.205-0.452,0.457-0.452c0.254,0,0.457,0.203,0.457,0.452
			s-0.203,0.451-0.457,0.451C205.122,1248.957,204.917,1248.755,204.917,1248.506"/>
	</defs>
	<clipPath id="SVGID_214_">
		<use xlink:href="#SVGID_319_"  overflow="visible"/>
	</clipPath>
	<g clip-path="url(#SVGID_214_)">
		<defs>
			<rect id="SVGID_321_" x="142.456" y="-994.539" width="1590" height="2328"/>
		</defs>
		<clipPath id="SVGID_216_">
			<use xlink:href="#SVGID_321_"  overflow="visible"/>
		</clipPath>
	</g>
</g>
<g>
	<defs>
		<path id="SVGID_323_" d="M213.372,1260.139h-0.023c0.021-0.042,0.033-0.09,0.033-0.14c0-0.175-0.145-0.316-0.321-0.316h-1.157
			c-0.005-0.146-0.125-0.262-0.273-0.262c-0.074,0-0.145,0.028-0.193,0.078l-0.363,0.359h0.344c0.001,0,0.001,0.002,0.001,0.002
			h1.643c0.079,0,0.142,0.062,0.142,0.139c0,0.078-0.062,0.14-0.142,0.14h-2.296v-0.322l0.404-0.396h-1.586l0.4,0.395v0.586
			l-0.645-0.507c0.054-0.051,0.088-0.121,0.088-0.2c0-0.152-0.125-0.275-0.279-0.275c-0.066,0-0.129,0.023-0.176,0.062v0.477
			l0.981,0.773l-0.463,0.142c-0.036-0.11-0.14-0.189-0.264-0.189c-0.154,0-0.278,0.124-0.278,0.276c0,0.064,0.023,0.125,0.062,0.173
			h0.57l2.499-0.766v0.38l-0.323,0.147c-0.03-0.12-0.139-0.211-0.271-0.211c-0.152,0-0.277,0.124-0.277,0.276
			c0,0.064,0.023,0.125,0.062,0.173h0.627l0.392-0.178l0.253-0.115l-0.171-0.364h0.919c-0.011,0.036-0.021,0.072-0.033,0.108
			c-0.021,0.066-0.045,0.13-0.068,0.189c-0.051-0.055-0.122-0.09-0.203-0.09c-0.154,0-0.278,0.124-0.278,0.276
			c0,0.064,0.023,0.125,0.062,0.173h0.572c0.071-0.159,0.137-0.343,0.174-0.461c0.072-0.229,0.121-0.456,0.135-0.533H213.372z
			 M210.375,1260.175l-0.277-0.272h0.554L210.375,1260.175z"/>
	</defs>
	<clipPath id="SVGID_218_">
		<use xlink:href="#SVGID_323_"  overflow="visible"/>
	</clipPath>
	<g clip-path="url(#SVGID_218_)">
		<defs>
			<rect id="SVGID_325_" x="142.456" y="-994.539" width="1590" height="2328"/>
		</defs>
		<clipPath id="SVGID_220_">
			<use xlink:href="#SVGID_325_"  overflow="visible"/>
		</clipPath>
	</g>
</g>
<g>
	<defs>
		<path id="SVGID_327_" d="M213.417,1258.161c0.021-0.042,0.033-0.09,0.033-0.14c0-0.175-0.144-0.318-0.321-0.318h-1.227
			c-0.005-0.145-0.125-0.262-0.273-0.262c-0.074,0-0.145,0.03-0.193,0.08l-0.363,0.359h0.344h0.001h1.712
			c0.078,0,0.141,0.063,0.141,0.141c0,0.076-0.062,0.14-0.141,0.14h-2.365v-0.322l0.404-0.397h-1.586l0.4,0.396v0.586l-0.646-0.507
			c0.056-0.051,0.09-0.123,0.09-0.201c0-0.151-0.125-0.274-0.279-0.274c-0.066,0-0.129,0.023-0.176,0.062v0.477l0.981,0.771
			l-0.463,0.144c-0.036-0.11-0.142-0.188-0.264-0.188c-0.154,0-0.278,0.123-0.278,0.274c0,0.065,0.023,0.126,0.062,0.174h0.57
			l2.499-0.766v0.403l-0.335,0.103c-0.037-0.11-0.141-0.188-0.264-0.188c-0.154,0-0.279,0.123-0.279,0.274
			c0,0.065,0.024,0.126,0.062,0.174h0.57l0.625-0.192l0.305-0.094l-0.232-0.215l-0.168-0.156h1.104v0.305
			c-0.051-0.058-0.127-0.096-0.213-0.096c-0.154,0-0.278,0.123-0.278,0.274c0,0.065,0.023,0.126,0.063,0.174h0.705v-0.994H213.417z
			 M210.375,1258.197l-0.277-0.273h0.554L210.375,1258.197z"/>
	</defs>
	<clipPath id="SVGID_222_">
		<use xlink:href="#SVGID_327_"  overflow="visible"/>
	</clipPath>
	<g clip-path="url(#SVGID_222_)">
		<defs>
			<rect id="SVGID_329_" x="142.456" y="-994.539" width="1590" height="2328"/>
		</defs>
		<clipPath id="SVGID_224_">
			<use xlink:href="#SVGID_329_"  overflow="visible"/>
		</clipPath>
	</g>
</g>
<g>
	<defs>
		<path id="SVGID_331_" d="M212.381,1261.656h-0.479c-0.005-0.145-0.125-0.261-0.273-0.261c-0.074,0-0.145,0.03-0.193,0.079
			l-0.363,0.359h0.344h0.001h0.964c0.078,0,0.143,0.063,0.143,0.141c0,0.078-0.064,0.14-0.143,0.14h-1.617v-0.322l0.404-0.396
			h-1.586l0.4,0.396v0.669l-0.654-0.582c0.059-0.051,0.098-0.124,0.098-0.208c0-0.152-0.125-0.274-0.279-0.274
			c-0.066,0-0.129,0.022-0.176,0.062v0.473l1.035,0.922l0.047-0.052l-0.661,0.763c-0.056-0.044-0.127-0.066-0.2-0.058
			c-0.153,0.016-0.264,0.15-0.248,0.302c0.006,0.058,0.028,0.108,0.064,0.148c0.097-0.007,0.244-0.02,0.454-0.055l0.735-0.847
			c0.098-0.033,0.199-0.071,0.301-0.114l0.289,0.258c-0.058,0.028-0.115,0.055-0.174,0.079c-0.077-0.063-0.184-0.084-0.281-0.046
			c-0.145,0.056-0.214,0.215-0.159,0.354c0.019,0.05,0.06,0.086,0.091,0.119c0,0,0.115-0.038,0.229-0.08
			c0.106-0.042,0.212-0.086,0.212-0.086c0.004-0.002,0.007-0.002,0.008-0.003c0.125-0.054,0.248-0.111,0.352-0.166v-0.719
			c0.178-0.108,0.343-0.227,0.474-0.347l0.28,0.249c-0.06,0.046-0.121,0.092-0.182,0.137c-0.081-0.045-0.182-0.046-0.268,0.002
			c-0.064,0.037-0.109,0.097-0.128,0.163c-0.009,0.033-0.011,0.067-0.007,0.101c0.004,0.036,0.014,0.069,0.033,0.104
			c0.028,0.049,0.086,0.092,0.139,0.116c0.125-0.078,0.249-0.16,0.37-0.247c0.091-0.064,0.179-0.131,0.265-0.2
			c0.027-0.023,0.055-0.047,0.084-0.069v-0.366h0.256c0.177,0,0.322-0.143,0.322-0.317S212.558,1261.656,212.381,1261.656z
			 M210.375,1262.15l-0.277-0.272h0.554L210.375,1262.15z"/>
	</defs>
	<clipPath id="SVGID_226_">
		<use xlink:href="#SVGID_331_"  overflow="visible"/>
	</clipPath>
	<g clip-path="url(#SVGID_226_)">
		<defs>
			<rect id="SVGID_333_" x="142.456" y="-994.539" width="1590" height="2328"/>
		</defs>
		<clipPath id="SVGID_228_">
			<use xlink:href="#SVGID_333_"  overflow="visible"/>
		</clipPath>
	</g>
</g>
<g>
	<defs>
		<path id="SVGID_335_" d="M207.61,1255.587c0.021-0.042,0.032-0.09,0.032-0.141c0-0.175-0.144-0.316-0.321-0.316h-1.227
			c-0.005-0.146-0.125-0.263-0.273-0.263c-0.074,0-0.143,0.03-0.193,0.079l-0.363,0.36h0.346c0,0,0.404,0.001,0.422,0.001h1.289
			c0.078,0,0.141,0.061,0.141,0.139s-0.062,0.141-0.141,0.141h-2.363v-0.322l0.4-0.397h-1.584l0.4,0.396v0.587l-0.645-0.507
			c0.054-0.051,0.088-0.122,0.088-0.201c0-0.151-0.125-0.274-0.277-0.274c-0.068,0-0.129,0.023-0.178,0.062c0,0,0,0.323,0.002,0.405
			l-0.002,0.002v0.067l0.983,0.774l-0.464,0.142c-0.037-0.109-0.141-0.188-0.264-0.188c-0.153,0-0.279,0.122-0.279,0.275
			c0,0.065,0.025,0.127,0.064,0.174h0.426h0.143l2.5-0.766v0.401l-0.336,0.104c-0.035-0.109-0.141-0.188-0.264-0.188
			c-0.154,0-0.277,0.122-0.277,0.275c0,0.065,0.022,0.127,0.062,0.174h0.427h0.143l0.626-0.192l0.304-0.093l-0.398-0.373h1.102
			v0.307c-0.051-0.059-0.127-0.098-0.213-0.098c-0.152,0-0.277,0.122-0.277,0.275c0,0.065,0.023,0.127,0.062,0.174h0.705v-0.994
			H207.61z M204.567,1255.623l-0.277-0.273h0.555L204.567,1255.623z"/>
	</defs>
	<clipPath id="SVGID_230_">
		<use xlink:href="#SVGID_335_"  overflow="visible"/>
	</clipPath>
	<g clip-path="url(#SVGID_230_)">
		<defs>
			<rect id="SVGID_337_" x="142.456" y="-994.539" width="1590" height="2328"/>
		</defs>
		<clipPath id="SVGID_232_">
			<use xlink:href="#SVGID_337_"  overflow="visible"/>
		</clipPath>
	</g>
</g>
<g>
	<defs>
		<path id="SVGID_339_" d="M207.61,1253.682c0.021-0.044,0.032-0.09,0.032-0.142c0-0.176-0.144-0.316-0.321-0.316h-1.227
			c-0.005-0.146-0.125-0.262-0.273-0.262c-0.074,0-0.143,0.03-0.193,0.079l-0.363,0.358h0.346l0.001,0.002h1.71
			c0.078,0,0.141,0.062,0.141,0.139s-0.062,0.14-0.141,0.14v0.002h-0.85v-0.002h-1.514v-0.32l0.4-0.397h-1.584l0.4,0.395v0.586
			l-0.645-0.507c0.054-0.051,0.088-0.121,0.088-0.199c0-0.153-0.125-0.276-0.277-0.276c-0.068,0-0.129,0.024-0.178,0.062
			c0,0,0,0.323,0.002,0.407h-0.002v0.069l0.983,0.773l-0.464,0.142c-0.037-0.11-0.141-0.188-0.264-0.188
			c-0.153,0-0.279,0.123-0.279,0.274c0,0.066,0.025,0.126,0.064,0.174h0.431h0.138l2.5-0.766v0.403l-0.336,0.103
			c-0.035-0.11-0.141-0.188-0.264-0.188c-0.154,0-0.277,0.123-0.277,0.274c0,0.066,0.022,0.126,0.062,0.174h0.569l0.626-0.19
			l0.304-0.095l-0.398-0.372h1.102v0.306c-0.051-0.059-0.127-0.097-0.213-0.097c-0.152,0-0.277,0.123-0.277,0.274
			c0,0.066,0.023,0.126,0.062,0.174h0.705v-0.992H207.61z M204.567,1253.716l-0.277-0.273h0.555L204.567,1253.716z"/>
	</defs>
	<clipPath id="SVGID_234_">
		<use xlink:href="#SVGID_339_"  overflow="visible"/>
	</clipPath>
	<g clip-path="url(#SVGID_234_)">
		<defs>
			<rect id="SVGID_341_" x="142.456" y="-994.539" width="1590" height="2328"/>
		</defs>
		<clipPath id="SVGID_236_">
			<use xlink:href="#SVGID_341_"  overflow="visible"/>
		</clipPath>
	</g>
</g>
<g>
	<defs>
		<path id="SVGID_343_" d="M207.61,1251.775c0.021-0.044,0.032-0.092,0.032-0.142c0-0.176-0.144-0.316-0.321-0.316h-1.227
			c-0.005-0.146-0.125-0.262-0.273-0.262c-0.074,0-0.143,0.028-0.193,0.078l-0.363,0.359h0.346c0,0,0.355,0.002,0.414,0.002h1.297
			c0.078,0,0.141,0.062,0.141,0.139s-0.062,0.14-0.141,0.14v0.002h-0.85v-0.002h-1.514v-0.322l0.4-0.396h-1.584l0.4,0.395v0.586
			l-0.645-0.507c0.054-0.051,0.088-0.121,0.088-0.201c0-0.151-0.125-0.274-0.277-0.274c-0.068,0-0.129,0.023-0.178,0.062
			c0,0,0,0.323,0.002,0.406h-0.002v0.07l0.983,0.773l-0.464,0.142c-0.037-0.11-0.141-0.188-0.264-0.188
			c-0.153,0-0.279,0.122-0.279,0.273c0,0.066,0.025,0.127,0.064,0.175h0.428h0.141l2.5-0.766v0.403l-0.336,0.103
			c-0.035-0.11-0.141-0.188-0.264-0.188c-0.154,0-0.277,0.122-0.277,0.273c0,0.066,0.022,0.127,0.062,0.175h0.429h0.141l0.626-0.192
			l0.304-0.093l-0.231-0.217l-0.167-0.155h1.102v0.306c-0.051-0.059-0.127-0.097-0.213-0.097c-0.152,0-0.277,0.122-0.277,0.273
			c0,0.066,0.023,0.127,0.062,0.175h0.705v-0.992H207.61z M204.567,1251.81l-0.277-0.273h0.555L204.567,1251.81z"/>
	</defs>
	<clipPath id="SVGID_238_">
		<use xlink:href="#SVGID_343_"  overflow="visible"/>
	</clipPath>
	<g clip-path="url(#SVGID_238_)">
		<defs>
			<rect id="SVGID_345_" x="142.456" y="-994.539" width="1590" height="2328"/>
		</defs>
		<clipPath id="SVGID_240_">
			<use xlink:href="#SVGID_345_"  overflow="visible"/>
		</clipPath>
	</g>
</g>
<g>
	<defs>
		<path id="SVGID_347_" d="M216.087,1256.64L216.087,1256.64c0.176-0.051,0.276-0.232,0.226-0.406
			c-0.025-0.083-0.082-0.151-0.159-0.194c-0.078-0.042-0.167-0.053-0.253-0.028c-0.083,0.025-0.154,0.081-0.197,0.158
			c-0.041,0.076-0.052,0.164-0.027,0.248C215.727,1256.591,215.912,1256.69,216.087,1256.64"/>
	</defs>
	<clipPath id="SVGID_242_">
		<use xlink:href="#SVGID_347_"  overflow="visible"/>
	</clipPath>
	<g clip-path="url(#SVGID_242_)">
		<defs>
			<rect id="SVGID_349_" x="142.456" y="-994.539" width="1590" height="2328"/>
		</defs>
		<clipPath id="SVGID_244_">
			<use xlink:href="#SVGID_349_"  overflow="visible"/>
		</clipPath>
	</g>
</g>
<g>
	<defs>
		<path id="SVGID_351_" d="M215.129,1257.372l0.045,0.301c0,0,1.076-0.156,1.091-0.159c0.013,0.008,1.093,0.535,1.093,0.535
			l-0.053-0.361c0,0-0.699-0.343-0.756-0.37c0.047-0.042,0.617-0.562,0.617-0.562l-0.054-0.361l-0.03,0.03
			c0,0-0.848,0.78-0.857,0.79C216.209,1257.216,215.129,1257.372,215.129,1257.372"/>
	</defs>
	<clipPath id="SVGID_246_">
		<use xlink:href="#SVGID_351_"  overflow="visible"/>
	</clipPath>
	<g clip-path="url(#SVGID_246_)">
		<defs>
			<rect id="SVGID_353_" x="142.456" y="-994.539" width="1590" height="2328"/>
		</defs>
		<clipPath id="SVGID_248_">
			<use xlink:href="#SVGID_353_"  overflow="visible"/>
		</clipPath>
	</g>
</g>
<g>
	<defs>
		<path id="SVGID_355_" d="M215.975,1258.404c0.002,0.086,0.037,0.167,0.101,0.229s0.147,0.096,0.235,0.094
			c0.088-0.001,0.17-0.036,0.233-0.1c0.062-0.062,0.095-0.145,0.094-0.231c0-0.088-0.036-0.169-0.101-0.229
			c-0.062-0.062-0.147-0.096-0.235-0.094C216.121,1258.074,215.973,1258.224,215.975,1258.404"/>
	</defs>
	<clipPath id="SVGID_250_">
		<use xlink:href="#SVGID_355_"  overflow="visible"/>
	</clipPath>
	<g clip-path="url(#SVGID_250_)">
		<defs>
			<rect id="SVGID_357_" x="142.456" y="-994.539" width="1590" height="2328"/>
		</defs>
		<clipPath id="SVGID_252_">
			<use xlink:href="#SVGID_357_"  overflow="visible"/>
		</clipPath>
	</g>
</g>
<g>
	<defs>
		<path id="SVGID_359_" d="M215.225,1258.939l-0.038,0.283c0,0,0.839,0.117,0.882,0.123c-0.006,0.037-0.035,0.248-0.035,0.248
			c-0.008,0.048-0.011,0.093-0.011,0.136c0,0.145,0.038,0.268,0.112,0.364c0.09,0.118,0.229,0.192,0.402,0.216
			c0.375,0.052,0.643-0.145,0.693-0.514l0.086-0.589l-2.088-0.291L215.225,1258.939 M216.963,1259.47
			c-0.006,0.039-0.041,0.283-0.041,0.283c-0.035,0.257-0.242,0.257-0.328,0.246c-0.166-0.023-0.26-0.126-0.26-0.279
			c0-0.019,0.002-0.039,0.003-0.06c0,0,0.03-0.205,0.04-0.272C216.42,1259.394,216.922,1259.464,216.963,1259.47"/>
	</defs>
	<clipPath id="SVGID_254_">
		<use xlink:href="#SVGID_359_"  overflow="visible"/>
	</clipPath>
	<g clip-path="url(#SVGID_254_)">
		<defs>
			<rect id="SVGID_361_" x="142.456" y="-994.539" width="1590" height="2328"/>
		</defs>
		<clipPath id="SVGID_256_">
			<use xlink:href="#SVGID_361_"  overflow="visible"/>
		</clipPath>
	</g>
</g>
<g>
	<defs>
		<path id="SVGID_363_" d="M215.028,1260.154l-0.344,1.019l0.297,0.098c0,0,0.238-0.71,0.254-0.75
			c0.038,0.013,0.523,0.172,0.562,0.185c-0.012,0.04-0.236,0.702-0.236,0.702l0.296,0.099c0,0,0.224-0.663,0.237-0.704
			c0.038,0.013,0.508,0.166,0.547,0.18c-0.014,0.04-0.246,0.728-0.246,0.728l0.297,0.097l0.344-1.017l-2-0.656L215.028,1260.154"/>
	</defs>
	<clipPath id="SVGID_258_">
		<use xlink:href="#SVGID_363_"  overflow="visible"/>
	</clipPath>
	<g clip-path="url(#SVGID_258_)">
		<defs>
			<rect id="SVGID_365_" x="142.456" y="-994.539" width="1590" height="2328"/>
		</defs>
		<clipPath id="SVGID_260_">
			<use xlink:href="#SVGID_365_"  overflow="visible"/>
		</clipPath>
	</g>
</g>
<g>
	<defs>
		<path id="SVGID_367_" d="M214.627,1261.356l-0.145,0.223c0,0,1.195,0.75,1.302,0.816c-0.127,0.01-1.934,0.166-1.934,0.166
			l-0.138,0.214l1.779,1.114l0.155-0.241c0,0-1.204-0.755-1.31-0.821c0.127-0.012,1.949-0.175,1.949-0.175l0.13-0.201l-1.778-1.113
			L214.627,1261.356"/>
	</defs>
	<clipPath id="SVGID_262_">
		<use xlink:href="#SVGID_367_"  overflow="visible"/>
	</clipPath>
	<g clip-path="url(#SVGID_262_)">
		<defs>
			<rect id="SVGID_369_" x="142.456" y="-994.539" width="1590" height="2328"/>
		</defs>
		<clipPath id="SVGID_264_">
			<use xlink:href="#SVGID_369_"  overflow="visible"/>
		</clipPath>
	</g>
</g>
<g>
	<defs>
		<path id="SVGID_371_" d="M213.913,1263.858c-0.213,0.039-0.414,0.075-0.543-0.057c-0.064-0.063-0.111-0.218,0.034-0.358
			c0.126-0.121,0.312-0.163,0.538-0.121l0.072,0.014l-0.32-0.322h-0.012c-0.207,0.016-0.372,0.089-0.518,0.23
			c-0.104,0.1-0.162,0.23-0.163,0.367c-0.001,0.149,0.063,0.298,0.182,0.418c0.267,0.269,0.565,0.205,0.829,0.148
			c0.194-0.042,0.363-0.078,0.476,0.035c0.039,0.04,0.06,0.089,0.06,0.143c0,0.069-0.037,0.141-0.099,0.201
			c-0.104,0.1-0.253,0.148-0.444,0.142l-0.057-0.002l0.283,0.286l0.01-0.003c0.164-0.021,0.307-0.087,0.412-0.189
			c0.125-0.121,0.192-0.263,0.193-0.408c0.002-0.144-0.059-0.282-0.177-0.399C214.45,1263.761,214.165,1263.812,213.913,1263.858"/>
	</defs>
	<clipPath id="SVGID_266_">
		<use xlink:href="#SVGID_371_"  overflow="visible"/>
	</clipPath>
	<g clip-path="url(#SVGID_266_)">
		<defs>
			<rect id="SVGID_373_" x="142.456" y="-994.539" width="1590" height="2328"/>
		</defs>
		<clipPath id="SVGID_268_">
			<use xlink:href="#SVGID_373_"  overflow="visible"/>
		</clipPath>
	</g>
</g>
<g>
	<defs>
		<path id="SVGID_375_" d="M212.631,1263.759l-0.902,0.6l0.176,0.256c0,0,0.627-0.417,0.662-0.442
			c0.023,0.035,0.309,0.454,0.332,0.487c-0.034,0.024-0.621,0.413-0.621,0.413l0.174,0.256c0,0,0.588-0.39,0.622-0.413
			c0.024,0.033,0.3,0.438,0.323,0.471c-0.037,0.024-0.645,0.428-0.645,0.428l0.174,0.256l0.901-0.599l-1.177-1.725L212.631,1263.759
			"/>
	</defs>
	<clipPath id="SVGID_270_">
		<use xlink:href="#SVGID_375_"  overflow="visible"/>
	</clipPath>
	<g clip-path="url(#SVGID_270_)">
		<defs>
			<rect id="SVGID_377_" x="142.456" y="-994.539" width="1590" height="2328"/>
		</defs>
		<clipPath id="SVGID_272_">
			<use xlink:href="#SVGID_377_"  overflow="visible"/>
		</clipPath>
	</g>
</g>
<g>
	<defs>
		<path id="SVGID_379_" d="M204.811,1265.133c-0.035-0.023-0.801-0.502-0.839-0.524c0.024-0.036,0.481-0.749,0.481-0.749
			l-0.266-0.165l-0.011,0.02l-1.116,1.736l0.266,0.166c0,0,0.455-0.712,0.48-0.748c0.035,0.023,0.801,0.501,0.838,0.524
			c-0.023,0.037-0.48,0.747-0.48,0.747l0.264,0.166l1.129-1.757l-0.266-0.165C205.292,1264.384,204.834,1265.095,204.811,1265.133"
			/>
	</defs>
	<clipPath id="SVGID_274_">
		<use xlink:href="#SVGID_379_"  overflow="visible"/>
	</clipPath>
	<g clip-path="url(#SVGID_274_)">
		<defs>
			<rect id="SVGID_381_" x="142.456" y="-994.539" width="1590" height="2328"/>
		</defs>
		<clipPath id="SVGID_276_">
			<use xlink:href="#SVGID_381_"  overflow="visible"/>
		</clipPath>
	</g>
</g>
<g>
	<defs>
		<path id="SVGID_383_" d="M203.716,1263.606c0.015-0.257-0.072-0.498-0.254-0.699c-0.448-0.497-1.089-0.4-1.489-0.048
			c-0.234,0.207-0.372,0.474-0.388,0.754c-0.017,0.258,0.073,0.503,0.259,0.708c0.387,0.428,1.024,0.445,1.485,0.042
			C203.559,1264.161,203.699,1263.886,203.716,1263.606 M203.393,1263.592c-0.012,0.196-0.109,0.388-0.276,0.535
			c-0.331,0.288-0.765,0.283-1.034-0.014c-0.123-0.137-0.185-0.309-0.174-0.483c0.012-0.197,0.11-0.386,0.277-0.533
			c0.168-0.147,0.369-0.222,0.57-0.21c0.177,0.01,0.343,0.09,0.465,0.226C203.342,1263.247,203.403,1263.416,203.393,1263.592"/>
	</defs>
	<clipPath id="SVGID_278_">
		<use xlink:href="#SVGID_383_"  overflow="visible"/>
	</clipPath>
	<g clip-path="url(#SVGID_278_)">
		<defs>
			<rect id="SVGID_385_" x="142.456" y="-994.539" width="1590" height="2328"/>
		</defs>
		<clipPath id="SVGID_280_">
			<use xlink:href="#SVGID_385_"  overflow="visible"/>
		</clipPath>
	</g>
</g>
<g>
	<defs>
		<path id="SVGID_387_" d="M202.618,1261.847c0,0-1.284,0.595-1.396,0.647c0.056-0.11,0.882-1.724,0.882-1.724l-0.11-0.236
			l-0.021,0.011l-1.886,0.874l0.125,0.266c0,0,1.295-0.601,1.404-0.651c-0.055,0.109-0.884,1.742-0.884,1.742l0.105,0.22
			l1.906-0.884L202.618,1261.847"/>
	</defs>
	<clipPath id="SVGID_282_">
		<use xlink:href="#SVGID_387_"  overflow="visible"/>
	</clipPath>
	<g clip-path="url(#SVGID_282_)">
		<defs>
			<rect id="SVGID_389_" x="142.456" y="-994.539" width="1590" height="2328"/>
		</defs>
		<clipPath id="SVGID_284_">
			<use xlink:href="#SVGID_389_"  overflow="visible"/>
		</clipPath>
	</g>
</g>
<g>
	<defs>
		<polyline id="SVGID_391_" points="201.897,1259.975 201.875,1259.98 199.854,1260.482 199.93,1260.782 201.973,1260.274 
			201.897,1259.975 		"/>
	</defs>
	<clipPath id="SVGID_286_">
		<use xlink:href="#SVGID_391_"  overflow="visible"/>
	</clipPath>
	<g clip-path="url(#SVGID_286_)">
		<defs>
			<rect id="SVGID_393_" x="142.456" y="-994.539" width="1590" height="2328"/>
		</defs>
		<clipPath id="SVGID_288_">
			<use xlink:href="#SVGID_393_"  overflow="visible"/>
		</clipPath>
	</g>
</g>
<g>
	<defs>
		<path id="SVGID_395_" d="M200.918,1259.284c-0.072-0.054-0.158-0.076-0.245-0.064c-0.089,0.011-0.165,0.058-0.22,0.127
			c-0.053,0.069-0.076,0.156-0.064,0.241c0.012,0.086,0.058,0.163,0.129,0.217c0.07,0.053,0.156,0.075,0.244,0.063
			c0.181-0.024,0.309-0.189,0.284-0.368C201.034,1259.413,200.989,1259.338,200.918,1259.284"/>
	</defs>
	<clipPath id="SVGID_290_">
		<use xlink:href="#SVGID_395_"  overflow="visible"/>
	</clipPath>
	<g clip-path="url(#SVGID_290_)">
		<defs>
			<rect id="SVGID_397_" x="142.456" y="-994.539" width="1590" height="2328"/>
		</defs>
		<clipPath id="SVGID_292_">
			<use xlink:href="#SVGID_397_"  overflow="visible"/>
		</clipPath>
	</g>
</g>
<g>
	<defs>
		<path id="SVGID_399_" d="M200.789,1258.497c0.122-0.177,0.237-0.341,0.424-0.34c0.056,0,0.115,0.026,0.157,0.069
			c0.052,0.051,0.078,0.123,0.076,0.208c-0.001,0.172-0.104,0.333-0.294,0.461l-0.061,0.042l0.458,0.005l0.008-0.009
			c0.135-0.156,0.199-0.322,0.201-0.524c0-0.144-0.05-0.274-0.148-0.373c-0.105-0.106-0.259-0.168-0.428-0.169
			c-0.382-0.005-0.547,0.25-0.691,0.474c-0.11,0.166-0.203,0.31-0.362,0.308c-0.056-0.001-0.106-0.021-0.145-0.061
			c-0.049-0.049-0.075-0.123-0.075-0.208c0.002-0.146,0.072-0.284,0.213-0.412l0.041-0.038l-0.404-0.005l-0.006,0.009
			c-0.1,0.13-0.153,0.276-0.154,0.42c-0.002,0.174,0.051,0.322,0.155,0.427c0.101,0.101,0.243,0.156,0.411,0.157
			C200.48,1258.94,200.643,1258.705,200.789,1258.497"/>
	</defs>
	<clipPath id="SVGID_294_">
		<use xlink:href="#SVGID_399_"  overflow="visible"/>
	</clipPath>
	<g clip-path="url(#SVGID_294_)">
		<defs>
			<rect id="SVGID_401_" x="142.456" y="-994.539" width="1590" height="2328"/>
		</defs>
		<clipPath id="SVGID_296_">
			<use xlink:href="#SVGID_401_"  overflow="visible"/>
		</clipPath>
	</g>
</g>
<g>
	<defs>
		<path id="SVGID_403_" d="M200.659,1257.623c0.299,0.072,0.609,0.031,0.853-0.114c0.224-0.133,0.375-0.34,0.44-0.602
			c0.067-0.269,0.031-0.527-0.104-0.75c-0.147-0.238-0.401-0.416-0.699-0.488c-0.606-0.148-1.151,0.155-1.293,0.723
			c-0.022,0.085-0.032,0.169-0.032,0.251c0,0.174,0.047,0.34,0.139,0.491C200.108,1257.371,200.362,1257.551,200.659,1257.623
			 M200.163,1256.467c0.045-0.177,0.153-0.323,0.307-0.415c0.17-0.103,0.383-0.128,0.603-0.076c0.218,0.054,0.394,0.176,0.497,0.346
			c0.093,0.149,0.12,0.329,0.075,0.507c-0.095,0.38-0.485,0.591-0.907,0.486C200.307,1257.211,200.067,1256.854,200.163,1256.467"/>
	</defs>
	<clipPath id="SVGID_298_">
		<use xlink:href="#SVGID_403_"  overflow="visible"/>
	</clipPath>
	<g clip-path="url(#SVGID_298_)">
		<defs>
			<rect id="SVGID_405_" x="142.456" y="-994.539" width="1590" height="2328"/>
		</defs>
		<clipPath id="SVGID_300_">
			<use xlink:href="#SVGID_405_"  overflow="visible"/>
		</clipPath>
	</g>
</g>
<g>
	<defs>
		<path id="SVGID_407_" d="M218.186,1258.497c0-2.556-1.009-4.96-2.842-6.768c-0.213-0.213-0.437-0.413-0.668-0.603l-0.001-0.371
			c0.388-0.018,0.698-0.334,0.698-0.722c0-0.398-0.329-0.722-0.732-0.722c-0.018,0-0.031,0-0.048,0.003l0.717-0.325l-0.274-0.59
			l1.066-2.438l-0.461-0.195l-1.08,2.477l-0.578,0.26l0.377,0.813h-11.758l0.377-0.813l-0.582-0.263l-1.08-2.474l-0.46,0.195
			l1.067,2.443l-0.273,0.585l0.715,0.322h-0.017c-0.405,0-0.732,0.323-0.732,0.722c0,0.382,0.298,0.694,0.679,0.72l-0.001,0.374
			c-0.229,0.188-0.454,0.389-0.667,0.602c-1.833,1.808-2.842,4.212-2.842,6.768c0,1.982,0.607,3.884,1.76,5.5
			c1.126,1.579,2.685,2.774,4.508,3.455c0.01,0.004,0.105,0.039,0.271,0.098c0.014,0.258,0.18,0.496,0.439,0.59
			c0.268,0.095,0.559,0.01,0.734-0.19c0.01,0.002,0.02,0.007,0.029,0.01v2.727c0,1.002,0.873,1.817,1.947,1.817
			s1.948-0.815,1.948-1.817v-1.816l4.767-2.253c0.169-0.063,0.309-0.146,0.423-0.248c0.379-0.344,0.439-0.874,0.179-1.575
			c0.422-0.478,0.799-0.995,1.119-1.547C217.745,1261.807,218.186,1260.164,218.186,1258.497z M213.127,1249.729l1.41,0.288
			l-1.41,0.287V1249.729z M208.606,1264.316v-7.199h5.579l0.001,1.372c0,1.337-0.234,2.243-0.584,2.914
			c-0.291,0.494-0.65,0.942-1.069,1.331c-0.027,0.024-0.054,0.048-0.079,0.071C211.394,1263.755,210.033,1264.287,208.606,1264.316z
			 M210.295,1264.558c-0.111,0.229-0.193,0.499-0.251,0.811c-0.54-0.178-1.067-0.367-1.562-0.555h0.003
			C209.114,1264.813,209.721,1264.724,210.295,1264.558z M208.606,1256.871v-6.117h5.569l0.007,4.805l0.003,1.312H208.606z
			 M210.561,1249.729l1.411,0.288l-1.411,0.287V1249.729z M207.956,1249.729l1.411,0.288l-1.411,0.287V1249.729z M205.351,1249.729
			l1.41,0.288l-1.41,0.287V1249.729z M202.812,1249.729l1.41,0.288l-1.41,0.287V1249.729z M202.788,1255.559l0.008-4.805h5.561
			v6.117h-5.57L202.788,1255.559z M202.786,1257.117h5.57v7.199c-1.148-0.024-2.254-0.377-3.193-1.009l-0.005-0.003
			c-0.034-0.022-0.069-0.047-0.104-0.071c-0.012-0.009-0.024-0.018-0.036-0.026c-0.024-0.018-0.047-0.035-0.07-0.051
			c-0.029-0.021-0.059-0.045-0.087-0.064c-0.007-0.006-0.013-0.012-0.021-0.017c-0.6-0.465-1.105-1.043-1.486-1.7
			c-0.342-0.669-0.57-1.567-0.57-2.886L202.786,1257.117z M205.451,1267.079c-0.087-0.03-0.161-0.058-0.226-0.083v0.002
			c-1.729-0.647-3.209-1.781-4.277-3.279c-1.093-1.535-1.671-3.339-1.671-5.222c0-2.428,0.957-4.709,2.698-6.425
			c0.104-0.104,0.21-0.204,0.318-0.303l-0.004,2.482c-0.392-0.259-0.818-0.539-0.84-0.552c0.024-0.035,0.355-0.527,0.355-0.527
			l-0.259-0.171l-0.013,0.02l-0.871,1.293l0.26,0.17c0,0,0.331-0.492,0.354-0.527c0.023,0.015,0.586,0.383,1.013,0.665v0.869
			l-1.778-0.813l-0.01,0.021l-0.122,0.259l1.909,0.876l-0.002,1.067c-0.135,0.516-0.205,1.05-0.205,1.594
			c0,1.146,0.311,2.222,0.854,3.149c0.354,0.674,0.809,1.134,1.248,1.527c0.188,0.169,0.387,0.326,0.591,0.471
			c0.016,0.011,0.032,0.021,0.048,0.032c0.023,0.016,0.047,0.033,0.07,0.049c0.029,0.019,0.058,0.038,0.086,0.057
			c0.012,0.007,0.022,0.015,0.032,0.02c0.165,0.105,0.333,0.203,0.507,0.294l-0.002,0.003c0.238,0.117,0.568,0.269,0.959,0.438
			l-0.398,0.992l-0.184-0.077c-0.115-0.047-0.246,0.005-0.295,0.118c-0.047,0.112,0.006,0.242,0.119,0.29l0.193,0.08
			L205.451,1267.079z M209.948,1270.686c0,0.191-0.043,0.374-0.123,0.538c-0.073,0.122-0.209,0.204-0.363,0.204
			c-0.186,0-0.344-0.12-0.4-0.286c-0.01-0.03-0.033-0.114-0.062-0.232c0.047,0.019,0.1,0.029,0.153,0.029
			c0.231,0,0.419-0.186,0.419-0.414c0-0.228-0.188-0.413-0.419-0.413c-0.124,0-0.236,0.054-0.313,0.139
			c-0.128-0.538-0.264-1.122-0.264-1.122h-0.199c0,0-0.133,0.581-0.264,1.121c-0.076-0.085-0.188-0.138-0.31-0.138
			c-0.231,0-0.419,0.186-0.419,0.413c0,0.229,0.188,0.414,0.419,0.414c0.052,0,0.104-0.011,0.149-0.028
			c-0.028,0.117-0.051,0.203-0.061,0.231c-0.056,0.166-0.215,0.286-0.402,0.286c-0.155,0-0.292-0.084-0.365-0.208
			c-0.076-0.163-0.12-0.344-0.12-0.534v-2.575c0.876,0.274,1.935,0.578,2.944,0.792V1270.686z M210.166,1268.451
			c-1.504-0.311-3.261-0.868-4.292-1.224c0.1-0.247,0.271-0.675,0.449-1.119l0.281,0.117c-0.002,0.017-0.003,0.033-0.003,0.052
			c0,0.38,0.313,0.688,0.696,0.688c0.385,0,0.698-0.308,0.698-0.688s-0.313-0.689-0.698-0.689c-0.206,0-0.389,0.09-0.518,0.229
			l-0.293-0.121c0.16-0.396,0.308-0.765,0.398-0.988c1.027,0.431,2.357,0.938,3.625,1.329c1.34,0.412,2.422,0.648,3.26,0.713
			C212.334,1267.429,210.26,1268.407,210.166,1268.451z M215.274,1266.006c-0.146,0.134-0.463,0.274-1.131,0.267
			c0.45-0.319,0.869-0.676,1.258-1.064C215.495,1265.575,215.453,1265.844,215.274,1266.006z M213.358,1266.208
			c-0.662-0.09-1.539-0.285-2.699-0.642c-0.054-0.016-0.105-0.033-0.158-0.051c0.109-0.672,0.336-1.09,0.699-1.297
			c0.6-0.279,1.148-0.646,1.631-1.086c0.422-0.38,0.854-0.824,1.193-1.465c0.553-0.934,0.867-2.019,0.867-3.174
			c0-0.548-0.068-1.085-0.205-1.604l-0.004-1.013l0.302,0.742l0.29-0.114c0,0-0.289-0.711-0.303-0.75
			c0.04-0.018,1.665-0.657,1.665-0.657l-0.114-0.281l-0.021,0.008l-1.818,0.719v-0.123l1.211-1.721l-0.12-0.177l-0.017,0.003
			l-1.076,0.252l-0.004-2.009c0.11,0.097,0.217,0.198,0.322,0.303c1.738,1.716,2.697,3.997,2.697,6.425
			c0,1.583-0.42,3.143-1.213,4.509C215.728,1264.308,214.648,1265.413,213.358,1266.208z M214.788,1254.753
			c-0.004,0.009-0.051,0.074-0.106,0.155v-0.312C214.739,1254.68,214.784,1254.746,214.788,1254.753z M214.702,1254.073
			c0.055-0.014,0.582-0.142,0.68-0.167c-0.057,0.081-0.37,0.526-0.402,0.574C214.948,1254.435,214.732,1254.117,214.702,1254.073z"
			/>
	</defs>
	<clipPath id="SVGID_302_">
		<use xlink:href="#SVGID_407_"  overflow="visible"/>
	</clipPath>
	<g clip-path="url(#SVGID_302_)">
		<defs>
			<rect id="SVGID_409_" x="142.456" y="-994.539" width="1590" height="2328"/>
		</defs>
		<clipPath id="SVGID_304_">
			<use xlink:href="#SVGID_409_"  overflow="visible"/>
		</clipPath>
	</g>
</g>
<g>
	<defs>
		<path id="SVGID_411_" d="M215.737,1243.105c-0.368-0.561-1-0.811-1.463-0.811c-0.661,0-1.328,0.267-1.975,0.525
			c-0.729,0.293-1.482,0.594-2.238,0.523c0.093-0.276,0.203-0.538,0.329-0.762l-0.457-0.223c0.093-0.172,0.157-0.361,0.185-0.561
			c-0.053-0.021-0.663-0.237-1.666-0.237c-1,0-1.564,0.216-1.613,0.234c0.027,0.201,0.092,0.392,0.187,0.563l-0.457,0.223
			c0.127,0.224,0.236,0.485,0.329,0.762c-0.756,0.07-1.507-0.23-2.238-0.523c-0.646-0.259-1.314-0.525-1.975-0.525
			c-0.463,0-1.095,0.25-1.461,0.811c-0.303,0.459-0.529,1.299,0.102,2.683l-0.011-0.021l0.937-0.401l0.066,0.151
			c-0.31,0.132-0.602,0.483-0.256,1.274c0.801-0.34,0.836-0.795,0.703-1.1l0.152-0.065l0.396,0.912l0.398,0.91l-0.152,0.066
			c-0.133-0.307-0.492-0.596-1.293-0.254c0.344,0.791,0.975,1.119,1.453,1.119c0.83,0,1.445-0.51,1.357-1.02
			c-0.066-0.38-0.416-0.515-0.551-0.49c-0.168,0.033-0.271,0.201-0.244,0.331c0.007,0.03,0.018,0.058,0.034,0.082l-0.022,0.032
			c-0.221-0.019-0.413-0.181-0.458-0.407c-0.052-0.273,0.13-0.538,0.407-0.59c0.168-0.032,0.332,0.023,0.447,0.132l0.057-0.081
			c-0.149-0.078-0.264-0.22-0.299-0.396c-0.083-0.435,0.414-0.856,0.424-0.86h-0.002h0.002c0.006,0,0.627,0.212,0.711,0.646
			c0.033,0.18-0.02,0.353-0.131,0.48l0.082,0.055c0.066-0.145,0.199-0.256,0.369-0.288c0.277-0.052,0.545,0.128,0.599,0.4
			c0.044,0.227-0.075,0.446-0.274,0.545l-0.033-0.021c0.008-0.029,0.008-0.058,0.002-0.088c-0.023-0.132-0.182-0.25-0.35-0.219
			c-0.133,0.024-0.402,0.276-0.331,0.653c0.124,0.643,0.669,1.105,1.333,1.105c0.662,0,1.351-0.542,1.351-1.337
			c-0.942,0-1.173,0.437-1.173,0.795h-0.18v-2.142h0.18c0,0.358,0.23,0.796,1.173,0.796c0-0.93-0.441-1.157-0.806-1.157v-0.178
			h2.172v0.178c-0.364,0-0.807,0.228-0.807,1.157c0.941,0,1.174-0.438,1.174-0.796h0.178v2.142h-0.178
			c0-0.358-0.232-0.795-1.174-0.795c0,0.795,0.689,1.337,1.351,1.337c0.663,0,1.208-0.463,1.333-1.105
			c0.071-0.377-0.198-0.629-0.329-0.653c-0.171-0.031-0.327,0.087-0.353,0.219c-0.004,0.03-0.004,0.059,0.002,0.088l-0.031,0.021
			c-0.201-0.099-0.318-0.318-0.274-0.545c0.052-0.272,0.32-0.452,0.597-0.4c0.172,0.032,0.307,0.145,0.372,0.291l0.081-0.057
			c-0.113-0.127-0.166-0.302-0.131-0.481c0.083-0.436,0.706-0.646,0.712-0.646c0.007,0.003,0.506,0.426,0.421,0.86
			c-0.035,0.178-0.15,0.321-0.301,0.399l0.053,0.083c0.117-0.112,0.284-0.169,0.454-0.137c0.278,0.052,0.46,0.316,0.407,0.59
			c-0.044,0.227-0.235,0.389-0.457,0.407l-0.022-0.032c0.017-0.024,0.028-0.052,0.033-0.082c0.026-0.13-0.076-0.298-0.245-0.331
			c-0.133-0.024-0.484,0.11-0.549,0.49c-0.09,0.51,0.525,1.02,1.356,1.02c0.479,0,1.108-0.328,1.454-1.119
			c-0.803-0.342-1.16-0.053-1.294,0.254l-0.153-0.066l0.398-0.91l0.396-0.912l0.154,0.065c-0.135,0.305-0.098,0.76,0.703,1.1
			c0.346-0.791,0.053-1.143-0.256-1.274l0.064-0.151l0.938,0.401l-0.01,0.021C216.264,1244.404,216.038,1243.564,215.737,1243.105
			 M207.038,1244.279c-0.449,0-0.842,0.243-1.049,0.603c-0.256-0.438-0.776-0.686-1.304-0.576c-0.39,0.082-0.695,0.341-0.85,0.673
			c-0.214-0.336-0.593-0.561-1.024-0.561c-0.541,0-0.998,0.35-1.154,0.833c-0.293-0.782-0.294-1.424-0.001-1.87
			c0.3-0.456,0.803-0.576,1.028-0.576c0.561,0,1.152,0.237,1.781,0.488c0.819,0.328,1.664,0.666,2.574,0.546
			c0.036,0.149,0.068,0.298,0.092,0.445C207.102,1244.281,207.07,1244.279,207.038,1244.279 M208.477,1241.808
			c0.248,0,0.451,0.182,0.484,0.416c-0.129-0.115-0.297-0.187-0.484-0.187c-0.186,0-0.356,0.071-0.484,0.187
			C208.026,1241.989,208.231,1241.808,208.477,1241.808 M208.477,1242.265c0.25,0,0.455,0.185,0.486,0.424
			c-0.129-0.116-0.299-0.188-0.486-0.188s-0.357,0.071-0.484,0.188C208.022,1242.449,208.227,1242.265,208.477,1242.265
			 M208.477,1244.95c-0.27,0-0.488-0.216-0.488-0.482c0-0.268,0.219-0.482,0.488-0.482c0.271,0,0.488,0.215,0.488,0.482
			C208.965,1244.734,208.749,1244.95,208.477,1244.95 M208.938,1243.926c-0.125-0.104-0.285-0.168-0.461-0.168
			s-0.336,0.063-0.461,0.168c-0.018-0.052-0.027-0.105-0.027-0.163c0-0.266,0.219-0.482,0.488-0.482
			c0.271,0,0.488,0.217,0.488,0.482C208.965,1243.82,208.958,1243.874,208.938,1243.926 M208.969,1243.247
			c-0.129-0.12-0.301-0.195-0.492-0.195c-0.186,0-0.356,0.072-0.483,0.188c-0.001-0.01-0.001-0.02-0.001-0.03
			c0-0.268,0.219-0.484,0.488-0.484s0.49,0.217,0.49,0.484C208.971,1243.222,208.97,1243.233,208.969,1243.247 M215.301,1245.249
			c-0.156-0.482-0.613-0.831-1.152-0.831c-0.433,0-0.812,0.226-1.026,0.562c-0.153-0.332-0.46-0.593-0.851-0.675
			c-0.527-0.109-1.049,0.138-1.303,0.576c-0.207-0.359-0.6-0.603-1.049-0.603c-0.031,0-0.063,0.002-0.094,0.005
			c0.024-0.147,0.055-0.296,0.092-0.445c0.91,0.12,1.755-0.218,2.575-0.546c0.626-0.251,1.222-0.488,1.78-0.488
			c0.226,0,0.729,0.12,1.029,0.576C215.595,1243.827,215.594,1244.469,215.301,1245.249"/>
	</defs>
	<clipPath id="SVGID_306_">
		<use xlink:href="#SVGID_411_"  overflow="visible"/>
	</clipPath>
	<g clip-path="url(#SVGID_306_)">
		<defs>
			<rect id="SVGID_413_" x="142.456" y="-994.539" width="1590" height="2328"/>
		</defs>
		<clipPath id="SVGID_308_">
			<use xlink:href="#SVGID_413_"  overflow="visible"/>
		</clipPath>
	</g>
</g>
<g>
	<defs>
		<polyline id="SVGID_415_" points="211.446,1251.099 211.194,1251.099 211.325,1251.482 211.444,1251.485 211.473,1251.49 
			211.426,1251.599 211.497,1251.503 211.508,1251.526 211.567,1251.478 211.694,1251.099 211.446,1251.099 		"/>
	</defs>
	<clipPath id="SVGID_310_">
		<use xlink:href="#SVGID_415_"  overflow="visible"/>
	</clipPath>
	<g clip-path="url(#SVGID_310_)">
		<defs>
			<rect id="SVGID_417_" x="142.456" y="-994.539" width="1590" height="2328"/>
		</defs>
		<clipPath id="SVGID_312_">
			<use xlink:href="#SVGID_417_"  overflow="visible"/>
		</clipPath>
	</g>
</g>
<g>
	<defs>
		<polyline id="SVGID_419_" points="209.197,1251.327 209.159,1251.364 209.163,1251.464 208.94,1251.434 208.943,1251.289 
			208.779,1251.001 208.817,1250.964 209.108,1251.123 209.279,1251.123 209.279,1251.354 209.196,1251.323 		"/>
	</defs>
	<clipPath id="SVGID_314_">
		<use xlink:href="#SVGID_419_"  overflow="visible"/>
	</clipPath>
	<g clip-path="url(#SVGID_314_)">
		<defs>
			<rect id="SVGID_421_" x="142.456" y="-994.539" width="1590" height="2328"/>
		</defs>
		<clipPath id="SVGID_316_">
			<use xlink:href="#SVGID_421_"  overflow="visible"/>
		</clipPath>
	</g>
</g>
<g>
	<defs>
		<path id="SVGID_423_" d="M209.417,1251.461c-0.062,0-0.113-0.049-0.113-0.11c0-0.06,0.052-0.108,0.113-0.108
			c0.035,0,0.066,0.018,0.086,0.046h0.039c0.008-0.022,0.012-0.049,0.012-0.077c0-0.137-0.114-0.25-0.252-0.25
			c-0.135,0-0.248,0.113-0.248,0.25c0,0.14,0.113,0.25,0.248,0.25h0.117H209.417"/>
	</defs>
	<clipPath id="SVGID_318_">
		<use xlink:href="#SVGID_423_"  overflow="visible"/>
	</clipPath>
	<g clip-path="url(#SVGID_318_)">
		<defs>
			<rect id="SVGID_425_" x="142.456" y="-994.539" width="1590" height="2328"/>
		</defs>
		<clipPath id="SVGID_320_">
			<use xlink:href="#SVGID_425_"  overflow="visible"/>
		</clipPath>
	</g>
</g>
<g>
	<defs>
		<path id="SVGID_427_" d="M209.272,1251.6c0-0.062-0.051-0.111-0.109-0.111c-0.062,0-0.111,0.05-0.111,0.111
			c0,0.036,0.021,0.067,0.049,0.088v0.036c-0.025,0.008-0.051,0.015-0.076,0.015c-0.141,0-0.252-0.113-0.252-0.25
			c0-0.139,0.111-0.25,0.252-0.25c0.137,0,0.248,0.111,0.248,0.25v0.114V1251.6"/>
	</defs>
	<clipPath id="SVGID_322_">
		<use xlink:href="#SVGID_427_"  overflow="visible"/>
	</clipPath>
	<g clip-path="url(#SVGID_322_)">
		<defs>
			<rect id="SVGID_429_" x="142.456" y="-994.539" width="1590" height="2328"/>
		</defs>
		<clipPath id="SVGID_324_">
			<use xlink:href="#SVGID_429_"  overflow="visible"/>
		</clipPath>
	</g>
</g>
<g>
	<defs>
		<path id="SVGID_431_" d="M209.417,1256.416c-0.062,0-0.113,0.049-0.113,0.11c0,0.06,0.052,0.108,0.113,0.108
			c0.035,0,0.066-0.018,0.086-0.046h0.039c0.008,0.022,0.012,0.049,0.012,0.077c0,0.137-0.114,0.25-0.252,0.25
			c-0.135,0-0.248-0.113-0.248-0.25s0.113-0.25,0.248-0.25l0.117,0.002L209.417,1256.416"/>
	</defs>
	<clipPath id="SVGID_326_">
		<use xlink:href="#SVGID_431_"  overflow="visible"/>
	</clipPath>
	<g clip-path="url(#SVGID_326_)">
		<defs>
			<rect id="SVGID_433_" x="142.456" y="-994.539" width="1590" height="2328"/>
		</defs>
		<clipPath id="SVGID_328_">
			<use xlink:href="#SVGID_433_"  overflow="visible"/>
		</clipPath>
	</g>
</g>
<g>
	<defs>
		<path id="SVGID_435_" d="M209.272,1256.277c0,0.06-0.051,0.111-0.109,0.111c-0.062,0-0.111-0.052-0.111-0.111
			c0-0.036,0.021-0.067,0.049-0.088v-0.036c-0.025-0.008-0.051-0.014-0.076-0.014c-0.141,0-0.252,0.111-0.252,0.249
			c0,0.14,0.111,0.251,0.252,0.251c0.137,0,0.248-0.111,0.248-0.251v-0.114V1256.277"/>
	</defs>
	<clipPath id="SVGID_330_">
		<use xlink:href="#SVGID_435_"  overflow="visible"/>
	</clipPath>
	<g clip-path="url(#SVGID_330_)">
		<defs>
			<rect id="SVGID_437_" x="142.456" y="-994.539" width="1590" height="2328"/>
		</defs>
		<clipPath id="SVGID_332_">
			<use xlink:href="#SVGID_437_"  overflow="visible"/>
		</clipPath>
	</g>
</g>
<g>
	<defs>
		<path id="SVGID_439_" d="M213.551,1256.416c0.061,0,0.109,0.049,0.109,0.11c0,0.06-0.049,0.108-0.109,0.108
			c-0.035,0-0.068-0.018-0.086-0.046h-0.039c-0.008,0.022-0.012,0.049-0.012,0.077c0,0.137,0.111,0.25,0.248,0.25
			s0.252-0.113,0.252-0.25s-0.115-0.25-0.252-0.25l-0.114,0.002C213.548,1256.418,213.548,1256.416,213.551,1256.416"/>
	</defs>
	<clipPath id="SVGID_334_">
		<use xlink:href="#SVGID_439_"  overflow="visible"/>
	</clipPath>
	<g clip-path="url(#SVGID_334_)">
		<defs>
			<rect id="SVGID_441_" x="142.456" y="-994.539" width="1590" height="2328"/>
		</defs>
		<clipPath id="SVGID_336_">
			<use xlink:href="#SVGID_441_"  overflow="visible"/>
		</clipPath>
	</g>
</g>
<g>
	<defs>
		<path id="SVGID_443_" d="M213.694,1256.277c0,0.06,0.051,0.111,0.109,0.111c0.062,0,0.111-0.052,0.111-0.111
			c0-0.036-0.018-0.067-0.046-0.088v-0.036c0.022-0.008,0.048-0.014,0.076-0.014c0.138,0,0.249,0.111,0.249,0.249
			c0,0.14-0.111,0.251-0.249,0.251s-0.251-0.111-0.251-0.251l0.002-0.114L213.694,1256.277"/>
	</defs>
	<clipPath id="SVGID_338_">
		<use xlink:href="#SVGID_443_"  overflow="visible"/>
	</clipPath>
	<g clip-path="url(#SVGID_338_)">
		<defs>
			<rect id="SVGID_445_" x="142.456" y="-994.539" width="1590" height="2328"/>
		</defs>
		<clipPath id="SVGID_340_">
			<use xlink:href="#SVGID_445_"  overflow="visible"/>
		</clipPath>
	</g>
</g>
<g>
	<defs>
		<polyline id="SVGID_447_" points="213.641,1251.327 213.679,1251.364 213.674,1251.464 213.899,1251.434 213.895,1251.289 
			214.059,1251.001 214.021,1250.964 213.732,1251.123 213.559,1251.123 213.559,1251.354 213.643,1251.323 		"/>
	</defs>
	<clipPath id="SVGID_342_">
		<use xlink:href="#SVGID_447_"  overflow="visible"/>
	</clipPath>
	<g clip-path="url(#SVGID_342_)">
		<defs>
			<rect id="SVGID_449_" x="142.456" y="-994.539" width="1590" height="2328"/>
		</defs>
		<clipPath id="SVGID_344_">
			<use xlink:href="#SVGID_449_"  overflow="visible"/>
		</clipPath>
	</g>
</g>
<g>
	<defs>
		<path id="SVGID_451_" d="M213.552,1251.461c0.062,0,0.109-0.049,0.109-0.11c0-0.06-0.048-0.108-0.109-0.108
			c-0.036,0-0.065,0.018-0.087,0.046h-0.037c-0.008-0.022-0.013-0.049-0.013-0.077c0-0.137,0.111-0.25,0.251-0.25
			c0.137,0,0.249,0.113,0.249,0.25c0,0.14-0.112,0.25-0.249,0.25h-0.117H213.552"/>
	</defs>
	<clipPath id="SVGID_346_">
		<use xlink:href="#SVGID_451_"  overflow="visible"/>
	</clipPath>
	<g clip-path="url(#SVGID_346_)">
		<defs>
			<rect id="SVGID_453_" x="142.456" y="-994.539" width="1590" height="2328"/>
		</defs>
		<clipPath id="SVGID_348_">
			<use xlink:href="#SVGID_453_"  overflow="visible"/>
		</clipPath>
	</g>
</g>
<g>
	<defs>
		<path id="SVGID_455_" d="M213.696,1251.6c0-0.062,0.051-0.111,0.111-0.111c0.059,0,0.109,0.05,0.109,0.111
			c0,0.036-0.021,0.067-0.049,0.088v0.036c0.026,0.008,0.051,0.015,0.077,0.015c0.14,0,0.251-0.113,0.251-0.25
			c0-0.139-0.111-0.25-0.251-0.25c-0.138,0-0.249,0.111-0.249,0.25v0.114V1251.6"/>
	</defs>
	<clipPath id="SVGID_350_">
		<use xlink:href="#SVGID_455_"  overflow="visible"/>
	</clipPath>
	<g clip-path="url(#SVGID_350_)">
		<defs>
			<rect id="SVGID_457_" x="142.456" y="-994.539" width="1590" height="2328"/>
		</defs>
		<clipPath id="SVGID_352_">
			<use xlink:href="#SVGID_457_"  overflow="visible"/>
		</clipPath>
	</g>
</g>
<g>
	<defs>
		<rect id="SVGID_459_" x="211.168" y="1251.619" width="0.5" height="0.5"/>
	</defs>
	<clipPath id="SVGID_354_">
		<use xlink:href="#SVGID_459_"  overflow="visible"/>
	</clipPath>
	<g clip-path="url(#SVGID_354_)">
		<defs>
			<rect id="SVGID_461_" x="142.456" y="-994.539" width="1590" height="2328"/>
		</defs>
		<clipPath id="SVGID_356_">
			<use xlink:href="#SVGID_461_"  overflow="visible"/>
		</clipPath>
	</g>
</g>
<g>
	<defs>
		<path id="SVGID_463_" d="M211.921,1251.866c-0.021,0.024-0.049,0.042-0.08,0.042c-0.063,0-0.112-0.049-0.112-0.109
			s0.049-0.106,0.105-0.11h-0.108c-0.137,0-0.249,0.11-0.249,0.249c0,0.138,0.112,0.251,0.249,0.251c0.14,0,0.251-0.113,0.251-0.251
			c0-0.008-0.003-0.011-0.003-0.021L211.921,1251.866"/>
	</defs>
	<clipPath id="SVGID_358_">
		<use xlink:href="#SVGID_463_"  overflow="visible"/>
	</clipPath>
	<g clip-path="url(#SVGID_358_)">
		<defs>
			<rect id="SVGID_465_" x="142.456" y="-994.539" width="1590" height="2328"/>
		</defs>
		<clipPath id="SVGID_360_">
			<use xlink:href="#SVGID_465_"  overflow="visible"/>
		</clipPath>
	</g>
</g>
<g>
	<defs>
		<path id="SVGID_467_" d="M211.122,1251.866c0.018,0.024,0.049,0.042,0.081,0.042c0.063,0,0.112-0.049,0.112-0.109
			s-0.046-0.106-0.105-0.11h0.108c0.137,0,0.249,0.11,0.249,0.249c0,0.138-0.112,0.251-0.249,0.251c-0.14,0-0.251-0.113-0.251-0.251
			c0-0.008,0.002-0.011,0.002-0.021L211.122,1251.866"/>
	</defs>
	<clipPath id="SVGID_362_">
		<use xlink:href="#SVGID_467_"  overflow="visible"/>
	</clipPath>
	<g clip-path="url(#SVGID_362_)">
		<defs>
			<rect id="SVGID_469_" x="142.456" y="-994.539" width="1590" height="2328"/>
		</defs>
		<clipPath id="SVGID_364_">
			<use xlink:href="#SVGID_469_"  overflow="visible"/>
		</clipPath>
	</g>
</g>
<g>
	<defs>
		<polyline id="SVGID_471_" points="211.444,1256.781 211.694,1256.781 211.567,1256.396 211.446,1256.392 211.417,1256.389 
			211.463,1256.281 211.394,1256.374 211.38,1256.354 211.325,1256.399 211.194,1256.781 211.444,1256.781 		"/>
	</defs>
	<clipPath id="SVGID_366_">
		<use xlink:href="#SVGID_471_"  overflow="visible"/>
	</clipPath>
	<g clip-path="url(#SVGID_366_)">
		<defs>
			<rect id="SVGID_473_" x="142.456" y="-994.539" width="1590" height="2328"/>
		</defs>
		<clipPath id="SVGID_368_">
			<use xlink:href="#SVGID_473_"  overflow="visible"/>
		</clipPath>
	</g>
</g>
<g>
	<defs>
		<rect id="SVGID_475_" x="211.173" y="1255.862" width="0.5" height="0.5"/>
	</defs>
	<clipPath id="SVGID_370_">
		<use xlink:href="#SVGID_475_"  overflow="visible"/>
	</clipPath>
	<g clip-path="url(#SVGID_370_)">
		<defs>
			<rect id="SVGID_477_" x="142.456" y="-994.539" width="1590" height="2328"/>
		</defs>
		<clipPath id="SVGID_372_">
			<use xlink:href="#SVGID_477_"  overflow="visible"/>
		</clipPath>
	</g>
</g>
<g>
	<defs>
		<polyline id="SVGID_479_" points="211.459,1255.702 211.583,1255.702 211.772,1256.202 211.272,1256.202 211.459,1255.702 		"/>
	</defs>
	<clipPath id="SVGID_374_">
		<use xlink:href="#SVGID_479_"  overflow="visible"/>
	</clipPath>
	<g clip-path="url(#SVGID_374_)">
		<defs>
			<rect id="SVGID_481_" x="142.456" y="-994.539" width="1590" height="2328"/>
		</defs>
		<clipPath id="SVGID_376_">
			<use xlink:href="#SVGID_481_"  overflow="visible"/>
		</clipPath>
	</g>
</g>
<g>
	<defs>
		<path id="SVGID_483_" d="M211.121,1256.089c0.021-0.024,0.05-0.043,0.081-0.043c0.063,0,0.112,0.051,0.112,0.111
			s-0.046,0.11-0.105,0.11h0.109c0.138,0,0.249-0.11,0.249-0.25s-0.111-0.25-0.249-0.25c-0.142,0-0.251,0.11-0.251,0.25v0.021
			L211.121,1256.089"/>
	</defs>
	<clipPath id="SVGID_378_">
		<use xlink:href="#SVGID_483_"  overflow="visible"/>
	</clipPath>
	<g clip-path="url(#SVGID_378_)">
		<defs>
			<rect id="SVGID_485_" x="142.456" y="-994.539" width="1590" height="2328"/>
		</defs>
		<clipPath id="SVGID_380_">
			<use xlink:href="#SVGID_485_"  overflow="visible"/>
		</clipPath>
	</g>
</g>
<g>
	<defs>
		<path id="SVGID_487_" d="M211.925,1256.089c-0.021-0.024-0.05-0.043-0.085-0.043c-0.06,0-0.109,0.051-0.109,0.111
			s0.047,0.11,0.106,0.11h-0.109c-0.138,0-0.25-0.11-0.25-0.25s0.112-0.25,0.25-0.25c0.142,0,0.25,0.11,0.25,0.25v0.021
			L211.925,1256.089"/>
	</defs>
	<clipPath id="SVGID_382_">
		<use xlink:href="#SVGID_487_"  overflow="visible"/>
	</clipPath>
	<g clip-path="url(#SVGID_382_)">
		<defs>
			<rect id="SVGID_489_" x="142.456" y="-994.539" width="1590" height="2328"/>
		</defs>
		<clipPath id="SVGID_384_">
			<use xlink:href="#SVGID_489_"  overflow="visible"/>
		</clipPath>
	</g>
</g>
<g>
	<defs>
		<polyline id="SVGID_491_" points="214.059,1253.897 214.059,1253.646 213.678,1253.776 213.67,1253.896 213.667,1253.925 
			213.559,1253.879 213.653,1253.947 213.631,1253.961 213.68,1254.018 214.059,1254.146 214.059,1253.897 		"/>
	</defs>
	<clipPath id="SVGID_386_">
		<use xlink:href="#SVGID_491_"  overflow="visible"/>
	</clipPath>
	<g clip-path="url(#SVGID_386_)">
		<defs>
			<rect id="SVGID_493_" x="142.456" y="-994.539" width="1590" height="2328"/>
		</defs>
		<clipPath id="SVGID_388_">
			<use xlink:href="#SVGID_493_"  overflow="visible"/>
		</clipPath>
	</g>
</g>
<g>
	<defs>
		<rect id="SVGID_495_" x="213.139" y="1253.633" width="0.5" height="0.5"/>
	</defs>
	<clipPath id="SVGID_390_">
		<use xlink:href="#SVGID_495_"  overflow="visible"/>
	</clipPath>
	<g clip-path="url(#SVGID_390_)">
		<defs>
			<rect id="SVGID_497_" x="142.456" y="-994.539" width="1590" height="2328"/>
		</defs>
		<clipPath id="SVGID_392_">
			<use xlink:href="#SVGID_497_"  overflow="visible"/>
		</clipPath>
	</g>
</g>
<g>
	<defs>
		<polyline id="SVGID_499_" points="212.977,1254.039 212.977,1253.915 213.477,1253.727 213.477,1254.227 212.977,1254.039 		"/>
	</defs>
	<clipPath id="SVGID_394_">
		<use xlink:href="#SVGID_499_"  overflow="visible"/>
	</clipPath>
	<g clip-path="url(#SVGID_394_)">
		<defs>
			<rect id="SVGID_501_" x="142.456" y="-994.539" width="1590" height="2328"/>
		</defs>
		<clipPath id="SVGID_396_">
			<use xlink:href="#SVGID_501_"  overflow="visible"/>
		</clipPath>
	</g>
</g>
<g>
	<defs>
		<path id="SVGID_503_" d="M213.366,1254.376c-0.025-0.021-0.043-0.05-0.043-0.082c0-0.063,0.049-0.11,0.112-0.11
			c0.056,0,0.104,0.047,0.104,0.104l0.004-0.107c0-0.139-0.111-0.25-0.252-0.25c-0.137,0-0.248,0.111-0.248,0.25
			c0,0.14,0.111,0.25,0.248,0.25c0.011,0,0.014-0.003,0.021-0.003L213.366,1254.376"/>
	</defs>
	<clipPath id="SVGID_398_">
		<use xlink:href="#SVGID_503_"  overflow="visible"/>
	</clipPath>
	<g clip-path="url(#SVGID_398_)">
		<defs>
			<rect id="SVGID_505_" x="142.456" y="-994.539" width="1590" height="2328"/>
		</defs>
		<clipPath id="SVGID_400_">
			<use xlink:href="#SVGID_505_"  overflow="visible"/>
		</clipPath>
	</g>
</g>
<g>
	<defs>
		<path id="SVGID_507_" d="M213.366,1253.58c-0.025,0.018-0.043,0.047-0.043,0.082c0,0.06,0.049,0.109,0.112,0.109
			c0.056,0,0.104-0.046,0.104-0.106l0.004,0.11c0,0.135-0.111,0.248-0.252,0.248c-0.137,0-0.248-0.113-0.248-0.248
			c0-0.139,0.111-0.252,0.248-0.252c0.011,0,0.014,0.004,0.021,0.004L213.366,1253.58"/>
	</defs>
	<clipPath id="SVGID_402_">
		<use xlink:href="#SVGID_507_"  overflow="visible"/>
	</clipPath>
	<g clip-path="url(#SVGID_402_)">
		<defs>
			<rect id="SVGID_509_" x="142.456" y="-994.539" width="1590" height="2328"/>
		</defs>
		<clipPath id="SVGID_404_">
			<use xlink:href="#SVGID_509_"  overflow="visible"/>
		</clipPath>
	</g>
</g>
<g>
	<defs>
		<polyline id="SVGID_511_" points="208.911,1253.897 208.911,1253.646 209.292,1253.776 209.299,1253.896 209.301,1253.925 
			209.411,1253.879 209.317,1253.947 209.337,1253.961 209.292,1254.018 208.911,1254.146 208.911,1253.897 		"/>
	</defs>
	<clipPath id="SVGID_406_">
		<use xlink:href="#SVGID_511_"  overflow="visible"/>
	</clipPath>
	<g clip-path="url(#SVGID_406_)">
		<defs>
			<rect id="SVGID_513_" x="142.456" y="-994.539" width="1590" height="2328"/>
		</defs>
		<clipPath id="SVGID_408_">
			<use xlink:href="#SVGID_513_"  overflow="visible"/>
		</clipPath>
	</g>
</g>
<g>
	<defs>
		<rect id="SVGID_515_" x="209.442" y="1253.633" width="0.5" height="0.5"/>
	</defs>
	<clipPath id="SVGID_410_">
		<use xlink:href="#SVGID_515_"  overflow="visible"/>
	</clipPath>
	<g clip-path="url(#SVGID_410_)">
		<defs>
			<rect id="SVGID_517_" x="142.456" y="-994.539" width="1590" height="2328"/>
		</defs>
		<clipPath id="SVGID_412_">
			<use xlink:href="#SVGID_517_"  overflow="visible"/>
		</clipPath>
	</g>
</g>
<g>
	<defs>
		<polyline id="SVGID_519_" points="210.108,1254.039 210.108,1253.915 209.608,1253.727 209.608,1254.227 210.108,1254.039 		"/>
	</defs>
	<clipPath id="SVGID_414_">
		<use xlink:href="#SVGID_519_"  overflow="visible"/>
	</clipPath>
	<g clip-path="url(#SVGID_414_)">
		<defs>
			<rect id="SVGID_521_" x="142.456" y="-994.539" width="1590" height="2328"/>
		</defs>
		<clipPath id="SVGID_416_">
			<use xlink:href="#SVGID_521_"  overflow="visible"/>
		</clipPath>
	</g>
</g>
<g>
	<defs>
		<path id="SVGID_523_" d="M209.682,1254.376c0.025-0.021,0.042-0.05,0.042-0.082c0-0.063-0.049-0.11-0.108-0.11
			c-0.059,0-0.108,0.047-0.111,0.104v-0.107c0-0.139,0.111-0.25,0.248-0.25c0.14,0,0.252,0.111,0.252,0.25
			c0,0.14-0.112,0.25-0.252,0.25c-0.007,0-0.011-0.003-0.021-0.003L209.682,1254.376"/>
	</defs>
	<clipPath id="SVGID_418_">
		<use xlink:href="#SVGID_523_"  overflow="visible"/>
	</clipPath>
	<g clip-path="url(#SVGID_418_)">
		<defs>
			<rect id="SVGID_525_" x="142.456" y="-994.539" width="1590" height="2328"/>
		</defs>
		<clipPath id="SVGID_420_">
			<use xlink:href="#SVGID_525_"  overflow="visible"/>
		</clipPath>
	</g>
</g>
<g>
	<defs>
		<path id="SVGID_527_" d="M209.682,1253.58c0.025,0.018,0.042,0.047,0.042,0.082c0,0.06-0.049,0.109-0.108,0.109
			c-0.059,0-0.108-0.046-0.111-0.106v0.11c0,0.135,0.111,0.248,0.248,0.248c0.14,0,0.252-0.113,0.252-0.248
			c0-0.139-0.112-0.252-0.252-0.252c-0.007,0-0.011,0.004-0.021,0.004L209.682,1253.58"/>
	</defs>
	<clipPath id="SVGID_422_">
		<use xlink:href="#SVGID_527_"  overflow="visible"/>
	</clipPath>
	<g clip-path="url(#SVGID_422_)">
		<defs>
			<rect id="SVGID_529_" x="142.456" y="-994.539" width="1590" height="2328"/>
		</defs>
		<clipPath id="SVGID_424_">
			<use xlink:href="#SVGID_529_"  overflow="visible"/>
		</clipPath>
	</g>
</g>
</svg>
