<?xml version="1.0" encoding="UTF-8" standalone="no"?>
<svg width="301px" height="234px" viewBox="0 0 301 234" version="1.1" xmlns="http://www.w3.org/2000/svg" xmlns:xlink="http://www.w3.org/1999/xlink">
    <!-- Generator: Sketch 42 (36781) - http://www.bohemiancoding.com/sketch -->
    <title>lowVision/overflowingContent</title>
    <desc>Created with Sketch.</desc>
    <defs></defs>
    <g id="Site-assets" stroke="none" stroke-width="1" fill="none" fill-rule="evenodd">
        <g id="Visually-impaired---low-vision" transform="translate(-1198.000000, -1636.000000)">
            <g id="lowVision/overflowingContent" transform="translate(1198.000000, 1629.000000)">
                <g id="Group" transform="translate(63.000000, 52.000000)">
                    <rect id="Rectangle-96" fill="#FFFFFF" x="14.5647027" y="15.1333333" width="196.432565" height="139.650211"></rect>
                    <rect id="Rectangle-51" fill="#FFBF47" x="80.0584184" y="21.9055988" width="122.163959" height="49.045614"></rect>
                    <rect id="Rectangle-51" fill="#F47738" x="81.307843" y="81.4074142" width="122.163959" height="13.5298246"></rect>
                    <rect id="Rectangle-51" fill="#F47738" x="81.307843" y="103.283082" width="122.163959" height="13.5298246"></rect>
                    <rect id="Rectangle-63" fill="#28A197" x="130.592916" y="124.376616" width="71.9678772" height="24.3710876"></rect>
                    <rect id="Rectangle-233" fill="#B58840" x="21.944" y="21.8982456" width="52.328" height="37.2070175"></rect>
                    <rect id="Rectangle-233" fill="#DF3034" x="21.944" y="66.7157895" width="52.328" height="37.2070175"></rect>
                    <rect id="Rectangle-233" fill="#FFBF47" x="21.944" y="111.533333" width="52.328" height="37.2070175"></rect>
                    <path d="M85.7238417,171.855232 C85.7238417,169.533533 84.8755413,167.5244 83.1789151,165.827774 C81.482289,164.131148 79.4731565,163.282847 77.1514575,163.282847 C74.8297585,163.282847 72.8206261,164.131148 71.1239999,165.827774 C69.4273737,167.5244 68.5790734,169.533533 68.5790734,171.855232 C68.5790734,174.176931 69.4273737,176.186063 71.1239999,177.882689 C72.8206261,179.579315 74.8297585,180.427616 77.1514575,180.427616 C79.4731565,180.427616 81.482289,179.579315 83.1789151,177.882689 C84.8755413,176.186063 85.7238417,174.176931 85.7238417,171.855232 Z M137.158147,150.424271 L137.158147,21.8385087 C137.158147,20.6776592 136.733997,19.673093 135.885683,18.8247799 C135.03737,17.9764668 134.032804,17.5523166 132.871955,17.5523166 L21.4309604,17.5523166 C20.2701109,17.5523166 19.2655447,17.9764668 18.4172316,18.8247799 C17.5689185,19.673093 17.1447683,20.6776592 17.1447683,21.8385087 L17.1447683,150.424271 C17.1447683,151.585121 17.5689185,152.589687 18.4172316,153.438 C19.2655447,154.286313 20.2701109,154.710463 21.4309604,154.710463 L132.871955,154.710463 C134.032804,154.710463 135.03737,154.286313 135.885683,153.438 C136.733997,152.589687 137.158147,151.585121 137.158147,150.424271 Z M154.302915,21.8385087 L154.302915,167.56904 C154.302915,173.462583 152.204488,178.507738 148.00757,182.704655 C143.810653,186.901573 138.765498,189 132.871955,189 L21.4309604,189 C15.5374168,189 10.492262,186.901573 6.29534462,182.704655 C2.09842722,178.507738 0,173.462583 0,167.56904 L0,21.8385087 C0,15.9449651 2.09842722,10.8998103 6.29534462,6.70289289 C10.492262,2.50597549 15.5374168,0.407548263 21.4309604,0.407548263 L132.871955,0.407548263 C138.765498,0.407548263 143.810653,2.50597549 148.00757,6.70289289 C152.204488,10.8998103 154.302915,15.9449651 154.302915,21.8385087 Z" id="" fill="#333333"></path>
                </g>
                <g id="Group-2" font-size="32" font-family="HelveticaNeue-Bold, Helvetica Neue" fill="#0B0C0C" font-weight="bold">
                    <text id="200%-magnification">
                        <tspan x="0" y="31">200% magnification</tspan>
                    </text>
                </g>
            </g>
        </g>
    </g>
</svg>