<?xml version="1.0" encoding="UTF-8" standalone="no"?>
<svg width="301px" height="234px" viewBox="0 0 301 234" version="1.1" xmlns="http://www.w3.org/2000/svg" xmlns:xlink="http://www.w3.org/1999/xlink">
    <!-- Generator: Sketch 42 (36781) - http://www.bohemiancoding.com/sketch -->
    <title>lowVision/logicalLayout</title>
    <desc>Created with Sketch.</desc>
    <defs></defs>
    <g id="Site-assets" stroke="none" stroke-width="1" fill="none" fill-rule="evenodd">
        <g id="Visually-impaired---low-vision" transform="translate(-453.000000, -1635.000000)">
            <g id="lowVision/logicalLayout" transform="translate(453.000000, 1628.000000)">
                <g id="Group" transform="translate(61.000000, 54.000000)">
                    <rect id="Rectangle-87" fill="#FFFFFF" x="14.472973" y="5.76521739" width="128.189189" height="156.252174"></rect>
                    <path d="M84.9179537,170.016409 C84.9179537,167.716537 84.0776282,165.726292 82.3969519,164.045616 C80.7162757,162.364939 78.726031,161.524614 76.4261583,161.524614 C74.1262856,161.524614 72.1360409,162.364939 70.4553647,164.045616 C68.7746884,165.726292 67.9343629,167.716537 67.9343629,170.016409 C67.9343629,172.316282 68.7746884,174.306527 70.4553647,175.987203 C72.1360409,177.667879 74.1262856,178.508205 76.4261583,178.508205 C78.726031,178.508205 80.7162757,177.667879 82.3969519,175.987203 C84.0776282,174.306527 84.9179537,172.316282 84.9179537,170.016409 Z M135.868726,148.786921 L135.868726,21.4099903 C135.868726,20.260054 135.448563,19.2649317 134.608225,18.4245935 C133.767887,17.5842554 132.772765,17.1640927 131.622828,17.1640927 L21.2294884,17.1640927 C20.079552,17.1640927 19.0844297,17.5842554 18.2440916,18.4245935 C17.4037535,19.2649317 16.9835907,20.260054 16.9835907,21.4099903 L16.9835907,148.786921 C16.9835907,149.936857 17.4037535,150.93198 18.2440916,151.772318 C19.0844297,152.612656 20.079552,153.032819 21.2294884,153.032819 L131.622828,153.032819 C132.772765,153.032819 133.767887,152.612656 134.608225,151.772318 C135.448563,150.93198 135.868726,149.936857 135.868726,148.786921 Z M152.852317,21.4099903 L152.852317,165.770512 C152.852317,171.60865 150.773617,176.606376 146.616154,180.763838 C142.458692,184.9213 137.460967,187 131.622828,187 L21.2294884,187 C15.3913499,187 10.3936245,184.9213 6.23616222,180.763838 C2.07869995,176.606376 0,171.60865 0,165.770512 L0,21.4099903 C0,15.5718518 2.07869995,10.5741264 6.23616222,6.41666415 C10.3936245,2.25920188 15.3913499,0.180501931 21.2294884,0.180501931 L131.622828,0.180501931 C137.460967,0.180501931 142.458692,2.25920188 146.616154,6.41666415 C150.773617,10.5741264 152.852317,15.5718518 152.852317,21.4099903 Z" id="" fill="#0B0C0C"></path>
                    <rect id="Rectangle-51" fill="#FFBF47" x="24.8108108" y="24.3913043" width="103.378378" height="47.6"></rect>
                    <rect id="Rectangle-51" fill="#F47738" x="24.8108108" y="79.8426269" width="103.378378" height="13.3146853"></rect>
                    <rect id="Rectangle-51" fill="#F47738" x="24.8108108" y="101.370447" width="103.378378" height="13.3146853"></rect>
                    <rect id="Rectangle-63" fill="#28A197" x="24.8108108" y="122.128571" width="53.7567568" height="23.9835603"></rect>
                </g>
                <text id="200%-magnification" font-family="HelveticaNeue-Bold, Helvetica Neue" font-size="32" font-weight="bold" fill="#0B0C0C">
                    <tspan x="0" y="31">200% magnification</tspan>
                </text>
            </g>
        </g>
    </g>
</svg>